<?xml version="1.0" encoding="utf-8" standalone="no"?>
<!DOCTYPE svg PUBLIC "-//W3C//DTD SVG 1.1//EN"
  "http://www.w3.org/Graphics/SVG/1.1/DTD/svg11.dtd">
<!-- Created with matplotlib (https://matplotlib.org/) -->
<svg height="345.6pt" version="1.1" viewBox="0 0 460.8 345.6" width="460.8pt" xmlns="http://www.w3.org/2000/svg" xmlns:xlink="http://www.w3.org/1999/xlink">
 <defs>
  <style type="text/css">
*{stroke-linecap:butt;stroke-linejoin:round;}
  </style>
 </defs>
 <g id="figure_1">
  <g id="patch_1">
   <path d="M 0 345.6 
L 460.8 345.6 
L 460.8 0 
L 0 0 
z
" style="fill:#ffffff;"/>
  </g>
  <g id="axes_1">
   <g id="patch_2">
    <path d="M 57.6 307.584 
L 414.72 307.584 
L 414.72 41.472 
L 57.6 41.472 
z
" style="fill:#ffffff;"/>
   </g>
   <g id="matplotlib.axis_1">
    <g id="xtick_1">
     <g id="line2d_1">
      <defs>
       <path d="M 0 0 
L 0 3.5 
" id="mcf59b1d3af" style="stroke:#000000;stroke-width:0.8;"/>
      </defs>
      <g>
       <use style="stroke:#000000;stroke-width:0.8;" x="73.832727" xlink:href="#mcf59b1d3af" y="307.584"/>
      </g>
     </g>
     <g id="text_1">
      <!-- $0.0$ -->
      <defs>
       <path d="M 42 31.84375 
C 42 37.96875 41.90625 48.421875 37.703125 56.453125 
C 34 63.484375 28.09375 66 22.90625 66 
C 18.09375 66 12 63.78125 8.203125 56.5625 
C 4.203125 49.015625 3.796875 39.671875 3.796875 31.84375 
C 3.796875 26.109375 3.90625 17.375 7 9.734375 
C 11.296875 -0.609375 19 -2 22.90625 -2 
C 27.5 -2 34.5 -0.109375 38.59375 9.4375 
C 41.59375 16.375 42 24.5 42 31.84375 
z
M 22.90625 -0.40625 
C 16.5 -0.40625 12.703125 5.125 11.296875 12.75 
C 10.203125 18.6875 10.203125 27.328125 10.203125 32.953125 
C 10.203125 40.6875 10.203125 47.109375 11.5 53.234375 
C 13.40625 61.78125 19 64.390625 22.90625 64.390625 
C 27 64.390625 32.296875 61.671875 34.203125 53.4375 
C 35.5 47.71875 35.59375 40.984375 35.59375 32.953125 
C 35.59375 26.421875 35.59375 18.375 34.40625 12.453125 
C 32.296875 1.5 26.40625 -0.40625 22.90625 -0.40625 
z
" id="CMR17-48"/>
       <path d="M 18.40625 4.796875 
C 18.40625 7.6875 16 9.6875 13.59375 9.6875 
C 10.703125 9.6875 8.703125 7.296875 8.703125 4.890625 
C 8.703125 2 11.09375 0 13.5 0 
C 16.40625 0 18.40625 2.390625 18.40625 4.796875 
z
" id="CMMI12-58"/>
      </defs>
      <g transform="translate(65.107436 324.269876)scale(0.14 -0.14)">
       <use transform="scale(0.996264)" xlink:href="#CMR17-48"/>
       <use transform="translate(45.690477 0)scale(0.996264)" xlink:href="#CMMI12-58"/>
       <use transform="translate(72.787654 0)scale(0.996264)" xlink:href="#CMR17-48"/>
      </g>
     </g>
    </g>
    <g id="xtick_2">
     <g id="line2d_2">
      <g>
       <use style="stroke:#000000;stroke-width:0.8;" x="138.763636" xlink:href="#mcf59b1d3af" y="307.584"/>
      </g>
     </g>
     <g id="text_2">
      <!-- $0.2$ -->
      <defs>
       <path d="M 41.703125 15.46875 
L 39.90625 15.46875 
C 38.90625 8.390625 38.09375 7.1875 37.703125 6.59375 
C 37.203125 5.796875 30 5.796875 28.59375 5.796875 
L 9.40625 5.796875 
C 13 9.6875 20 16.765625 28.5 24.9375 
C 34.59375 30.71875 41.703125 37.5 41.703125 47.390625 
C 41.703125 59.1875 32.296875 66 21.796875 66 
C 10.796875 66 4.09375 56.296875 4.09375 47.296875 
C 4.09375 43.390625 7 42.890625 8.203125 42.890625 
C 9.203125 42.890625 12.203125 43.484375 12.203125 46.984375 
C 12.203125 50.09375 9.59375 51 8.203125 51 
C 7.59375 51 7 50.890625 6.59375 50.6875 
C 8.5 59.1875 14.296875 63.390625 20.40625 63.390625 
C 29.09375 63.390625 34.796875 56.5 34.796875 47.390625 
C 34.796875 38.703125 29.703125 31.21875 24 24.734375 
L 4.09375 2.296875 
L 4.09375 0 
L 39.296875 0 
z
" id="CMR17-50"/>
      </defs>
      <g transform="translate(130.038345 324.269876)scale(0.14 -0.14)">
       <use transform="scale(0.996264)" xlink:href="#CMR17-48"/>
       <use transform="translate(45.690477 0)scale(0.996264)" xlink:href="#CMMI12-58"/>
       <use transform="translate(72.787654 0)scale(0.996264)" xlink:href="#CMR17-50"/>
      </g>
     </g>
    </g>
    <g id="xtick_3">
     <g id="line2d_3">
      <g>
       <use style="stroke:#000000;stroke-width:0.8;" x="203.694545" xlink:href="#mcf59b1d3af" y="307.584"/>
      </g>
     </g>
     <g id="text_3">
      <!-- $0.4$ -->
      <defs>
       <path d="M 33.59375 64.796875 
C 33.59375 66.890625 33.5 67 31.703125 67 
L 2 19.59375 
L 2 17 
L 27.796875 17 
L 27.796875 7.1875 
C 27.796875 3.59375 27.59375 2.59375 20.59375 2.59375 
L 18.703125 2.59375 
L 18.703125 0 
C 21.90625 0.1875 27.296875 0.1875 30.703125 0.1875 
C 34.09375 0.1875 39.5 0.1875 42.703125 0 
L 42.703125 2.59375 
L 40.796875 2.59375 
C 33.796875 2.59375 33.59375 3.59375 33.59375 7.1875 
L 33.59375 17 
L 43.796875 17 
L 43.796875 19.59375 
L 33.59375 19.59375 
z
M 28.09375 58.171875 
L 28.09375 19.59375 
L 4 19.59375 
z
" id="CMR17-52"/>
      </defs>
      <g transform="translate(194.969254 324.269876)scale(0.14 -0.14)">
       <use transform="scale(0.996264)" xlink:href="#CMR17-48"/>
       <use transform="translate(45.690477 0)scale(0.996264)" xlink:href="#CMMI12-58"/>
       <use transform="translate(72.787654 0)scale(0.996264)" xlink:href="#CMR17-52"/>
      </g>
     </g>
    </g>
    <g id="xtick_4">
     <g id="line2d_4">
      <g>
       <use style="stroke:#000000;stroke-width:0.8;" x="268.625455" xlink:href="#mcf59b1d3af" y="307.584"/>
      </g>
     </g>
     <g id="text_4">
      <!-- $0.6$ -->
      <defs>
       <path d="M 10.59375 34.34375 
C 10.59375 58 21.796875 63.6875 28.296875 63.6875 
C 30.40625 63.6875 35.5 63.265625 37.5 59.09375 
C 35.90625 59.09375 32.90625 59.09375 32.90625 55.59375 
C 32.90625 52.890625 35.09375 52 36.5 52 
C 37.40625 52 40.09375 52.390625 40.09375 55.796875 
C 40.09375 62.296875 35.09375 66 28.203125 66 
C 16.296875 66 3.796875 53.296875 3.796875 31.421875 
C 3.796875 4.015625 15.09375 -2 23.09375 -2 
C 32.796875 -2 42 6.734375 42 20.234375 
C 42 32.828125 33.90625 42 23.703125 42 
C 17.59375 42 13.09375 37.96875 10.59375 30.921875 
z
M 23.09375 0.390625 
C 10.796875 0.390625 10.796875 18.9375 10.796875 22.65625 
C 10.796875 29.90625 14.203125 40.390625 23.5 40.390625 
C 25.203125 40.390625 30.09375 40.390625 33.40625 33.4375 
C 35.203125 29.515625 35.203125 25.375 35.203125 20.34375 
C 35.203125 14.90625 35.203125 10.875 33.09375 6.84375 
C 30.90625 2.703125 27.703125 0.390625 23.09375 0.390625 
z
" id="CMR17-54"/>
      </defs>
      <g transform="translate(259.900164 324.269876)scale(0.14 -0.14)">
       <use transform="scale(0.996264)" xlink:href="#CMR17-48"/>
       <use transform="translate(45.690477 0)scale(0.996264)" xlink:href="#CMMI12-58"/>
       <use transform="translate(72.787654 0)scale(0.996264)" xlink:href="#CMR17-54"/>
      </g>
     </g>
    </g>
    <g id="xtick_5">
     <g id="line2d_5">
      <g>
       <use style="stroke:#000000;stroke-width:0.8;" x="333.556364" xlink:href="#mcf59b1d3af" y="307.584"/>
      </g>
     </g>
     <g id="text_5">
      <!-- $0.8$ -->
      <defs>
       <path d="M 27.203125 35.765625 
C 33.5 38.96875 39.90625 43.796875 39.90625 51.53125 
C 39.90625 60.6875 31.09375 66 23 66 
C 13.90625 66 5.90625 59.375 5.90625 50.234375 
C 5.90625 47.71875 6.5 43.390625 10.40625 39.578125 
C 11.40625 38.578125 15.59375 35.5625 18.296875 33.65625 
C 13.796875 31.34375 3.296875 25.8125 3.296875 14.765625 
C 3.296875 4.40625 13.09375 -2 22.796875 -2 
C 33.5 -2 42.5 5.71875 42.5 15.96875 
C 42.5 25.109375 36.40625 29.328125 32.40625 32.046875 
z
M 14.09375 44.609375 
C 13.296875 45.109375 9.296875 48.21875 9.296875 52.9375 
C 9.296875 59.078125 15.59375 63.6875 22.796875 63.6875 
C 30.703125 63.6875 36.5 58.0625 36.5 51.53125 
C 36.5 42.1875 26.09375 36.859375 25.59375 36.859375 
C 25.5 36.859375 25.40625 36.859375 24.59375 37.46875 
z
M 32.5 24 
C 34 22.90625 38.796875 19.578125 38.796875 13.453125 
C 38.796875 6.015625 31.40625 0.390625 23 0.390625 
C 13.90625 0.390625 7 6.921875 7 14.859375 
C 7 22.796875 13.09375 29.4375 20 32.546875 
z
" id="CMR17-56"/>
      </defs>
      <g transform="translate(324.831073 324.269876)scale(0.14 -0.14)">
       <use transform="scale(0.996264)" xlink:href="#CMR17-48"/>
       <use transform="translate(45.690477 0)scale(0.996264)" xlink:href="#CMMI12-58"/>
       <use transform="translate(72.787654 0)scale(0.996264)" xlink:href="#CMR17-56"/>
      </g>
     </g>
    </g>
    <g id="xtick_6">
     <g id="line2d_6">
      <g>
       <use style="stroke:#000000;stroke-width:0.8;" x="398.487273" xlink:href="#mcf59b1d3af" y="307.584"/>
      </g>
     </g>
     <g id="text_6">
      <!-- $1.0$ -->
      <defs>
       <path d="M 26.59375 63.796875 
C 26.59375 65.890625 26.5 66 25.09375 66 
C 21.203125 61.359375 15.296875 59.890625 9.703125 59.6875 
C 9.40625 59.6875 8.90625 59.6875 8.796875 59.5 
C 8.703125 59.296875 8.703125 59.09375 8.703125 57 
C 11.796875 57 17 57.59375 21 59.984375 
L 21 7.296875 
C 21 3.796875 20.796875 2.59375 12.203125 2.59375 
L 9.203125 2.59375 
L 9.203125 0 
C 14 0.09375 19 0.1875 23.796875 0.1875 
C 28.59375 0.1875 33.59375 0.09375 38.40625 0 
L 38.40625 2.59375 
L 35.40625 2.59375 
C 26.796875 2.59375 26.59375 3.6875 26.59375 7.296875 
z
" id="CMR17-49"/>
      </defs>
      <g transform="translate(389.761982 324.269876)scale(0.14 -0.14)">
       <use transform="scale(0.996264)" xlink:href="#CMR17-49"/>
       <use transform="translate(45.690477 0)scale(0.996264)" xlink:href="#CMMI12-58"/>
       <use transform="translate(72.787654 0)scale(0.996264)" xlink:href="#CMR17-48"/>
      </g>
     </g>
    </g>
    <g id="text_7">
     <!-- $t$ -->
     <defs>
      <path d="M 20.09375 40.09375 
L 29.296875 40.09375 
C 31.203125 40.09375 32.203125 40.09375 32.203125 41.890625 
C 32.203125 43 31.59375 43 29.59375 43 
L 20.796875 43 
L 24.5 57.25 
C 24.90625 58.625 24.90625 58.8125 24.90625 59.5 
C 24.90625 61.09375 23.59375 62 22.296875 62 
C 21.5 62 19.203125 61.6875 18.40625 58.53125 
L 14.5 43 
L 5.09375 43 
C 3.09375 43 2.203125 43 2.203125 41.09375 
C 2.203125 40.09375 2.90625 40.09375 4.796875 40.09375 
L 13.703125 40.09375 
L 7.09375 13.765625 
C 6.296875 10.265625 6 9.265625 6 7.96875 
C 6 3.28125 9.296875 -1 14.90625 -1 
C 25 -1 30.40625 13.5625 30.40625 14.265625 
C 30.40625 14.859375 30 15.15625 29.40625 15.15625 
C 29.203125 15.15625 28.796875 15.15625 28.59375 14.75 
C 28.5 14.65625 28.40625 14.5625 27.703125 12.96875 
C 25.59375 7.96875 21 1 15.203125 1 
C 12.203125 1 12 3.484375 12 5.6875 
C 12 5.78125 12 7.671875 12.296875 8.875 
z
" id="CMMI12-116"/>
     </defs>
     <g transform="translate(232.637367 344.818902)scale(0.2 -0.2)">
      <use transform="scale(0.996264)" xlink:href="#CMMI12-116"/>
     </g>
    </g>
   </g>
   <g id="matplotlib.axis_2">
    <g id="ytick_1">
     <g id="line2d_7">
      <defs>
       <path d="M 0 0 
L -3.5 0 
" id="m70cfca862e" style="stroke:#000000;stroke-width:0.8;"/>
      </defs>
      <g>
       <use style="stroke:#000000;stroke-width:0.8;" x="57.6" xlink:href="#m70cfca862e" y="280.341803"/>
      </g>
     </g>
     <g id="text_8">
      <!-- $0.4$ -->
      <g transform="translate(33.149418 285.184741)scale(0.14 -0.14)">
       <use transform="scale(0.996264)" xlink:href="#CMR17-48"/>
       <use transform="translate(45.690477 0)scale(0.996264)" xlink:href="#CMMI12-58"/>
       <use transform="translate(72.787654 0)scale(0.996264)" xlink:href="#CMR17-52"/>
      </g>
     </g>
    </g>
    <g id="ytick_2">
     <g id="line2d_8">
      <g>
       <use style="stroke:#000000;stroke-width:0.8;" x="57.6" xlink:href="#m70cfca862e" y="236.906339"/>
      </g>
     </g>
     <g id="text_9">
      <!-- $0.6$ -->
      <g transform="translate(33.149418 241.749278)scale(0.14 -0.14)">
       <use transform="scale(0.996264)" xlink:href="#CMR17-48"/>
       <use transform="translate(45.690477 0)scale(0.996264)" xlink:href="#CMMI12-58"/>
       <use transform="translate(72.787654 0)scale(0.996264)" xlink:href="#CMR17-54"/>
      </g>
     </g>
    </g>
    <g id="ytick_3">
     <g id="line2d_9">
      <g>
       <use style="stroke:#000000;stroke-width:0.8;" x="57.6" xlink:href="#m70cfca862e" y="193.470876"/>
      </g>
     </g>
     <g id="text_10">
      <!-- $0.8$ -->
      <g transform="translate(33.149418 198.313814)scale(0.14 -0.14)">
       <use transform="scale(0.996264)" xlink:href="#CMR17-48"/>
       <use transform="translate(45.690477 0)scale(0.996264)" xlink:href="#CMMI12-58"/>
       <use transform="translate(72.787654 0)scale(0.996264)" xlink:href="#CMR17-56"/>
      </g>
     </g>
    </g>
    <g id="ytick_4">
     <g id="line2d_10">
      <g>
       <use style="stroke:#000000;stroke-width:0.8;" x="57.6" xlink:href="#m70cfca862e" y="150.035412"/>
      </g>
     </g>
     <g id="text_11">
      <!-- $1.0$ -->
      <g transform="translate(33.149418 154.878351)scale(0.14 -0.14)">
       <use transform="scale(0.996264)" xlink:href="#CMR17-49"/>
       <use transform="translate(45.690477 0)scale(0.996264)" xlink:href="#CMMI12-58"/>
       <use transform="translate(72.787654 0)scale(0.996264)" xlink:href="#CMR17-48"/>
      </g>
     </g>
    </g>
    <g id="ytick_5">
     <g id="line2d_11">
      <g>
       <use style="stroke:#000000;stroke-width:0.8;" x="57.6" xlink:href="#m70cfca862e" y="106.599949"/>
      </g>
     </g>
     <g id="text_12">
      <!-- $1.2$ -->
      <g transform="translate(33.149418 111.442887)scale(0.14 -0.14)">
       <use transform="scale(0.996264)" xlink:href="#CMR17-49"/>
       <use transform="translate(45.690477 0)scale(0.996264)" xlink:href="#CMMI12-58"/>
       <use transform="translate(72.787654 0)scale(0.996264)" xlink:href="#CMR17-50"/>
      </g>
     </g>
    </g>
    <g id="ytick_6">
     <g id="line2d_12">
      <g>
       <use style="stroke:#000000;stroke-width:0.8;" x="57.6" xlink:href="#m70cfca862e" y="63.164485"/>
      </g>
     </g>
     <g id="text_13">
      <!-- $1.4$ -->
      <g transform="translate(33.149418 68.007424)scale(0.14 -0.14)">
       <use transform="scale(0.996264)" xlink:href="#CMR17-49"/>
       <use transform="translate(45.690477 0)scale(0.996264)" xlink:href="#CMMI12-58"/>
       <use transform="translate(72.787654 0)scale(0.996264)" xlink:href="#CMR17-52"/>
      </g>
     </g>
    </g>
    <g id="text_14">
     <!-- $y$ -->
     <defs>
      <path d="M 26.296875 -10.515625 
C 23.59375 -14.390625 19.703125 -18 14.796875 -18 
C 13.59375 -18 8.796875 -17.796875 7.296875 -12.90625 
C 7.59375 -13.015625 8.09375 -13.015625 8.296875 -13.015625 
C 11.296875 -13.015625 13.296875 -10.40625 13.296875 -8.109375 
C 13.296875 -5.8125 11.40625 -5 9.90625 -5 
C 8.296875 -5 4.796875 -6.203125 4.796875 -11.109375 
C 4.796875 -16.40625 9.09375 -20 14.796875 -20 
C 24.796875 -20 34.90625 -10.515625 37.703125 -0.109375 
L 47.5 38.796875 
C 47.59375 39.296875 47.796875 39.890625 47.796875 40.484375 
C 47.796875 41.984375 46.59375 43 45.09375 43 
C 44.203125 43 42.09375 42.59375 41.296875 39.59375 
L 33.90625 10.265625 
C 33.40625 8.46875 33.40625 8.28125 32.59375 7.171875 
C 30.59375 4.390625 27.296875 1 22.5 1 
C 16.90625 1 16.40625 6.484375 16.40625 9.171875 
C 16.40625 14.859375 19.09375 22.546875 21.796875 29.71875 
C 22.90625 32.609375 23.5 34.015625 23.5 36.015625 
C 23.5 40.203125 20.5 44 15.59375 44 
C 6.40625 44 2.703125 29.53125 2.703125 28.71875 
C 2.703125 28.328125 3.09375 27.828125 3.796875 27.828125 
C 4.703125 27.828125 4.796875 28.234375 5.203125 29.625 
C 7.59375 38 11.40625 41.984375 15.296875 41.984375 
C 16.203125 41.984375 17.90625 41.984375 17.90625 38.703125 
C 17.90625 36.109375 16.796875 33.21875 15.296875 29.421875 
C 10.40625 16.359375 10.40625 13.0625 10.40625 10.671875 
C 10.40625 1.1875 17.203125 -1 22.203125 -1 
C 25.09375 -1 28.703125 -0.109375 32.203125 3.59375 
L 32.296875 3.484375 
C 30.796875 -2.203125 29.796875 -5.609375 26.296875 -10.515625 
z
" id="CMMI12-121"/>
     </defs>
     <g transform="translate(25.273784 179.284417)rotate(-90)scale(0.2 -0.2)">
      <use transform="scale(0.996264)" xlink:href="#CMMI12-121"/>
     </g>
    </g>
   </g>
   <g id="line2d_13">
    <path clip-path="url(#pbad580e36c)" d="M 73.832727 150.035412 
L 90.065455 224.629162 
L 106.298182 265.599928 
L 122.530909 286.177323 
L 138.763636 293.456863 
L 154.996364 294.663574 
L 171.229091 289.826207 
L 187.461818 284.832422 
L 203.694545 274.62006 
L 219.927273 268.496798 
L 236.16 254.350015 
L 252.392727 250.39284 
L 268.625455 230.956938 
L 284.858182 233.254579 
L 301.090909 203.997912 
L 317.323636 219.89913 
L 333.556364 170.77412 
L 349.789091 215.03682 
L 366.021818 125.026772 
L 382.254545 227.978713 
L 398.487273 53.568 
" style="fill:none;stroke:#ff0000;stroke-linecap:square;stroke-width:1.5;"/>
    <defs>
     <path d="M 0 3 
C 0.795609 3 1.55874 2.683901 2.12132 2.12132 
C 2.683901 1.55874 3 0.795609 3 0 
C 3 -0.795609 2.683901 -1.55874 2.12132 -2.12132 
C 1.55874 -2.683901 0.795609 -3 0 -3 
C -0.795609 -3 -1.55874 -2.683901 -2.12132 -2.12132 
C -2.683901 -1.55874 -3 -0.795609 -3 0 
C -3 0.795609 -2.683901 1.55874 -2.12132 2.12132 
C -1.55874 2.683901 -0.795609 3 0 3 
z
" id="mf918adeaf6" style="stroke:#ff0000;"/>
    </defs>
    <g clip-path="url(#pbad580e36c)">
     <use style="fill:#ff0000;stroke:#ff0000;" x="73.832727" xlink:href="#mf918adeaf6" y="150.035412"/>
     <use style="fill:#ff0000;stroke:#ff0000;" x="90.065455" xlink:href="#mf918adeaf6" y="224.629162"/>
     <use style="fill:#ff0000;stroke:#ff0000;" x="106.298182" xlink:href="#mf918adeaf6" y="265.599928"/>
     <use style="fill:#ff0000;stroke:#ff0000;" x="122.530909" xlink:href="#mf918adeaf6" y="286.177323"/>
     <use style="fill:#ff0000;stroke:#ff0000;" x="138.763636" xlink:href="#mf918adeaf6" y="293.456863"/>
     <use style="fill:#ff0000;stroke:#ff0000;" x="154.996364" xlink:href="#mf918adeaf6" y="294.663574"/>
     <use style="fill:#ff0000;stroke:#ff0000;" x="171.229091" xlink:href="#mf918adeaf6" y="289.826207"/>
     <use style="fill:#ff0000;stroke:#ff0000;" x="187.461818" xlink:href="#mf918adeaf6" y="284.832422"/>
     <use style="fill:#ff0000;stroke:#ff0000;" x="203.694545" xlink:href="#mf918adeaf6" y="274.62006"/>
     <use style="fill:#ff0000;stroke:#ff0000;" x="219.927273" xlink:href="#mf918adeaf6" y="268.496798"/>
     <use style="fill:#ff0000;stroke:#ff0000;" x="236.16" xlink:href="#mf918adeaf6" y="254.350015"/>
     <use style="fill:#ff0000;stroke:#ff0000;" x="252.392727" xlink:href="#mf918adeaf6" y="250.39284"/>
     <use style="fill:#ff0000;stroke:#ff0000;" x="268.625455" xlink:href="#mf918adeaf6" y="230.956938"/>
     <use style="fill:#ff0000;stroke:#ff0000;" x="284.858182" xlink:href="#mf918adeaf6" y="233.254579"/>
     <use style="fill:#ff0000;stroke:#ff0000;" x="301.090909" xlink:href="#mf918adeaf6" y="203.997912"/>
     <use style="fill:#ff0000;stroke:#ff0000;" x="317.323636" xlink:href="#mf918adeaf6" y="219.89913"/>
     <use style="fill:#ff0000;stroke:#ff0000;" x="333.556364" xlink:href="#mf918adeaf6" y="170.77412"/>
     <use style="fill:#ff0000;stroke:#ff0000;" x="349.789091" xlink:href="#mf918adeaf6" y="215.03682"/>
     <use style="fill:#ff0000;stroke:#ff0000;" x="366.021818" xlink:href="#mf918adeaf6" y="125.026772"/>
     <use style="fill:#ff0000;stroke:#ff0000;" x="382.254545" xlink:href="#mf918adeaf6" y="227.978713"/>
     <use style="fill:#ff0000;stroke:#ff0000;" x="398.487273" xlink:href="#mf918adeaf6" y="53.568"/>
    </g>
   </g>
   <g id="line2d_14">
    <path clip-path="url(#pbad580e36c)" d="M 73.832727 150.035412 
L 77.079273 168.530793 
L 80.325818 185.059435 
L 83.572364 199.808496 
L 86.818909 212.947328 
L 90.065455 224.629162 
L 93.312 234.992652 
L 96.558545 244.163253 
L 99.805091 252.254485 
L 103.051636 259.369063 
L 106.298182 265.599928 
L 109.544727 271.031176 
L 112.791273 275.738901 
L 116.037818 279.791955 
L 119.284364 283.252638 
L 122.530909 286.177323 
L 125.777455 288.617015 
L 129.024 290.617868 
L 132.270545 292.221643 
L 135.517091 293.466128 
L 138.763636 294.385512 
L 142.010182 295.010734 
L 145.256727 295.369787 
L 148.503273 295.488 
L 151.749818 295.388292 
L 154.996364 295.091401 
L 158.242909 294.616091 
L 161.489455 293.979341 
L 164.736 293.196515 
L 167.982545 292.281512 
L 171.229091 291.246913 
L 174.475636 290.104096 
L 177.722182 288.863362 
L 180.968727 287.534028 
L 184.215273 286.124525 
L 187.461818 284.642482 
L 190.708364 283.094803 
L 193.954909 281.487733 
L 197.201455 279.826925 
L 200.448 278.117492 
L 203.694545 276.364061 
L 206.941091 274.57082 
L 210.187636 272.741557 
L 213.434182 270.8797 
L 216.680727 268.98835 
L 219.927273 267.070315 
L 223.173818 265.128133 
L 226.420364 263.164103 
L 229.666909 261.180303 
L 232.913455 259.178615 
L 236.16 257.160742 
L 239.406545 255.128223 
L 242.653091 253.082452 
L 245.899636 251.024691 
L 249.146182 248.956079 
L 252.392727 246.877651 
L 255.639273 244.79034 
L 258.885818 242.694991 
L 262.132364 240.592369 
L 265.378909 238.483167 
L 268.625455 236.368011 
L 271.872 234.247466 
L 275.118545 232.122047 
L 278.365091 229.992216 
L 281.611636 227.858394 
L 284.858182 225.720961 
L 288.104727 223.580259 
L 291.351273 221.436601 
L 294.597818 219.290267 
L 297.844364 217.141513 
L 301.090909 214.990567 
L 304.337455 212.83764 
L 307.584 210.68292 
L 310.830545 208.526576 
L 314.077091 206.368765 
L 317.323636 204.209624 
L 320.570182 202.049282 
L 323.816727 199.887852 
L 327.063273 197.725437 
L 330.309818 195.562132 
L 333.556364 193.398021 
L 336.802909 191.233181 
L 340.049455 189.067681 
L 343.296 186.901584 
L 346.542545 184.734947 
L 349.789091 182.567821 
L 353.035636 180.400253 
L 356.282182 178.232285 
L 359.528727 176.063955 
L 362.775273 173.895297 
L 366.021818 171.726342 
L 369.268364 169.55712 
L 372.514909 167.387654 
L 375.761455 165.217969 
L 379.008 163.048086 
L 382.254545 160.878022 
L 385.501091 158.707796 
L 388.747636 156.537422 
L 391.994182 154.366916 
L 395.240727 152.196289 
L 398.487273 150.025553 
" style="fill:none;stroke:#0000ff;stroke-linecap:square;stroke-width:1.5;"/>
   </g>
   <g id="patch_3">
    <path d="M 57.6 307.584 
L 57.6 41.472 
" style="fill:none;stroke:#000000;stroke-linecap:square;stroke-linejoin:miter;stroke-width:0.8;"/>
   </g>
   <g id="patch_4">
    <path d="M 414.72 307.584 
L 414.72 41.472 
" style="fill:none;stroke:#000000;stroke-linecap:square;stroke-linejoin:miter;stroke-width:0.8;"/>
   </g>
   <g id="patch_5">
    <path d="M 57.6 307.584 
L 414.72 307.584 
" style="fill:none;stroke:#000000;stroke-linecap:square;stroke-linejoin:miter;stroke-width:0.8;"/>
   </g>
   <g id="patch_6">
    <path d="M 57.6 41.472 
L 414.72 41.472 
" style="fill:none;stroke:#000000;stroke-linecap:square;stroke-linejoin:miter;stroke-width:0.8;"/>
   </g>
   <g id="text_15">
    <!-- Solution to $y'=-10y+t+1, y(0)=1, h=0.05$ -->
    <defs>
     <path d="M 43.703125 66.09375 
C 39.296875 68.6875 34.5 71 26.40625 71 
C 13.5 71 5.203125 61.46875 5.203125 51.703125 
C 5.203125 47.875 6.296875 43.546875 10.203125 39.125 
C 14.09375 34.6875 18.5 33.484375 24.09375 32.078125 
C 26.40625 31.46875 30.296875 30.359375 31 30.0625 
C 36.59375 27.84375 39.296875 22.71875 39.296875 17.875 
C 39.296875 11.53125 34.40625 4.796875 25.703125 4.796875 
C 22.703125 4.796875 13.90625 5.296875 5.59375 12.953125 
L 4.203125 5 
C 12.40625 -1 21.296875 -2 25.796875 -2 
C 38.09375 -2 46.90625 7.71875 46.90625 18.78125 
C 46.90625 22.8125 45.703125 27.953125 41.5 32.6875 
C 37.40625 37.203125 33.796875 38.21875 25.59375 40.4375 
C 20.90625 41.640625 17.90625 42.453125 15.40625 45.5625 
C 13.703125 47.78125 12.796875 49.890625 12.796875 52.609375 
C 12.796875 58.25 17.59375 64.390625 26.40625 64.390625 
C 30.796875 64.390625 36.5 63.484375 42.296875 58.046875 
z
" id="CMSS17-83"/>
     <path d="M 44.203125 21.1875 
C 44.203125 33.984375 34.703125 44 23.5 44 
C 12 44 2.703125 33.6875 2.703125 21.1875 
C 2.703125 8.5 12.296875 -1 23.40625 -1 
C 34.796875 -1 44.203125 8.796875 44.203125 21.1875 
z
M 23.5 5.296875 
C 16.40625 5.296875 10.296875 11.09375 10.296875 21.984375 
C 10.296875 33.59375 17.40625 37.890625 23.40625 37.890625 
C 29.90625 37.890625 36.59375 33.1875 36.59375 21.984375 
C 36.59375 10.6875 30.09375 5.296875 23.5 5.296875 
z
" id="CMSS17-111"/>
     <path d="M 14.796875 69 
L 7.40625 69 
L 7.40625 0 
L 14.796875 0 
z
" id="CMSS17-108"/>
     <path d="M 40.90625 43 
L 33.296875 43 
L 33.296875 15.25 
C 33.296875 7.8125 27.90625 4.796875 22.203125 4.796875 
C 15.59375 4.796875 15 7 15 11.125 
L 15 43 
L 7.40625 43 
L 7.40625 10.625 
C 7.40625 2.796875 10.09375 -1 17 -1 
C 20.40625 -1 28.09375 -0.203125 33.5 4.796875 
L 33.5 -0.203125 
L 40.90625 -0.203125 
z
" id="CMSS17-117"/>
     <path d="M 16.703125 37.1875 
L 29.703125 37.1875 
L 29.703125 43 
L 16.703125 43 
L 16.703125 55 
L 9.59375 55 
L 9.59375 43 
L 1.703125 43 
L 1.703125 37.1875 
L 9.40625 37.1875 
L 9.40625 11.734375 
C 9.40625 6 10.703125 -1 17.296875 -1 
C 22.296875 -1 26.90625 0.390625 31.296875 2.6875 
L 29.703125 8.609375 
C 27.296875 6.5 24.40625 5.296875 21.296875 5.296875 
C 16.90625 5.296875 16.703125 10.921875 16.703125 13.4375 
z
" id="CMSS17-116"/>
     <path d="M 15.296875 66 
L 6.90625 66 
L 6.90625 57.59375 
L 15.296875 57.59375 
z
M 14.796875 43 
L 7.40625 43 
L 7.40625 0 
L 14.796875 0 
z
" id="CMSS17-105"/>
     <path d="M 40.90625 29.34375 
C 40.90625 35.671875 39.40625 44 28.09375 44 
C 21.703125 44 17.5 40.6875 14.703125 37.28125 
L 14.703125 43.484375 
L 7.40625 43.484375 
L 7.40625 0 
L 15 0 
L 15 24.3125 
C 15 30.65625 17.40625 37.890625 24.203125 37.890625 
C 33 37.890625 33.296875 31.953125 33.296875 28.53125 
L 33.296875 0 
L 40.90625 0 
z
" id="CMSS17-110"/>
     <path d="M 25.296875 47.625 
C 25.796875 48.828125 26.203125 49.71875 26.203125 50.71875 
C 26.203125 53.59375 23.59375 56 20.5 56 
C 17.703125 56 15.90625 54.09375 15.203125 51.515625 
L 3.296875 8.078125 
C 3.296875 7.890625 2.90625 6.796875 2.90625 6.6875 
C 2.90625 5.59375 5.5 4.890625 6.296875 4.890625 
C 6.90625 4.890625 7 5.1875 7.59375 6.484375 
z
" id="CMSY10-48"/>
     <path d="M 64.296875 32 
C 65.796875 32 67.296875 32 67.296875 33.6875 
C 67.296875 35.5 65.59375 35.5 63.90625 35.5 
L 8 35.5 
C 6.296875 35.5 4.59375 35.5 4.59375 33.6875 
C 4.59375 32 6.09375 32 7.59375 32 
z
M 63.90625 14.484375 
C 65.59375 14.484375 67.296875 14.484375 67.296875 16.296875 
C 67.296875 18 65.796875 18 64.296875 18 
L 7.59375 18 
C 6.09375 18 4.59375 18 4.59375 16.296875 
C 4.59375 14.484375 6.296875 14.484375 8 14.484375 
z
" id="CMR17-61"/>
     <path d="M 65.90625 23 
C 67.59375 23 69.40625 23 69.40625 25 
C 69.40625 27 67.59375 27 65.90625 27 
L 11.796875 27 
C 10.09375 27 8.296875 27 8.296875 25 
C 8.296875 23 10.09375 23 11.796875 23 
z
" id="CMSY10-0"/>
     <path d="M 37.703125 23 
L 64.203125 23 
C 65.59375 23 67.296875 23 67.296875 24.6875 
C 67.296875 26.5 65.703125 26.5 64.203125 26.5 
L 37.703125 26.5 
L 37.703125 52.890625 
C 37.703125 54.296875 37.703125 56 36 56 
C 34.203125 56 34.203125 54.390625 34.203125 52.890625 
L 34.203125 26.5 
L 7.703125 26.5 
C 6.296875 26.5 4.59375 26.5 4.59375 24.796875 
C 4.59375 23 6.203125 23 7.703125 23 
L 34.203125 23 
L 34.203125 -3.03125 
C 34.203125 -4.40625 34.203125 -6.109375 35.90625 -6.109375 
C 37.703125 -6.109375 37.703125 -4.515625 37.703125 -3.03125 
z
" id="CMR17-43"/>
     <path d="M 19.5 -0.40625 
C 19.5 5.390625 17.59375 9.6875 13.5 9.6875 
C 10.296875 9.6875 8.703125 7.09375 8.703125 4.890625 
C 8.703125 2.6875 10.203125 0 13.59375 0 
C 14.90625 0 16 0.390625 16.90625 1.296875 
C 17.09375 1.5 17.203125 1.5 17.296875 1.5 
C 17.5 1.5 17.5 0.09375 17.5 -0.40625 
C 17.5 -3.640625 16.90625 -10.03125 11.09375 -16.421875 
C 10 -17.609375 10 -17.8125 10 -18 
C 10 -18.5 10.5 -19 11 -19 
C 11.796875 -19 19.5 -11.703125 19.5 -0.40625 
z
" id="CMMI12-59"/>
     <path d="M 30.59375 -24.40625 
C 30.59375 -24.3125 30.59375 -24.109375 30.296875 -23.8125 
C 25.703125 -19.109375 13.40625 -6.296875 13.40625 24.9375 
C 13.40625 56.171875 25.5 68.875 30.40625 73.890625 
C 30.40625 73.984375 30.59375 74.1875 30.59375 74.484375 
C 30.59375 74.796875 30.296875 75 29.90625 75 
C 28.796875 75 20.296875 67.578125 15.40625 56.5625 
C 10.40625 45.453125 9 34.65625 9 25.046875 
C 9 17.828125 9.703125 5.625 15.703125 -7.296875 
C 20.5 -17.703125 28.703125 -25 29.90625 -25 
C 30.40625 -25 30.59375 -24.8125 30.59375 -24.40625 
z
" id="CMR17-40"/>
     <path d="M 26.296875 24.9375 
C 26.296875 32.140625 25.59375 44.359375 19.59375 57.265625 
C 14.796875 67.6875 6.59375 75 5.40625 75 
C 5.09375 75 4.703125 74.890625 4.703125 74.390625 
C 4.703125 74.1875 4.796875 74.09375 4.90625 73.890625 
C 9.703125 68.875 21.90625 56.171875 21.90625 25.046875 
C 21.90625 -6.1875 9.796875 -18.90625 4.90625 -23.90625 
C 4.796875 -24.109375 4.703125 -24.203125 4.703125 -24.40625 
C 4.703125 -24.90625 5.09375 -25 5.40625 -25 
C 6.5 -25 15 -17.609375 19.90625 -6.59375 
C 24.90625 4.515625 26.296875 15.328125 26.296875 24.9375 
z
" id="CMR17-41"/>
     <path d="M 28.09375 66.484375 
C 28.203125 66.890625 28.40625 67.484375 28.40625 67.984375 
C 28.40625 69 27.40625 69 27.203125 69 
C 27.09375 69 22.203125 68.59375 21.703125 68.484375 
C 20 68.390625 18.5 68.1875 16.703125 68.09375 
C 14.203125 67.890625 13.5 67.796875 13.5 65.984375 
C 13.5 64.984375 14.296875 64.984375 15.703125 64.984375 
C 20.59375 64.984375 20.703125 64.109375 20.703125 63.125 
C 20.703125 62.53125 20.5 61.734375 20.40625 61.4375 
L 5.90625 3.890625 
C 5.5 2.390625 5.5 2.1875 5.5 1.59375 
C 5.5 -0.609375 7.203125 -1 8.203125 -1 
C 9.90625 -1 11.203125 0.296875 11.703125 1.390625 
L 16.203125 19.453125 
C 16.703125 21.640625 17.296875 23.734375 17.796875 25.9375 
C 18.90625 30.125 18.90625 30.21875 20.796875 33.109375 
C 22.703125 36.015625 27.203125 41.984375 34.90625 41.984375 
C 38.90625 41.984375 40.296875 39 40.296875 35.015625 
C 40.296875 29.421875 36.40625 18.546875 34.203125 12.5625 
C 33.296875 10.171875 32.796875 8.875 32.796875 7.078125 
C 32.796875 2.59375 35.90625 -1 40.703125 -1 
C 50 -1 53.5 13.65625 53.5 14.265625 
C 53.5 14.765625 53.09375 15.15625 52.5 15.15625 
C 51.59375 15.15625 51.5 14.859375 51 13.15625 
C 48.703125 5.1875 45 1 41 1 
C 40 1 38.40625 1.09375 38.40625 4.28125 
C 38.40625 6.875 39.59375 10.078125 40 11.171875 
C 41.796875 15.953125 46.296875 27.734375 46.296875 33.515625 
C 46.296875 39.5 42.796875 44 35.203125 44 
C 29.5 44 24.5 41.296875 20.40625 36.109375 
z
" id="CMMI12-104"/>
     <path d="M 11.40625 58.59375 
C 12.40625 58.1875 16.5 56.890625 20.703125 56.890625 
C 30 56.890625 35.09375 61.890625 38 64.6875 
C 38 65.484375 38 66 37.40625 66 
C 37.296875 66 37.09375 66 36.296875 65.59375 
C 32.796875 64.09375 28.703125 63 23.703125 63 
C 20.703125 63 16.203125 63.359375 11.296875 65.484375 
C 10.203125 66 10 66 9.90625 66 
C 9.40625 66 9.296875 65.890625 9.296875 63.90625 
L 9.296875 34.859375 
C 9.296875 33.015625 9.296875 32.5 10.296875 32.5 
C 10.796875 32.5 11 32.703125 11.5 33.421875 
C 14.703125 38.046875 19.09375 40 24.09375 40 
C 27.59375 40 35.09375 37.734375 35.09375 20.203125 
C 35.09375 16.984375 35.09375 11.1875 32.09375 6.59375 
C 29.59375 2.484375 25.703125 0.390625 21.40625 0.390625 
C 14.796875 0.390625 8.09375 4.984375 6.296875 12.6875 
C 6.703125 12.59375 7.5 12.390625 7.90625 12.390625 
C 9.203125 12.390625 11.703125 13.09375 11.703125 16.1875 
C 11.703125 18.890625 9.796875 20 7.90625 20 
C 5.59375 20 4.09375 18.59375 4.09375 15.796875 
C 4.09375 7.09375 11 -2 21.59375 -2 
C 31.90625 -2 41.703125 6.890625 41.703125 19.796875 
C 41.703125 32.09375 33.90625 41.59375 24.203125 41.59375 
C 19.09375 41.59375 14.796875 39.6875 11.40625 36 
z
" id="CMR17-53"/>
    </defs>
    <g transform="translate(72.872677 35.472)scale(0.16 -0.16)">
     <use transform="scale(0.996264)" xlink:href="#CMSS17-83"/>
     <use transform="translate(52.048516 0)scale(0.996264)" xlink:href="#CMSS17-111"/>
     <use transform="translate(98.89214 0)scale(0.996264)" xlink:href="#CMSS17-108"/>
     <use transform="translate(121.072863 0)scale(0.996264)" xlink:href="#CMSS17-117"/>
     <use transform="translate(169.277806 0)scale(0.996264)" xlink:href="#CMSS17-116"/>
     <use transform="translate(203.109373 0)scale(0.996264)" xlink:href="#CMSS17-105"/>
     <use transform="translate(225.290096 0)scale(0.996264)" xlink:href="#CMSS17-111"/>
     <use transform="translate(272.133719 0)scale(0.996264)" xlink:href="#CMSS17-110"/>
     <use transform="translate(351.567775 0)scale(0.996264)" xlink:href="#CMSS17-116"/>
     <use transform="translate(385.399342 0)scale(0.996264)" xlink:href="#CMSS17-111"/>
     <use transform="translate(463.472078 0)scale(0.996264)" xlink:href="#CMMI12-121"/>
     <use transform="translate(514.610859 36.153639)scale(0.697382)" xlink:href="#CMSY10-48"/>
     <use transform="translate(561.96096 0)scale(0.996264)" xlink:href="#CMR17-61"/>
     <use transform="translate(661.349757 0)scale(0.996264)" xlink:href="#CMSY10-0"/>
     <use transform="translate(738.837225 0)scale(0.996264)" xlink:href="#CMR17-49"/>
     <use transform="translate(784.527702 0)scale(0.996264)" xlink:href="#CMR17-48"/>
     <use transform="translate(830.218179 0)scale(0.996264)" xlink:href="#CMMI12-121"/>
     <use transform="translate(903.496167 0)scale(0.996264)" xlink:href="#CMR17-43"/>
     <use transform="translate(997.350162 0)scale(0.996264)" xlink:href="#CMMI12-116"/>
     <use transform="translate(1054.715699 0)scale(0.996264)" xlink:href="#CMR17-43"/>
     <use transform="translate(1148.569695 0)scale(0.996264)" xlink:href="#CMR17-49"/>
     <use transform="translate(1194.260172 0)scale(0.996264)" xlink:href="#CMMI12-59"/>
     <use transform="translate(1237.961754 0)scale(0.996264)" xlink:href="#CMMI12-121"/>
     <use transform="translate(1289.100535 0)scale(0.996264)" xlink:href="#CMR17-40"/>
     <use transform="translate(1324.381303 0)scale(0.996264)" xlink:href="#CMR17-48"/>
     <use transform="translate(1370.07178 0)scale(0.996264)" xlink:href="#CMR17-41"/>
     <use transform="translate(1433.026556 0)scale(0.996264)" xlink:href="#CMR17-61"/>
     <use transform="translate(1532.415353 0)scale(0.996264)" xlink:href="#CMR17-49"/>
     <use transform="translate(1578.105831 0)scale(0.996264)" xlink:href="#CMMI12-59"/>
     <use transform="translate(1621.807413 0)scale(0.996264)" xlink:href="#CMMI12-104"/>
     <use transform="translate(1705.636046 0)scale(0.996264)" xlink:href="#CMR17-61"/>
     <use transform="translate(1805.024843 0)scale(0.996264)" xlink:href="#CMR17-48"/>
     <use transform="translate(1850.71532 0)scale(0.996264)" xlink:href="#CMMI12-58"/>
     <use transform="translate(1877.812497 0)scale(0.996264)" xlink:href="#CMR17-48"/>
     <use transform="translate(1923.502974 0)scale(0.996264)" xlink:href="#CMR17-53"/>
    </g>
   </g>
   <g id="legend_1">
    <g id="patch_7">
     <path d="M 186.482416 91.696057 
L 285.837584 91.696057 
Q 288.637584 91.696057 288.637584 88.896057 
L 288.637584 51.272 
Q 288.637584 48.472 285.837584 48.472 
L 186.482416 48.472 
Q 183.682416 48.472 183.682416 51.272 
L 183.682416 88.896057 
Q 183.682416 91.696057 186.482416 91.696057 
z
" style="fill:#ffffff;opacity:0.8;stroke:#cccccc;stroke-linejoin:miter;"/>
    </g>
    <g id="line2d_15">
     <path d="M 189.282416 58.972 
L 217.282416 58.972 
" style="fill:none;stroke:#ff0000;stroke-linecap:square;stroke-width:1.5;"/>
    </g>
    <g id="line2d_16">
     <g>
      <use style="fill:#ff0000;stroke:#ff0000;" x="203.282416" xlink:href="#mf918adeaf6" y="58.972"/>
     </g>
    </g>
    <g id="text_16">
     <!-- numerical -->
     <defs>
      <path d="M 67 29.34375 
C 67 36.078125 65.296875 44 54.09375 44 
C 46.59375 44 42.09375 39.296875 40.09375 36.375 
C 38.296875 41.6875 34.09375 44 28.09375 44 
C 21.296875 44 17 40.09375 14.703125 37.28125 
L 14.703125 43.484375 
L 7.40625 43.484375 
L 7.40625 0 
L 15 0 
L 15 24.3125 
C 15 30.25 17.203125 37.890625 24.296875 37.890625 
C 33.40625 37.890625 33.40625 31.453125 33.40625 28.53125 
L 33.40625 0 
L 41 0 
L 41 24.3125 
C 41 30.25 43.203125 37.890625 50.296875 37.890625 
C 59.40625 37.890625 59.40625 31.453125 59.40625 28.53125 
L 59.40625 0 
L 67 0 
z
" id="CMSS17-109"/>
      <path d="M 39.09375 21.484375 
C 39.09375 24.796875 38.90625 31.265625 35.703125 36.671875 
C 32.203125 42.390625 26.5 44 22.203125 44 
C 11.796875 44 3 34.125 3 21.296875 
C 3 9.046875 12.09375 -1 23.59375 -1 
C 28.09375 -1 33.59375 0.296875 38.59375 3.890625 
C 38.59375 4.296875 38.40625 6.46875 38.296875 6.578125 
C 38.296875 6.765625 38 9.828125 38 10.234375 
C 33.203125 6.375 27.703125 5.09375 23.703125 5.09375 
C 17.296875 5.09375 10.40625 10.421875 10.09375 21.484375 
z
M 10.90625 27 
C 12.203125 32.59375 16.59375 37.890625 22.203125 37.890625 
C 23.703125 37.890625 30.703125 37.6875 32.5 27 
z
" id="CMSS17-101"/>
      <path d="M 14.90625 21.390625 
C 14.90625 30.84375 21.796875 37.171875 30.59375 37.375 
L 30.59375 44 
C 24.203125 43.890625 18.203125 40.6875 14.59375 35.46875 
L 14.59375 43.484375 
L 7.5 43.484375 
L 7.5 0 
L 14.90625 0 
z
" id="CMSS17-114"/>
      <path d="M 38.5 39.6875 
C 38.5 40.390625 33.90625 42.390625 32.703125 42.796875 
C 29.40625 44 25.203125 44 24.09375 44 
C 11.09375 44 3.296875 32.6875 3.296875 21.296875 
C 3.296875 9.296875 12 -1 23.703125 -1 
C 30.40625 -1 35.203125 1.1875 39.09375 3.796875 
L 38.5 10.390625 
C 34.203125 7.09375 29.203125 5.296875 23.796875 5.296875 
C 16 5.296875 10.90625 12.09375 10.90625 21.390625 
C 10.90625 28.59375 14.203125 37.6875 24.203125 37.6875 
C 29.703125 37.6875 32.796875 36.59375 37.40625 33.484375 
z
" id="CMSS17-99"/>
      <path d="M 37.59375 27.953125 
C 37.59375 37.484375 30.90625 44 21.90625 44 
C 17.5 44 12.703125 43.1875 7.203125 39.984375 
L 7.796875 33.328125 
C 10.296875 35.15625 14.59375 38.09375 21.796875 38.09375 
C 26.90625 38.09375 30 34.140625 30 27.84375 
L 30 24 
C 14 23.5 4 18.890625 4 11.109375 
C 4 7.0625 6.5 -1 14.796875 -1 
C 16.296875 -1 24.40625 -0.8125 30.203125 3.5 
L 30.203125 -0.203125 
L 37.59375 -0.203125 
z
M 30 12.875 
C 30 11.109375 30 8.734375 27 6.96875 
C 24.40625 5.296875 21.09375 5.09375 19.703125 5.09375 
C 14.703125 5.09375 11.296875 7.859375 11.296875 11.296875 
C 11.296875 18.203125 26.90625 18.890625 30 19 
z
" id="CMSS17-97"/>
     </defs>
     <g transform="translate(228.482416 63.872)scale(0.14 -0.14)">
      <use transform="scale(0.996264)" xlink:href="#CMSS17-110"/>
      <use transform="translate(48.204943 0)scale(0.996264)" xlink:href="#CMSS17-117"/>
      <use transform="translate(96.409886 0)scale(0.996264)" xlink:href="#CMSS17-109"/>
      <use transform="translate(170.639141 0)scale(0.996264)" xlink:href="#CMSS17-101"/>
      <use transform="translate(212.277963 0)scale(0.996264)" xlink:href="#CMSS17-114"/>
      <use transform="translate(244.187735 0)scale(0.996264)" xlink:href="#CMSS17-105"/>
      <use transform="translate(266.368458 0)scale(0.996264)" xlink:href="#CMSS17-99"/>
      <use transform="translate(308.00728 0)scale(0.996264)" xlink:href="#CMSS17-97"/>
      <use transform="translate(352.929201 0)scale(0.996264)" xlink:href="#CMSS17-108"/>
     </g>
    </g>
    <g id="line2d_17">
     <path d="M 189.282416 78.484028 
L 217.282416 78.484028 
" style="fill:none;stroke:#0000ff;stroke-linecap:square;stroke-width:1.5;"/>
    </g>
    <g id="line2d_18"/>
    <g id="text_17">
     <!-- exact -->
     <defs>
      <path d="M 24.796875 22.1875 
L 41.5 43 
L 32.796875 43 
L 21.296875 27.890625 
L 9.40625 43 
L 0.5 43 
L 17.796875 22.1875 
L 0 0 
L 8.796875 0 
L 21.296875 17.59375 
L 34.296875 0 
L 43.09375 0 
z
" id="CMSS17-120"/>
     </defs>
     <g transform="translate(228.482416 83.384028)scale(0.14 -0.14)">
      <use transform="scale(0.996264)" xlink:href="#CMSS17-101"/>
      <use transform="translate(41.638822 0)scale(0.996264)" xlink:href="#CMSS17-120"/>
      <use transform="translate(84.638964 0)scale(0.996264)" xlink:href="#CMSS17-97"/>
      <use transform="translate(129.560884 0)scale(0.996264)" xlink:href="#CMSS17-99"/>
      <use transform="translate(171.199706 0)scale(0.996264)" xlink:href="#CMSS17-116"/>
     </g>
    </g>
   </g>
  </g>
 </g>
 <defs>
  <clipPath id="pbad580e36c">
   <rect height="266.112" width="357.12" x="57.6" y="41.472"/>
  </clipPath>
 </defs>
</svg>
