<?xml version="1.0" encoding="utf-8" standalone="no"?>
<!DOCTYPE svg PUBLIC "-//W3C//DTD SVG 1.1//EN"
  "http://www.w3.org/Graphics/SVG/1.1/DTD/svg11.dtd">
<svg xmlns:xlink="http://www.w3.org/1999/xlink" width="417.683212pt" height="339.606085pt" viewBox="0 0 417.683212 339.606085" xmlns="http://www.w3.org/2000/svg" version="1.1">
 <metadata>
  <rdf:RDF xmlns:dc="http://purl.org/dc/elements/1.1/" xmlns:cc="http://creativecommons.org/ns#" xmlns:rdf="http://www.w3.org/1999/02/22-rdf-syntax-ns#">
   <cc:Work>
    <dc:type rdf:resource="http://purl.org/dc/dcmitype/StillImage"/>
    <dc:date>2024-01-16T11:02:46.305375</dc:date>
    <dc:format>image/svg+xml</dc:format>
    <dc:creator>
     <cc:Agent>
      <dc:title>Matplotlib v3.7.2, https://matplotlib.org/</dc:title>
     </cc:Agent>
    </dc:creator>
   </cc:Work>
  </rdf:RDF>
 </metadata>
 <defs>
  <style type="text/css">*{stroke-linejoin: round; stroke-linecap: butt}</style>
 </defs>
 <g id="figure_1">
  <g id="patch_1">
   <path d="M 0 339.606085 
L 417.683212 339.606085 
L 417.683212 0 
L 0 0 
z
" style="fill: #ffffff"/>
  </g>
  <g id="axes_1">
   <g id="patch_2">
    <path d="M 53.363212 291.29555 
L 410.483212 291.29555 
L 410.483212 25.18355 
L 53.363212 25.18355 
z
" style="fill: #ffffff"/>
   </g>
   <g id="matplotlib.axis_1">
    <g id="xtick_1">
     <g id="line2d_1">
      <defs>
       <path id="m55d846da7d" d="M 0 0 
L 0 3.5 
" style="stroke: #000000; stroke-width: 0.8"/>
      </defs>
      <g>
       <use xlink:href="#m55d846da7d" x="69.59594" y="291.29555" style="stroke: #000000; stroke-width: 0.8"/>
      </g>
     </g>
     <g id="text_1">
      <!-- $\mathdefault{0.0}$ -->
      <g transform="translate(60.870649 307.981426) scale(0.14 -0.14)">
       <defs>
        <path id="CMR17-30" d="M 2688 2038 
C 2688 2430 2682 3099 2413 3613 
C 2176 4063 1798 4224 1466 4224 
C 1158 4224 768 4082 525 3620 
C 269 3137 243 2539 243 2038 
C 243 1671 250 1112 448 623 
C 723 -39 1216 -128 1466 -128 
C 1760 -128 2208 -7 2470 604 
C 2662 1048 2688 1568 2688 2038 
z
M 1466 -26 
C 1056 -26 813 328 723 816 
C 653 1196 653 1749 653 2109 
C 653 2604 653 3015 736 3407 
C 858 3954 1216 4121 1466 4121 
C 1728 4121 2067 3947 2189 3420 
C 2272 3054 2278 2623 2278 2109 
C 2278 1691 2278 1176 2202 797 
C 2067 96 1690 -26 1466 -26 
z
" transform="scale(0.015625)"/>
        <path id="CMMI12-3a" d="M 1178 307 
C 1178 492 1024 620 870 620 
C 685 620 557 467 557 313 
C 557 128 710 0 864 0 
C 1050 0 1178 153 1178 307 
z
" transform="scale(0.015625)"/>
       </defs>
       <use xlink:href="#CMR17-30" transform="scale(0.996264)"/>
       <use xlink:href="#CMMI12-3a" transform="translate(45.690477 0) scale(0.996264)"/>
       <use xlink:href="#CMR17-30" transform="translate(72.787654 0) scale(0.996264)"/>
      </g>
     </g>
    </g>
    <g id="xtick_2">
     <g id="line2d_2">
      <g>
       <use xlink:href="#m55d846da7d" x="134.526849" y="291.29555" style="stroke: #000000; stroke-width: 0.8"/>
      </g>
     </g>
     <g id="text_2">
      <!-- $\mathdefault{0.2}$ -->
      <g transform="translate(125.801558 307.981426) scale(0.14 -0.14)">
       <defs>
        <path id="CMR17-32" d="M 2669 990 
L 2554 990 
C 2490 537 2438 460 2413 422 
C 2381 371 1920 371 1830 371 
L 602 371 
C 832 620 1280 1073 1824 1596 
C 2214 1966 2669 2400 2669 3033 
C 2669 3788 2067 4224 1395 4224 
C 691 4224 262 3603 262 3027 
C 262 2777 448 2745 525 2745 
C 589 2745 781 2783 781 3007 
C 781 3206 614 3264 525 3264 
C 486 3264 448 3257 422 3244 
C 544 3788 915 4057 1306 4057 
C 1862 4057 2227 3616 2227 3033 
C 2227 2477 1901 1998 1536 1583 
L 262 147 
L 262 0 
L 2515 0 
L 2669 990 
z
" transform="scale(0.015625)"/>
       </defs>
       <use xlink:href="#CMR17-30" transform="scale(0.996264)"/>
       <use xlink:href="#CMMI12-3a" transform="translate(45.690477 0) scale(0.996264)"/>
       <use xlink:href="#CMR17-32" transform="translate(72.787654 0) scale(0.996264)"/>
      </g>
     </g>
    </g>
    <g id="xtick_3">
     <g id="line2d_3">
      <g>
       <use xlink:href="#m55d846da7d" x="199.457758" y="291.29555" style="stroke: #000000; stroke-width: 0.8"/>
      </g>
     </g>
     <g id="text_3">
      <!-- $\mathdefault{0.4}$ -->
      <g transform="translate(190.732467 307.981426) scale(0.14 -0.14)">
       <defs>
        <path id="CMR17-34" d="M 2150 4147 
C 2150 4281 2144 4288 2029 4288 
L 128 1254 
L 128 1088 
L 1779 1088 
L 1779 460 
C 1779 230 1766 166 1318 166 
L 1197 166 
L 1197 0 
C 1402 12 1747 12 1965 12 
C 2182 12 2528 12 2733 0 
L 2733 166 
L 2611 166 
C 2163 166 2150 230 2150 460 
L 2150 1088 
L 2803 1088 
L 2803 1254 
L 2150 1254 
L 2150 4147 
z
M 1798 3723 
L 1798 1254 
L 256 1254 
L 1798 3723 
z
" transform="scale(0.015625)"/>
       </defs>
       <use xlink:href="#CMR17-30" transform="scale(0.996264)"/>
       <use xlink:href="#CMMI12-3a" transform="translate(45.690477 0) scale(0.996264)"/>
       <use xlink:href="#CMR17-34" transform="translate(72.787654 0) scale(0.996264)"/>
      </g>
     </g>
    </g>
    <g id="xtick_4">
     <g id="line2d_4">
      <g>
       <use xlink:href="#m55d846da7d" x="264.388667" y="291.29555" style="stroke: #000000; stroke-width: 0.8"/>
      </g>
     </g>
     <g id="text_4">
      <!-- $\mathdefault{0.6}$ -->
      <g transform="translate(255.663376 307.981426) scale(0.14 -0.14)">
       <defs>
        <path id="CMR17-36" d="M 678 2198 
C 678 3712 1395 4076 1811 4076 
C 1946 4076 2272 4049 2400 3782 
C 2298 3782 2106 3782 2106 3558 
C 2106 3385 2246 3328 2336 3328 
C 2394 3328 2566 3353 2566 3571 
C 2566 3987 2246 4224 1805 4224 
C 1043 4224 243 3411 243 2011 
C 243 257 966 -128 1478 -128 
C 2099 -128 2688 431 2688 1295 
C 2688 2101 2170 2688 1517 2688 
C 1126 2688 838 2430 678 1979 
L 678 2198 
z
M 1478 25 
C 691 25 691 1212 691 1450 
C 691 1914 909 2585 1504 2585 
C 1613 2585 1926 2585 2138 2140 
C 2253 1889 2253 1624 2253 1302 
C 2253 954 2253 696 2118 438 
C 1978 173 1773 25 1478 25 
z
" transform="scale(0.015625)"/>
       </defs>
       <use xlink:href="#CMR17-30" transform="scale(0.996264)"/>
       <use xlink:href="#CMMI12-3a" transform="translate(45.690477 0) scale(0.996264)"/>
       <use xlink:href="#CMR17-36" transform="translate(72.787654 0) scale(0.996264)"/>
      </g>
     </g>
    </g>
    <g id="xtick_5">
     <g id="line2d_5">
      <g>
       <use xlink:href="#m55d846da7d" x="329.319576" y="291.29555" style="stroke: #000000; stroke-width: 0.8"/>
      </g>
     </g>
     <g id="text_5">
      <!-- $\mathdefault{0.8}$ -->
      <g transform="translate(320.594285 307.981426) scale(0.14 -0.14)">
       <defs>
        <path id="CMR17-38" d="M 1741 2289 
C 2144 2494 2554 2803 2554 3298 
C 2554 3884 1990 4224 1472 4224 
C 890 4224 378 3800 378 3215 
C 378 3054 416 2777 666 2533 
C 730 2469 998 2276 1171 2154 
C 883 2006 211 1652 211 945 
C 211 282 838 -128 1459 -128 
C 2144 -128 2720 366 2720 1022 
C 2720 1607 2330 1877 2074 2051 
L 1741 2289 
z
M 902 2855 
C 851 2887 595 3086 595 3388 
C 595 3781 998 4076 1459 4076 
C 1965 4076 2336 3716 2336 3298 
C 2336 2700 1670 2359 1638 2359 
C 1632 2359 1626 2359 1574 2398 
L 902 2855 
z
M 2080 1536 
C 2176 1466 2483 1253 2483 861 
C 2483 385 2010 25 1472 25 
C 890 25 448 443 448 951 
C 448 1459 838 1884 1280 2083 
L 2080 1536 
z
" transform="scale(0.015625)"/>
       </defs>
       <use xlink:href="#CMR17-30" transform="scale(0.996264)"/>
       <use xlink:href="#CMMI12-3a" transform="translate(45.690477 0) scale(0.996264)"/>
       <use xlink:href="#CMR17-38" transform="translate(72.787654 0) scale(0.996264)"/>
      </g>
     </g>
    </g>
    <g id="xtick_6">
     <g id="line2d_6">
      <g>
       <use xlink:href="#m55d846da7d" x="394.250485" y="291.29555" style="stroke: #000000; stroke-width: 0.8"/>
      </g>
     </g>
     <g id="text_6">
      <!-- $\mathdefault{1.0}$ -->
      <g transform="translate(385.525194 307.981426) scale(0.14 -0.14)">
       <defs>
        <path id="CMR17-31" d="M 1702 4083 
C 1702 4217 1696 4224 1606 4224 
C 1357 3927 979 3833 621 3820 
C 602 3820 570 3820 563 3808 
C 557 3795 557 3782 557 3648 
C 755 3648 1088 3686 1344 3839 
L 1344 467 
C 1344 243 1331 166 781 166 
L 589 166 
L 589 0 
C 896 6 1216 12 1523 12 
C 1830 12 2150 6 2458 0 
L 2458 166 
L 2266 166 
C 1715 166 1702 236 1702 467 
L 1702 4083 
z
" transform="scale(0.015625)"/>
       </defs>
       <use xlink:href="#CMR17-31" transform="scale(0.996264)"/>
       <use xlink:href="#CMMI12-3a" transform="translate(45.690477 0) scale(0.996264)"/>
       <use xlink:href="#CMR17-30" transform="translate(72.787654 0) scale(0.996264)"/>
      </g>
     </g>
    </g>
    <g id="text_7">
     <!-- $t$ -->
     <g transform="translate(228.400579 328.530451) scale(0.2 -0.2)">
      <defs>
       <path id="CMMI12-74" d="M 1286 2566 
L 1875 2566 
C 1997 2566 2061 2566 2061 2681 
C 2061 2752 2022 2752 1894 2752 
L 1331 2752 
L 1568 3664 
C 1594 3752 1594 3764 1594 3808 
C 1594 3910 1510 3968 1427 3968 
C 1376 3968 1229 3948 1178 3746 
L 928 2752 
L 326 2752 
C 198 2752 141 2752 141 2630 
C 141 2566 186 2566 307 2566 
L 877 2566 
L 454 881 
C 403 657 384 593 384 510 
C 384 210 595 -64 954 -64 
C 1600 -64 1946 868 1946 913 
C 1946 951 1920 970 1882 970 
C 1869 970 1843 970 1830 944 
C 1824 938 1818 932 1773 830 
C 1638 510 1344 64 973 64 
C 781 64 768 223 768 364 
C 768 370 768 491 787 568 
L 1286 2566 
z
" transform="scale(0.015625)"/>
      </defs>
      <use xlink:href="#CMMI12-74" transform="scale(0.996264)"/>
     </g>
    </g>
   </g>
   <g id="matplotlib.axis_2">
    <g id="ytick_1">
     <g id="line2d_7">
      <defs>
       <path id="m164884a33b" d="M 0 0 
L -3.5 0 
" style="stroke: #000000; stroke-width: 0.8"/>
      </defs>
      <g>
       <use xlink:href="#m164884a33b" x="53.363212" y="291.29555" style="stroke: #000000; stroke-width: 0.8"/>
      </g>
     </g>
     <g id="text_8">
      <!-- $\mathdefault{0.0}$ -->
      <g transform="translate(28.91263 296.138488) scale(0.14 -0.14)">
       <use xlink:href="#CMR17-30" transform="scale(0.996264)"/>
       <use xlink:href="#CMMI12-3a" transform="translate(45.690477 0) scale(0.996264)"/>
       <use xlink:href="#CMR17-30" transform="translate(72.787654 0) scale(0.996264)"/>
      </g>
     </g>
    </g>
    <g id="ytick_2">
     <g id="line2d_8">
      <g>
       <use xlink:href="#m164884a33b" x="53.363212" y="255.81395" style="stroke: #000000; stroke-width: 0.8"/>
      </g>
     </g>
     <g id="text_9">
      <!-- $\mathdefault{0.2}$ -->
      <g transform="translate(28.91263 260.656888) scale(0.14 -0.14)">
       <use xlink:href="#CMR17-30" transform="scale(0.996264)"/>
       <use xlink:href="#CMMI12-3a" transform="translate(45.690477 0) scale(0.996264)"/>
       <use xlink:href="#CMR17-32" transform="translate(72.787654 0) scale(0.996264)"/>
      </g>
     </g>
    </g>
    <g id="ytick_3">
     <g id="line2d_9">
      <g>
       <use xlink:href="#m164884a33b" x="53.363212" y="220.33235" style="stroke: #000000; stroke-width: 0.8"/>
      </g>
     </g>
     <g id="text_10">
      <!-- $\mathdefault{0.4}$ -->
      <g transform="translate(28.91263 225.175288) scale(0.14 -0.14)">
       <use xlink:href="#CMR17-30" transform="scale(0.996264)"/>
       <use xlink:href="#CMMI12-3a" transform="translate(45.690477 0) scale(0.996264)"/>
       <use xlink:href="#CMR17-34" transform="translate(72.787654 0) scale(0.996264)"/>
      </g>
     </g>
    </g>
    <g id="ytick_4">
     <g id="line2d_10">
      <g>
       <use xlink:href="#m164884a33b" x="53.363212" y="184.85075" style="stroke: #000000; stroke-width: 0.8"/>
      </g>
     </g>
     <g id="text_11">
      <!-- $\mathdefault{0.6}$ -->
      <g transform="translate(28.91263 189.693688) scale(0.14 -0.14)">
       <use xlink:href="#CMR17-30" transform="scale(0.996264)"/>
       <use xlink:href="#CMMI12-3a" transform="translate(45.690477 0) scale(0.996264)"/>
       <use xlink:href="#CMR17-36" transform="translate(72.787654 0) scale(0.996264)"/>
      </g>
     </g>
    </g>
    <g id="ytick_5">
     <g id="line2d_11">
      <g>
       <use xlink:href="#m164884a33b" x="53.363212" y="149.36915" style="stroke: #000000; stroke-width: 0.8"/>
      </g>
     </g>
     <g id="text_12">
      <!-- $\mathdefault{0.8}$ -->
      <g transform="translate(28.91263 154.212088) scale(0.14 -0.14)">
       <use xlink:href="#CMR17-30" transform="scale(0.996264)"/>
       <use xlink:href="#CMMI12-3a" transform="translate(45.690477 0) scale(0.996264)"/>
       <use xlink:href="#CMR17-38" transform="translate(72.787654 0) scale(0.996264)"/>
      </g>
     </g>
    </g>
    <g id="ytick_6">
     <g id="line2d_12">
      <g>
       <use xlink:href="#m164884a33b" x="53.363212" y="113.88755" style="stroke: #000000; stroke-width: 0.8"/>
      </g>
     </g>
     <g id="text_13">
      <!-- $\mathdefault{1.0}$ -->
      <g transform="translate(28.91263 118.730488) scale(0.14 -0.14)">
       <use xlink:href="#CMR17-31" transform="scale(0.996264)"/>
       <use xlink:href="#CMMI12-3a" transform="translate(45.690477 0) scale(0.996264)"/>
       <use xlink:href="#CMR17-30" transform="translate(72.787654 0) scale(0.996264)"/>
      </g>
     </g>
    </g>
    <g id="ytick_7">
     <g id="line2d_13">
      <g>
       <use xlink:href="#m164884a33b" x="53.363212" y="78.40595" style="stroke: #000000; stroke-width: 0.8"/>
      </g>
     </g>
     <g id="text_14">
      <!-- $\mathdefault{1.2}$ -->
      <g transform="translate(28.91263 83.248888) scale(0.14 -0.14)">
       <use xlink:href="#CMR17-31" transform="scale(0.996264)"/>
       <use xlink:href="#CMMI12-3a" transform="translate(45.690477 0) scale(0.996264)"/>
       <use xlink:href="#CMR17-32" transform="translate(72.787654 0) scale(0.996264)"/>
      </g>
     </g>
    </g>
    <g id="ytick_8">
     <g id="line2d_14">
      <g>
       <use xlink:href="#m164884a33b" x="53.363212" y="42.92435" style="stroke: #000000; stroke-width: 0.8"/>
      </g>
     </g>
     <g id="text_15">
      <!-- $\mathdefault{1.4}$ -->
      <g transform="translate(28.91263 47.767288) scale(0.14 -0.14)">
       <use xlink:href="#CMR17-31" transform="scale(0.996264)"/>
       <use xlink:href="#CMMI12-3a" transform="translate(45.690477 0) scale(0.996264)"/>
       <use xlink:href="#CMR17-34" transform="translate(72.787654 0) scale(0.996264)"/>
      </g>
     </g>
    </g>
    <g id="text_16">
     <!-- $y$ -->
     <g transform="translate(21.036997 162.995967) rotate(-90) scale(0.2 -0.2)">
      <defs>
       <path id="CMMI12-79" d="M 1683 -673 
C 1510 -921 1261 -1152 947 -1152 
C 870 -1152 563 -1139 467 -826 
C 486 -833 518 -833 531 -833 
C 723 -833 851 -666 851 -519 
C 851 -372 730 -320 634 -320 
C 531 -320 307 -397 307 -711 
C 307 -1050 582 -1280 947 -1280 
C 1587 -1280 2234 -673 2413 -7 
L 3040 2483 
C 3046 2515 3059 2553 3059 2591 
C 3059 2687 2982 2752 2886 2752 
C 2829 2752 2694 2726 2643 2534 
L 2170 657 
C 2138 542 2138 530 2086 459 
C 1958 281 1747 64 1440 64 
C 1082 64 1050 415 1050 587 
C 1050 951 1222 1443 1395 1902 
C 1466 2087 1504 2177 1504 2305 
C 1504 2573 1312 2816 998 2816 
C 410 2816 173 1890 173 1838 
C 173 1813 198 1781 243 1781 
C 301 1781 307 1807 333 1896 
C 486 2432 730 2687 979 2687 
C 1037 2687 1146 2687 1146 2477 
C 1146 2311 1075 2126 979 1883 
C 666 1047 666 836 666 683 
C 666 76 1101 -64 1421 -64 
C 1606 -64 1837 -7 2061 230 
L 2067 223 
C 1971 -141 1907 -359 1683 -673 
z
" transform="scale(0.015625)"/>
      </defs>
      <use xlink:href="#CMMI12-79" transform="scale(0.996264)"/>
     </g>
    </g>
   </g>
   <g id="line2d_15">
    <path d="M 69.59594 113.88755 
L 77.712303 148.694861 
L 85.828667 174.821759 
L 93.945031 194.188344 
L 102.061394 208.252512 
L 110.177758 218.246108 
L 118.294122 225.034202 
L 126.410485 229.361433 
L 134.526849 231.739388 
L 142.643212 232.626273 
L 150.759576 232.326294 
L 158.87594 231.123618 
L 166.992303 229.197926 
L 175.108667 226.726312 
L 183.225031 223.813838 
L 191.341394 220.571599 
L 199.457758 217.060201 
L 207.574122 213.349919 
L 215.690485 209.475041 
L 223.806849 205.480458 
L 231.923212 201.385015 
L 240.039576 197.217719 
L 248.15594 192.988454 
L 256.272303 188.716214 
L 264.388667 184.405774 
L 272.505031 180.069755 
L 280.621394 175.710087 
L 288.737758 171.335294 
L 296.854122 166.945783 
L 304.970485 162.547408 
L 313.086849 158.139815 
L 321.203212 153.727092 
L 329.319576 149.308548 
L 337.43594 144.887087 
L 345.552303 140.461917 
L 353.668667 136.035132 
L 361.785031 131.605957 
L 369.901394 127.175924 
L 378.017758 122.74433 
L 386.134122 118.312313 
L 394.250485 113.879262 
" clip-path="url(#p7cea8216e3)" style="fill: none; stroke: #ff0000; stroke-width: 1.5; stroke-linecap: square"/>
    <defs>
     <path id="macb42c2b03" d="M 0 3 
C 0.795609 3 1.55874 2.683901 2.12132 2.12132 
C 2.683901 1.55874 3 0.795609 3 0 
C 3 -0.795609 2.683901 -1.55874 2.12132 -2.12132 
C 1.55874 -2.683901 0.795609 -3 0 -3 
C -0.795609 -3 -1.55874 -2.683901 -2.12132 -2.12132 
C -2.683901 -1.55874 -3 -0.795609 -3 0 
C -3 0.795609 -2.683901 1.55874 -2.12132 2.12132 
C -1.55874 2.683901 -0.795609 3 0 3 
z
" style="stroke: #ff0000"/>
    </defs>
    <g clip-path="url(#p7cea8216e3)">
     <use xlink:href="#macb42c2b03" x="69.59594" y="113.88755" style="fill: #ff0000; stroke: #ff0000"/>
     <use xlink:href="#macb42c2b03" x="77.712303" y="148.694861" style="fill: #ff0000; stroke: #ff0000"/>
     <use xlink:href="#macb42c2b03" x="85.828667" y="174.821759" style="fill: #ff0000; stroke: #ff0000"/>
     <use xlink:href="#macb42c2b03" x="93.945031" y="194.188344" style="fill: #ff0000; stroke: #ff0000"/>
     <use xlink:href="#macb42c2b03" x="102.061394" y="208.252512" style="fill: #ff0000; stroke: #ff0000"/>
     <use xlink:href="#macb42c2b03" x="110.177758" y="218.246108" style="fill: #ff0000; stroke: #ff0000"/>
     <use xlink:href="#macb42c2b03" x="118.294122" y="225.034202" style="fill: #ff0000; stroke: #ff0000"/>
     <use xlink:href="#macb42c2b03" x="126.410485" y="229.361433" style="fill: #ff0000; stroke: #ff0000"/>
     <use xlink:href="#macb42c2b03" x="134.526849" y="231.739388" style="fill: #ff0000; stroke: #ff0000"/>
     <use xlink:href="#macb42c2b03" x="142.643212" y="232.626273" style="fill: #ff0000; stroke: #ff0000"/>
     <use xlink:href="#macb42c2b03" x="150.759576" y="232.326294" style="fill: #ff0000; stroke: #ff0000"/>
     <use xlink:href="#macb42c2b03" x="158.87594" y="231.123618" style="fill: #ff0000; stroke: #ff0000"/>
     <use xlink:href="#macb42c2b03" x="166.992303" y="229.197926" style="fill: #ff0000; stroke: #ff0000"/>
     <use xlink:href="#macb42c2b03" x="175.108667" y="226.726312" style="fill: #ff0000; stroke: #ff0000"/>
     <use xlink:href="#macb42c2b03" x="183.225031" y="223.813838" style="fill: #ff0000; stroke: #ff0000"/>
     <use xlink:href="#macb42c2b03" x="191.341394" y="220.571599" style="fill: #ff0000; stroke: #ff0000"/>
     <use xlink:href="#macb42c2b03" x="199.457758" y="217.060201" style="fill: #ff0000; stroke: #ff0000"/>
     <use xlink:href="#macb42c2b03" x="207.574122" y="213.349919" style="fill: #ff0000; stroke: #ff0000"/>
     <use xlink:href="#macb42c2b03" x="215.690485" y="209.475041" style="fill: #ff0000; stroke: #ff0000"/>
     <use xlink:href="#macb42c2b03" x="223.806849" y="205.480458" style="fill: #ff0000; stroke: #ff0000"/>
     <use xlink:href="#macb42c2b03" x="231.923212" y="201.385015" style="fill: #ff0000; stroke: #ff0000"/>
     <use xlink:href="#macb42c2b03" x="240.039576" y="197.217719" style="fill: #ff0000; stroke: #ff0000"/>
     <use xlink:href="#macb42c2b03" x="248.15594" y="192.988454" style="fill: #ff0000; stroke: #ff0000"/>
     <use xlink:href="#macb42c2b03" x="256.272303" y="188.716214" style="fill: #ff0000; stroke: #ff0000"/>
     <use xlink:href="#macb42c2b03" x="264.388667" y="184.405774" style="fill: #ff0000; stroke: #ff0000"/>
     <use xlink:href="#macb42c2b03" x="272.505031" y="180.069755" style="fill: #ff0000; stroke: #ff0000"/>
     <use xlink:href="#macb42c2b03" x="280.621394" y="175.710087" style="fill: #ff0000; stroke: #ff0000"/>
     <use xlink:href="#macb42c2b03" x="288.737758" y="171.335294" style="fill: #ff0000; stroke: #ff0000"/>
     <use xlink:href="#macb42c2b03" x="296.854122" y="166.945783" style="fill: #ff0000; stroke: #ff0000"/>
     <use xlink:href="#macb42c2b03" x="304.970485" y="162.547408" style="fill: #ff0000; stroke: #ff0000"/>
     <use xlink:href="#macb42c2b03" x="313.086849" y="158.139815" style="fill: #ff0000; stroke: #ff0000"/>
     <use xlink:href="#macb42c2b03" x="321.203212" y="153.727092" style="fill: #ff0000; stroke: #ff0000"/>
     <use xlink:href="#macb42c2b03" x="329.319576" y="149.308548" style="fill: #ff0000; stroke: #ff0000"/>
     <use xlink:href="#macb42c2b03" x="337.43594" y="144.887087" style="fill: #ff0000; stroke: #ff0000"/>
     <use xlink:href="#macb42c2b03" x="345.552303" y="140.461917" style="fill: #ff0000; stroke: #ff0000"/>
     <use xlink:href="#macb42c2b03" x="353.668667" y="136.035132" style="fill: #ff0000; stroke: #ff0000"/>
     <use xlink:href="#macb42c2b03" x="361.785031" y="131.605957" style="fill: #ff0000; stroke: #ff0000"/>
     <use xlink:href="#macb42c2b03" x="369.901394" y="127.175924" style="fill: #ff0000; stroke: #ff0000"/>
     <use xlink:href="#macb42c2b03" x="378.017758" y="122.74433" style="fill: #ff0000; stroke: #ff0000"/>
     <use xlink:href="#macb42c2b03" x="386.134122" y="118.312313" style="fill: #ff0000; stroke: #ff0000"/>
     <use xlink:href="#macb42c2b03" x="394.250485" y="113.879262" style="fill: #ff0000; stroke: #ff0000"/>
    </g>
   </g>
   <g id="line2d_16">
    <path d="M 69.59594 113.88755 
L 72.842485 128.996073 
L 76.089031 142.498004 
L 79.335576 154.546231 
L 82.582122 165.279091 
L 85.828667 174.821759 
L 89.075212 183.287495 
L 92.321758 190.778784 
L 95.568303 197.388357 
L 98.814849 203.20012 
L 102.061394 208.289994 
L 105.30794 212.726677 
L 108.554485 216.572327 
L 111.801031 219.88319 
L 115.047576 222.710156 
L 118.294122 225.099274 
L 121.540667 227.092212 
L 124.787212 228.726671 
L 128.033758 230.036765 
L 131.280303 231.05336 
L 134.526849 231.804388 
L 137.773394 232.31512 
L 141.01994 232.608423 
L 144.266485 232.704989 
L 147.513031 232.623539 
L 150.759576 232.381014 
L 154.006122 231.992743 
L 157.252667 231.472594 
L 160.499212 230.833118 
L 163.745758 230.08567 
L 166.992303 229.240526 
L 170.238849 228.306981 
L 173.485394 227.293449 
L 176.73194 226.207541 
L 179.978485 225.056145 
L 183.225031 223.845492 
L 186.471576 222.581223 
L 189.718122 221.268438 
L 192.964667 219.911756 
L 196.211212 218.515353 
L 199.457758 217.083009 
L 202.704303 215.618145 
L 205.950849 214.123855 
L 209.197394 212.602939 
L 212.44394 211.057932 
L 215.690485 209.491125 
L 218.937031 207.904594 
L 222.183576 206.300215 
L 225.430122 204.679687 
L 228.676667 203.044546 
L 231.923212 201.396184 
L 235.169758 199.735858 
L 238.416303 198.064707 
L 241.662849 196.383761 
L 244.909394 194.693952 
L 248.15594 192.996124 
L 251.402485 191.291039 
L 254.649031 189.579389 
L 257.895576 187.861797 
L 261.142122 186.13883 
L 264.388667 184.410999 
L 267.635212 182.678767 
L 270.881758 180.942553 
L 274.128303 179.202735 
L 277.374849 177.459656 
L 280.621394 175.713628 
L 283.86794 173.96493 
L 287.114485 172.213816 
L 290.361031 170.460517 
L 293.607576 168.705241 
L 296.854122 166.948175 
L 300.100667 165.18949 
L 303.347212 163.42934 
L 306.593758 161.667864 
L 309.840303 159.905189 
L 313.086849 158.141428 
L 316.333394 156.376686 
L 319.57994 154.611055 
L 322.826485 152.84462 
L 326.073031 151.077457 
L 329.319576 149.309636 
L 332.566122 147.54122 
L 335.812667 145.772264 
L 339.059212 144.002821 
L 342.305758 142.232937 
L 345.552303 140.462653 
L 348.798849 138.692008 
L 352.045394 136.921036 
L 355.29194 135.149769 
L 358.538485 133.378233 
L 361.785031 131.606456 
L 365.031576 129.834459 
L 368.278122 128.062265 
L 371.524667 126.28989 
L 374.771212 124.517354 
L 378.017758 122.744671 
L 381.264303 120.971854 
L 384.510849 119.198918 
L 387.757394 117.425872 
L 391.00394 115.652728 
L 394.250485 113.879496 
" clip-path="url(#p7cea8216e3)" style="fill: none; stroke: #0000ff; stroke-width: 1.5; stroke-linecap: square"/>
   </g>
   <g id="patch_3">
    <path d="M 53.363212 291.29555 
L 53.363212 25.18355 
" style="fill: none; stroke: #000000; stroke-width: 0.8; stroke-linejoin: miter; stroke-linecap: square"/>
   </g>
   <g id="patch_4">
    <path d="M 410.483212 291.29555 
L 410.483212 25.18355 
" style="fill: none; stroke: #000000; stroke-width: 0.8; stroke-linejoin: miter; stroke-linecap: square"/>
   </g>
   <g id="patch_5">
    <path d="M 53.363212 291.29555 
L 410.483212 291.29555 
" style="fill: none; stroke: #000000; stroke-width: 0.8; stroke-linejoin: miter; stroke-linecap: square"/>
   </g>
   <g id="patch_6">
    <path d="M 53.363212 25.18355 
L 410.483212 25.18355 
" style="fill: none; stroke: #000000; stroke-width: 0.8; stroke-linejoin: miter; stroke-linecap: square"/>
   </g>
   <g id="text_17">
    <!-- Solution to $y'=-10y+t+1, y(0)=1, h=0.025$ -->
    <g transform="translate(64.733896 19.18355) scale(0.16 -0.16)">
     <defs>
      <path id="CMSS17-53" d="M 2797 4230 
C 2515 4396 2208 4544 1690 4544 
C 864 4544 333 3934 333 3309 
C 333 3064 403 2787 653 2504 
C 902 2220 1184 2143 1542 2053 
C 1690 2014 1939 1943 1984 1924 
C 2342 1782 2515 1454 2515 1144 
C 2515 738 2202 307 1645 307 
C 1453 307 890 339 358 829 
L 269 320 
C 794 -64 1363 -128 1651 -128 
C 2438 -128 3002 494 3002 1202 
C 3002 1460 2925 1789 2656 2092 
C 2394 2381 2163 2446 1638 2588 
C 1338 2665 1146 2717 986 2916 
C 877 3058 819 3193 819 3367 
C 819 3728 1126 4121 1690 4121 
C 1971 4121 2336 4063 2707 3715 
L 2797 4230 
z
" transform="scale(0.015625)"/>
      <path id="CMSS17-6f" d="M 2829 1356 
C 2829 2175 2221 2816 1504 2816 
C 768 2816 173 2156 173 1356 
C 173 544 787 -64 1498 -64 
C 2227 -64 2829 563 2829 1356 
z
M 1504 339 
C 1050 339 659 710 659 1407 
C 659 2150 1114 2425 1498 2425 
C 1914 2425 2342 2124 2342 1407 
C 2342 684 1926 339 1504 339 
z
" transform="scale(0.015625)"/>
      <path id="CMSS17-6c" d="M 947 4416 
L 474 4416 
L 474 0 
L 947 0 
L 947 4416 
z
" transform="scale(0.015625)"/>
      <path id="CMSS17-75" d="M 2618 2752 
L 2131 2752 
L 2131 976 
C 2131 500 1786 307 1421 307 
C 998 307 960 448 960 712 
L 960 2752 
L 474 2752 
L 474 680 
C 474 179 646 -64 1088 -64 
C 1306 -64 1798 -13 2144 307 
L 2144 -13 
L 2618 -13 
L 2618 2752 
z
" transform="scale(0.015625)"/>
      <path id="CMSS17-74" d="M 1069 2380 
L 1901 2380 
L 1901 2752 
L 1069 2752 
L 1069 3520 
L 614 3520 
L 614 2752 
L 109 2752 
L 109 2380 
L 602 2380 
L 602 751 
C 602 384 685 -64 1107 -64 
C 1427 -64 1722 25 2003 172 
L 1901 551 
C 1747 416 1562 339 1363 339 
C 1082 339 1069 699 1069 860 
L 1069 2380 
z
" transform="scale(0.015625)"/>
      <path id="CMSS17-69" d="M 979 4224 
L 442 4224 
L 442 3686 
L 979 3686 
L 979 4224 
z
M 947 2752 
L 474 2752 
L 474 0 
L 947 0 
L 947 2752 
z
" transform="scale(0.015625)"/>
      <path id="CMSS17-6e" d="M 2618 1878 
C 2618 2283 2522 2816 1798 2816 
C 1389 2816 1120 2604 941 2386 
L 941 2783 
L 474 2783 
L 474 0 
L 960 0 
L 960 1556 
C 960 1962 1114 2425 1549 2425 
C 2112 2425 2131 2045 2131 1826 
L 2131 0 
L 2618 0 
L 2618 1878 
z
" transform="scale(0.015625)"/>
      <path id="CMSY10-30" d="M 1619 3048 
C 1651 3125 1677 3182 1677 3246 
C 1677 3430 1510 3584 1312 3584 
C 1133 3584 1018 3462 973 3297 
L 211 517 
C 211 505 186 435 186 428 
C 186 358 352 313 403 313 
C 442 313 448 332 486 415 
L 1619 3048 
z
" transform="scale(0.015625)"/>
      <path id="CMR17-3d" d="M 4115 2048 
C 4211 2048 4307 2048 4307 2156 
C 4307 2272 4198 2272 4090 2272 
L 512 2272 
C 403 2272 294 2272 294 2156 
C 294 2048 390 2048 486 2048 
L 4115 2048 
z
M 4090 927 
C 4198 927 4307 927 4307 1043 
C 4307 1152 4211 1152 4115 1152 
L 486 1152 
C 390 1152 294 1152 294 1043 
C 294 927 403 927 512 927 
L 4090 927 
z
" transform="scale(0.015625)"/>
      <path id="CMSY10-0" d="M 4218 1472 
C 4326 1472 4442 1472 4442 1600 
C 4442 1728 4326 1728 4218 1728 
L 755 1728 
C 646 1728 531 1728 531 1600 
C 531 1472 646 1472 755 1472 
L 4218 1472 
z
" transform="scale(0.015625)"/>
      <path id="CMR17-2b" d="M 2413 1472 
L 4109 1472 
C 4198 1472 4307 1472 4307 1580 
C 4307 1696 4205 1696 4109 1696 
L 2413 1696 
L 2413 3385 
C 2413 3475 2413 3584 2304 3584 
C 2189 3584 2189 3481 2189 3385 
L 2189 1696 
L 493 1696 
C 403 1696 294 1696 294 1587 
C 294 1472 397 1472 493 1472 
L 2189 1472 
L 2189 -194 
C 2189 -282 2189 -391 2298 -391 
C 2413 -391 2413 -289 2413 -194 
L 2413 1472 
z
" transform="scale(0.015625)"/>
      <path id="CMMI12-3b" d="M 1248 -26 
C 1248 345 1126 620 864 620 
C 659 620 557 454 557 313 
C 557 172 653 0 870 0 
C 954 0 1024 25 1082 83 
C 1094 96 1101 96 1107 96 
C 1120 96 1120 6 1120 -26 
C 1120 -233 1082 -642 710 -1051 
C 640 -1127 640 -1140 640 -1152 
C 640 -1184 672 -1216 704 -1216 
C 755 -1216 1248 -749 1248 -26 
z
" transform="scale(0.015625)"/>
      <path id="CMR17-28" d="M 1958 -1562 
C 1958 -1556 1958 -1543 1939 -1524 
C 1645 -1223 858 -403 858 1596 
C 858 3595 1632 4408 1946 4729 
C 1946 4735 1958 4748 1958 4767 
C 1958 4787 1939 4800 1914 4800 
C 1843 4800 1299 4325 986 3620 
C 666 2909 576 2218 576 1603 
C 576 1141 621 360 1005 -467 
C 1312 -1133 1837 -1600 1914 -1600 
C 1946 -1600 1958 -1588 1958 -1562 
z
" transform="scale(0.015625)"/>
      <path id="CMR17-29" d="M 1683 1596 
C 1683 2057 1638 2839 1254 3665 
C 947 4332 422 4800 346 4800 
C 326 4800 301 4793 301 4761 
C 301 4748 307 4742 314 4729 
C 621 4408 1402 3595 1402 1603 
C 1402 -396 627 -1210 314 -1530 
C 307 -1543 301 -1549 301 -1562 
C 301 -1594 326 -1600 346 -1600 
C 416 -1600 960 -1127 1274 -422 
C 1594 289 1683 981 1683 1596 
z
" transform="scale(0.015625)"/>
      <path id="CMMI12-68" d="M 1798 4255 
C 1805 4281 1818 4319 1818 4351 
C 1818 4416 1754 4416 1741 4416 
C 1734 4416 1421 4390 1389 4383 
C 1280 4377 1184 4364 1069 4358 
C 909 4345 864 4339 864 4223 
C 864 4159 915 4159 1005 4159 
C 1318 4159 1325 4103 1325 4040 
C 1325 4002 1312 3951 1306 3932 
L 378 249 
C 352 153 352 140 352 102 
C 352 -39 461 -64 525 -64 
C 634 -64 717 19 749 89 
L 1037 1245 
C 1069 1385 1107 1519 1139 1660 
C 1210 1928 1210 1934 1331 2119 
C 1453 2305 1741 2687 2234 2687 
C 2490 2687 2579 2496 2579 2241 
C 2579 1883 2330 1187 2189 804 
C 2131 651 2099 568 2099 453 
C 2099 166 2298 -64 2605 -64 
C 3200 -64 3424 874 3424 913 
C 3424 945 3398 970 3360 970 
C 3302 970 3296 951 3264 842 
C 3117 332 2880 64 2624 64 
C 2560 64 2458 70 2458 274 
C 2458 440 2534 645 2560 715 
C 2675 1021 2963 1775 2963 2145 
C 2963 2528 2739 2816 2253 2816 
C 1888 2816 1568 2643 1306 2311 
L 1798 4255 
z
" transform="scale(0.015625)"/>
      <path id="CMR17-35" d="M 730 3750 
C 794 3724 1056 3641 1325 3641 
C 1920 3641 2246 3961 2432 4140 
C 2432 4191 2432 4224 2394 4224 
C 2387 4224 2374 4224 2323 4198 
C 2099 4102 1837 4032 1517 4032 
C 1325 4032 1037 4055 723 4191 
C 653 4224 640 4224 634 4224 
C 602 4224 595 4217 595 4090 
L 595 2231 
C 595 2113 595 2080 659 2080 
C 691 2080 704 2093 736 2139 
C 941 2435 1222 2560 1542 2560 
C 1766 2560 2246 2415 2246 1293 
C 2246 1087 2246 716 2054 422 
C 1894 159 1645 25 1370 25 
C 947 25 518 319 403 812 
C 429 806 480 793 506 793 
C 589 793 749 838 749 1036 
C 749 1209 627 1280 506 1280 
C 358 1280 262 1190 262 1011 
C 262 454 704 -128 1382 -128 
C 2042 -128 2669 441 2669 1267 
C 2669 2054 2170 2662 1549 2662 
C 1222 2662 947 2540 730 2304 
L 730 3750 
z
" transform="scale(0.015625)"/>
     </defs>
     <use xlink:href="#CMSS17-53" transform="scale(0.996264)"/>
     <use xlink:href="#CMSS17-6f" transform="translate(52.048516 0) scale(0.996264)"/>
     <use xlink:href="#CMSS17-6c" transform="translate(98.89214 0) scale(0.996264)"/>
     <use xlink:href="#CMSS17-75" transform="translate(121.072863 0) scale(0.996264)"/>
     <use xlink:href="#CMSS17-74" transform="translate(169.277806 0) scale(0.996264)"/>
     <use xlink:href="#CMSS17-69" transform="translate(203.109373 0) scale(0.996264)"/>
     <use xlink:href="#CMSS17-6f" transform="translate(225.290096 0) scale(0.996264)"/>
     <use xlink:href="#CMSS17-6e" transform="translate(272.133719 0) scale(0.996264)"/>
     <use xlink:href="#CMSS17-74" transform="translate(351.567775 0) scale(0.996264)"/>
     <use xlink:href="#CMSS17-6f" transform="translate(385.399342 0) scale(0.996264)"/>
     <use xlink:href="#CMMI12-79" transform="translate(463.472078 0) scale(0.996264)"/>
     <use xlink:href="#CMSY10-30" transform="translate(514.610859 36.153639) scale(0.697382)"/>
     <use xlink:href="#CMR17-3d" transform="translate(561.96096 0) scale(0.996264)"/>
     <use xlink:href="#CMSY10-0" transform="translate(661.349757 0) scale(0.996264)"/>
     <use xlink:href="#CMR17-31" transform="translate(738.837225 0) scale(0.996264)"/>
     <use xlink:href="#CMR17-30" transform="translate(784.527702 0) scale(0.996264)"/>
     <use xlink:href="#CMMI12-79" transform="translate(830.218179 0) scale(0.996264)"/>
     <use xlink:href="#CMR17-2b" transform="translate(903.496167 0) scale(0.996264)"/>
     <use xlink:href="#CMMI12-74" transform="translate(997.350162 0) scale(0.996264)"/>
     <use xlink:href="#CMR17-2b" transform="translate(1054.715699 0) scale(0.996264)"/>
     <use xlink:href="#CMR17-31" transform="translate(1148.569695 0) scale(0.996264)"/>
     <use xlink:href="#CMMI12-3b" transform="translate(1194.260172 0) scale(0.996264)"/>
     <use xlink:href="#CMMI12-79" transform="translate(1237.961754 0) scale(0.996264)"/>
     <use xlink:href="#CMR17-28" transform="translate(1289.100535 0) scale(0.996264)"/>
     <use xlink:href="#CMR17-30" transform="translate(1324.381303 0) scale(0.996264)"/>
     <use xlink:href="#CMR17-29" transform="translate(1370.07178 0) scale(0.996264)"/>
     <use xlink:href="#CMR17-3d" transform="translate(1433.026556 0) scale(0.996264)"/>
     <use xlink:href="#CMR17-31" transform="translate(1532.415353 0) scale(0.996264)"/>
     <use xlink:href="#CMMI12-3b" transform="translate(1578.105831 0) scale(0.996264)"/>
     <use xlink:href="#CMMI12-68" transform="translate(1621.807413 0) scale(0.996264)"/>
     <use xlink:href="#CMR17-3d" transform="translate(1705.636046 0) scale(0.996264)"/>
     <use xlink:href="#CMR17-30" transform="translate(1805.024843 0) scale(0.996264)"/>
     <use xlink:href="#CMMI12-3a" transform="translate(1850.71532 0) scale(0.996264)"/>
     <use xlink:href="#CMR17-30" transform="translate(1877.812497 0) scale(0.996264)"/>
     <use xlink:href="#CMR17-32" transform="translate(1923.502974 0) scale(0.996264)"/>
     <use xlink:href="#CMR17-35" transform="translate(1969.193451 0) scale(0.996264)"/>
    </g>
   </g>
   <g id="legend_1">
    <g id="patch_7">
     <path d="M 182.245628 75.407607 
L 281.600797 75.407607 
Q 284.400797 75.407607 284.400797 72.607607 
L 284.400797 34.98355 
Q 284.400797 32.18355 281.600797 32.18355 
L 182.245628 32.18355 
Q 179.445628 32.18355 179.445628 34.98355 
L 179.445628 72.607607 
Q 179.445628 75.407607 182.245628 75.407607 
z
" style="fill: #ffffff; opacity: 0.8; stroke: #cccccc; stroke-linejoin: miter"/>
    </g>
    <g id="line2d_17">
     <path d="M 185.045628 42.68355 
L 199.045628 42.68355 
L 213.045628 42.68355 
" style="fill: none; stroke: #ff0000; stroke-width: 1.5; stroke-linecap: square"/>
     <g>
      <use xlink:href="#macb42c2b03" x="199.045628" y="42.68355" style="fill: #ff0000; stroke: #ff0000"/>
     </g>
    </g>
    <g id="text_18">
     <!-- numerical -->
     <g transform="translate(224.245628 47.58355) scale(0.14 -0.14)">
      <defs>
       <path id="CMSS17-6d" d="M 4288 1878 
C 4288 2309 4179 2816 3462 2816 
C 2982 2816 2694 2515 2566 2328 
C 2451 2668 2182 2816 1798 2816 
C 1363 2816 1088 2566 941 2386 
L 941 2783 
L 474 2783 
L 474 0 
L 960 0 
L 960 1556 
C 960 1936 1101 2425 1555 2425 
C 2138 2425 2138 2013 2138 1826 
L 2138 0 
L 2624 0 
L 2624 1556 
C 2624 1936 2765 2425 3219 2425 
C 3802 2425 3802 2013 3802 1826 
L 3802 0 
L 4288 0 
L 4288 1878 
z
" transform="scale(0.015625)"/>
       <path id="CMSS17-65" d="M 2502 1375 
C 2502 1587 2490 2001 2285 2347 
C 2061 2713 1696 2816 1421 2816 
C 755 2816 192 2184 192 1363 
C 192 579 774 -64 1510 -64 
C 1798 -64 2150 19 2470 249 
C 2470 275 2458 414 2451 421 
C 2451 433 2432 629 2432 655 
C 2125 408 1773 326 1517 326 
C 1107 326 666 667 646 1375 
L 2502 1375 
z
M 698 1728 
C 781 2086 1062 2425 1421 2425 
C 1517 2425 1965 2412 2080 1728 
L 698 1728 
z
" transform="scale(0.015625)"/>
       <path id="CMSS17-72" d="M 954 1369 
C 954 1974 1395 2379 1958 2392 
L 1958 2816 
C 1549 2809 1165 2604 934 2270 
L 934 2783 
L 480 2783 
L 480 0 
L 954 0 
L 954 1369 
z
" transform="scale(0.015625)"/>
       <path id="CMSS17-63" d="M 2464 2540 
C 2464 2585 2170 2713 2093 2739 
C 1882 2816 1613 2816 1542 2816 
C 710 2816 211 2092 211 1363 
C 211 595 768 -64 1517 -64 
C 1946 -64 2253 76 2502 243 
L 2464 665 
C 2189 454 1869 339 1523 339 
C 1024 339 698 774 698 1369 
C 698 1830 909 2412 1549 2412 
C 1901 2412 2099 2342 2394 2143 
L 2464 2540 
z
" transform="scale(0.015625)"/>
       <path id="CMSS17-61" d="M 2406 1789 
C 2406 2399 1978 2816 1402 2816 
C 1120 2816 813 2764 461 2559 
L 499 2133 
C 659 2250 934 2438 1395 2438 
C 1722 2438 1920 2185 1920 1782 
L 1920 1536 
C 896 1504 256 1209 256 711 
C 256 452 416 -64 947 -64 
C 1043 -64 1562 -52 1933 224 
L 1933 -13 
L 2406 -13 
L 2406 1789 
z
M 1920 824 
C 1920 711 1920 559 1728 446 
C 1562 339 1350 326 1261 326 
C 941 326 723 503 723 723 
C 723 1165 1722 1209 1920 1216 
L 1920 824 
z
" transform="scale(0.015625)"/>
      </defs>
      <use xlink:href="#CMSS17-6e" transform="scale(0.996264)"/>
      <use xlink:href="#CMSS17-75" transform="translate(48.204943 0) scale(0.996264)"/>
      <use xlink:href="#CMSS17-6d" transform="translate(96.409886 0) scale(0.996264)"/>
      <use xlink:href="#CMSS17-65" transform="translate(170.639141 0) scale(0.996264)"/>
      <use xlink:href="#CMSS17-72" transform="translate(212.277963 0) scale(0.996264)"/>
      <use xlink:href="#CMSS17-69" transform="translate(244.187735 0) scale(0.996264)"/>
      <use xlink:href="#CMSS17-63" transform="translate(266.368458 0) scale(0.996264)"/>
      <use xlink:href="#CMSS17-61" transform="translate(308.00728 0) scale(0.996264)"/>
      <use xlink:href="#CMSS17-6c" transform="translate(352.929201 0) scale(0.996264)"/>
     </g>
    </g>
    <g id="line2d_18">
     <path d="M 185.045628 62.195578 
L 199.045628 62.195578 
L 213.045628 62.195578 
" style="fill: none; stroke: #0000ff; stroke-width: 1.5; stroke-linecap: square"/>
    </g>
    <g id="text_19">
     <!-- exact -->
     <g transform="translate(224.245628 67.095578) scale(0.14 -0.14)">
      <defs>
       <path id="CMSS17-78" d="M 1587 1420 
L 2656 2752 
L 2099 2752 
L 1363 1785 
L 602 2752 
L 32 2752 
L 1139 1420 
L 0 0 
L 563 0 
L 1363 1126 
L 2195 0 
L 2758 0 
L 1587 1420 
z
" transform="scale(0.015625)"/>
      </defs>
      <use xlink:href="#CMSS17-65" transform="scale(0.996264)"/>
      <use xlink:href="#CMSS17-78" transform="translate(41.638822 0) scale(0.996264)"/>
      <use xlink:href="#CMSS17-61" transform="translate(84.638964 0) scale(0.996264)"/>
      <use xlink:href="#CMSS17-63" transform="translate(129.560884 0) scale(0.996264)"/>
      <use xlink:href="#CMSS17-74" transform="translate(171.199706 0) scale(0.996264)"/>
     </g>
    </g>
   </g>
  </g>
 </g>
 <defs>
  <clipPath id="p7cea8216e3">
   <rect x="53.363212" y="25.18355" width="357.12" height="266.112"/>
  </clipPath>
 </defs>
</svg>