<?xml version="1.0" encoding="utf-8" standalone="no"?>
<!DOCTYPE svg PUBLIC "-//W3C//DTD SVG 1.1//EN"
  "http://www.w3.org/Graphics/SVG/1.1/DTD/svg11.dtd">
<svg xmlns:xlink="http://www.w3.org/1999/xlink" width="417.683212pt" height="339.606085pt" viewBox="0 0 417.683212 339.606085" xmlns="http://www.w3.org/2000/svg" version="1.1">
 <metadata>
  <rdf:RDF xmlns:dc="http://purl.org/dc/elements/1.1/" xmlns:cc="http://creativecommons.org/ns#" xmlns:rdf="http://www.w3.org/1999/02/22-rdf-syntax-ns#">
   <cc:Work>
    <dc:type rdf:resource="http://purl.org/dc/dcmitype/StillImage"/>
    <dc:date>2024-01-15T16:53:10.899714</dc:date>
    <dc:format>image/svg+xml</dc:format>
    <dc:creator>
     <cc:Agent>
      <dc:title>Matplotlib v3.8.2, https://matplotlib.org/</dc:title>
     </cc:Agent>
    </dc:creator>
   </cc:Work>
  </rdf:RDF>
 </metadata>
 <defs>
  <style type="text/css">*{stroke-linejoin: round; stroke-linecap: butt}</style>
 </defs>
 <g id="figure_1">
  <g id="patch_1">
   <path d="M 0 339.606085 
L 417.683212 339.606085 
L 417.683212 0 
L 0 0 
z
" style="fill: #ffffff"/>
  </g>
  <g id="axes_1">
   <g id="patch_2">
    <path d="M 53.363212 291.29555 
L 410.483212 291.29555 
L 410.483212 25.18355 
L 53.363212 25.18355 
z
" style="fill: #ffffff"/>
   </g>
   <g id="matplotlib.axis_1">
    <g id="xtick_1">
     <g id="line2d_1">
      <defs>
       <path id="mec6b19bcb8" d="M 0 0 
L 0 3.5 
" style="stroke: #000000; stroke-width: 0.8"/>
      </defs>
      <g>
       <use xlink:href="#mec6b19bcb8" x="69.59594" y="291.29555" style="stroke: #000000; stroke-width: 0.8"/>
      </g>
     </g>
     <g id="text_1">
      <!-- $\mathdefault{0.0}$ -->
      <g transform="translate(60.870649 307.981426) scale(0.14 -0.14)">
       <defs>
        <path id="CMR17-30" d="M 2688 2025 
C 2688 2416 2682 3080 2413 3591 
C 2176 4039 1798 4198 1466 4198 
C 1158 4198 768 4058 525 3597 
C 269 3118 243 2524 243 2025 
C 243 1661 250 1106 448 619 
C 723 -39 1216 -128 1466 -128 
C 1760 -128 2208 -7 2470 600 
C 2662 1042 2688 1559 2688 2025 
z
M 1466 -26 
C 1056 -26 813 325 723 812 
C 653 1188 653 1738 653 2096 
C 653 2588 653 2997 736 3387 
C 858 3929 1216 4096 1466 4096 
C 1728 4096 2067 3923 2189 3400 
C 2272 3036 2278 2607 2278 2096 
C 2278 1680 2278 1169 2202 792 
C 2067 95 1690 -26 1466 -26 
z
" transform="scale(0.015625)"/>
        <path id="CMMI12-3a" d="M 1178 307 
C 1178 492 1024 619 870 619 
C 685 619 557 466 557 313 
C 557 128 710 0 864 0 
C 1050 0 1178 153 1178 307 
z
" transform="scale(0.015625)"/>
       </defs>
       <use xlink:href="#CMR17-30" transform="scale(0.996264)"/>
       <use xlink:href="#CMMI12-3a" transform="translate(45.690477 0) scale(0.996264)"/>
       <use xlink:href="#CMR17-30" transform="translate(72.787654 0) scale(0.996264)"/>
      </g>
     </g>
    </g>
    <g id="xtick_2">
     <g id="line2d_2">
      <g>
       <use xlink:href="#mec6b19bcb8" x="134.526849" y="291.29555" style="stroke: #000000; stroke-width: 0.8"/>
      </g>
     </g>
     <g id="text_2">
      <!-- $\mathdefault{0.2}$ -->
      <g transform="translate(125.801558 307.981426) scale(0.14 -0.14)">
       <defs>
        <path id="CMR17-32" d="M 2669 989 
L 2554 989 
C 2490 536 2438 459 2413 420 
C 2381 369 1920 369 1830 369 
L 602 369 
C 832 619 1280 1072 1824 1597 
C 2214 1967 2669 2402 2669 3035 
C 2669 3790 2067 4224 1395 4224 
C 691 4224 262 3604 262 3030 
C 262 2780 448 2748 525 2748 
C 589 2748 781 2787 781 3010 
C 781 3207 614 3264 525 3264 
C 486 3264 448 3258 422 3245 
C 544 3790 915 4058 1306 4058 
C 1862 4058 2227 3617 2227 3035 
C 2227 2479 1901 2000 1536 1584 
L 262 146 
L 262 0 
L 2515 0 
L 2669 989 
z
" transform="scale(0.015625)"/>
       </defs>
       <use xlink:href="#CMR17-30" transform="scale(0.996264)"/>
       <use xlink:href="#CMMI12-3a" transform="translate(45.690477 0) scale(0.996264)"/>
       <use xlink:href="#CMR17-32" transform="translate(72.787654 0) scale(0.996264)"/>
      </g>
     </g>
    </g>
    <g id="xtick_3">
     <g id="line2d_3">
      <g>
       <use xlink:href="#mec6b19bcb8" x="199.457758" y="291.29555" style="stroke: #000000; stroke-width: 0.8"/>
      </g>
     </g>
     <g id="text_3">
      <!-- $\mathdefault{0.4}$ -->
      <g transform="translate(190.732467 307.981426) scale(0.14 -0.14)">
       <defs>
        <path id="CMR17-34" d="M 2150 4122 
C 2150 4256 2144 4256 2029 4256 
L 128 1254 
L 128 1088 
L 1779 1088 
L 1779 457 
C 1779 224 1766 160 1318 160 
L 1197 160 
L 1197 0 
C 1402 0 1747 0 1965 0 
C 2182 0 2528 0 2733 0 
L 2733 160 
L 2611 160 
C 2163 160 2150 224 2150 457 
L 2150 1088 
L 2803 1088 
L 2803 1254 
L 2150 1254 
L 2150 4122 
z
M 1798 3703 
L 1798 1254 
L 256 1254 
L 1798 3703 
z
" transform="scale(0.015625)"/>
       </defs>
       <use xlink:href="#CMR17-30" transform="scale(0.996264)"/>
       <use xlink:href="#CMMI12-3a" transform="translate(45.690477 0) scale(0.996264)"/>
       <use xlink:href="#CMR17-34" transform="translate(72.787654 0) scale(0.996264)"/>
      </g>
     </g>
    </g>
    <g id="xtick_4">
     <g id="line2d_4">
      <g>
       <use xlink:href="#mec6b19bcb8" x="264.388667" y="291.29555" style="stroke: #000000; stroke-width: 0.8"/>
      </g>
     </g>
     <g id="text_4">
      <!-- $\mathdefault{0.6}$ -->
      <g transform="translate(255.663376 307.981426) scale(0.14 -0.14)">
       <defs>
        <path id="CMR17-36" d="M 678 2176 
C 678 3690 1395 4032 1811 4032 
C 1946 4032 2272 4009 2400 3776 
C 2298 3776 2106 3776 2106 3553 
C 2106 3381 2246 3323 2336 3323 
C 2394 3323 2566 3348 2566 3560 
C 2566 3954 2246 4179 1805 4179 
C 1043 4179 243 3390 243 1984 
C 243 253 966 -128 1478 -128 
C 2099 -128 2688 427 2688 1283 
C 2688 2081 2170 2662 1517 2662 
C 1126 2662 838 2407 678 1960 
L 678 2176 
z
M 1478 25 
C 691 25 691 1200 691 1436 
C 691 1896 909 2560 1504 2560 
C 1613 2560 1926 2560 2138 2120 
C 2253 1870 2253 1609 2253 1289 
C 2253 944 2253 690 2118 434 
C 1978 171 1773 25 1478 25 
z
" transform="scale(0.015625)"/>
       </defs>
       <use xlink:href="#CMR17-30" transform="scale(0.996264)"/>
       <use xlink:href="#CMMI12-3a" transform="translate(45.690477 0) scale(0.996264)"/>
       <use xlink:href="#CMR17-36" transform="translate(72.787654 0) scale(0.996264)"/>
      </g>
     </g>
    </g>
    <g id="xtick_5">
     <g id="line2d_5">
      <g>
       <use xlink:href="#mec6b19bcb8" x="329.319576" y="291.29555" style="stroke: #000000; stroke-width: 0.8"/>
      </g>
     </g>
     <g id="text_5">
      <!-- $\mathdefault{0.8}$ -->
      <g transform="translate(320.594285 307.981426) scale(0.14 -0.14)">
       <defs>
        <path id="CMR17-38" d="M 1741 2264 
C 2144 2467 2554 2773 2554 3263 
C 2554 3841 1990 4179 1472 4179 
C 890 4179 378 3759 378 3180 
C 378 3021 416 2747 666 2505 
C 730 2442 998 2251 1171 2130 
C 883 1983 211 1634 211 934 
C 211 279 838 -128 1459 -128 
C 2144 -128 2720 362 2720 1010 
C 2720 1590 2330 1857 2074 2029 
L 1741 2264 
z
M 902 2822 
C 851 2854 595 3051 595 3351 
C 595 3739 998 4032 1459 4032 
C 1965 4032 2336 3676 2336 3262 
C 2336 2669 1670 2331 1638 2331 
C 1632 2331 1626 2331 1574 2370 
L 902 2822 
z
M 2080 1519 
C 2176 1449 2483 1240 2483 851 
C 2483 381 2010 25 1472 25 
C 890 25 448 438 448 940 
C 448 1443 838 1862 1280 2060 
L 2080 1519 
z
" transform="scale(0.015625)"/>
       </defs>
       <use xlink:href="#CMR17-30" transform="scale(0.996264)"/>
       <use xlink:href="#CMMI12-3a" transform="translate(45.690477 0) scale(0.996264)"/>
       <use xlink:href="#CMR17-38" transform="translate(72.787654 0) scale(0.996264)"/>
      </g>
     </g>
    </g>
    <g id="xtick_6">
     <g id="line2d_6">
      <g>
       <use xlink:href="#mec6b19bcb8" x="394.250485" y="291.29555" style="stroke: #000000; stroke-width: 0.8"/>
      </g>
     </g>
     <g id="text_6">
      <!-- $\mathdefault{1.0}$ -->
      <g transform="translate(385.525194 307.981426) scale(0.14 -0.14)">
       <defs>
        <path id="CMR17-31" d="M 1702 4058 
C 1702 4192 1696 4192 1606 4192 
C 1357 3916 979 3827 621 3827 
C 602 3827 570 3827 563 3808 
C 557 3795 557 3782 557 3648 
C 755 3648 1088 3686 1344 3839 
L 1344 461 
C 1344 236 1331 160 781 160 
L 589 160 
L 589 0 
C 896 0 1216 0 1523 0 
C 1830 0 2150 0 2458 0 
L 2458 160 
L 2266 160 
C 1715 160 1702 230 1702 458 
L 1702 4058 
z
" transform="scale(0.015625)"/>
       </defs>
       <use xlink:href="#CMR17-31" transform="scale(0.996264)"/>
       <use xlink:href="#CMMI12-3a" transform="translate(45.690477 0) scale(0.996264)"/>
       <use xlink:href="#CMR17-30" transform="translate(72.787654 0) scale(0.996264)"/>
      </g>
     </g>
    </g>
    <g id="text_7">
     <!-- $t$ -->
     <g transform="translate(228.400579 328.530451) scale(0.2 -0.2)">
      <defs>
       <path id="CMMI12-74" d="M 1286 2566 
L 1875 2566 
C 1997 2566 2061 2566 2061 2681 
C 2061 2752 2022 2752 1894 2752 
L 1331 2752 
L 1568 3692 
C 1594 3781 1594 3794 1594 3840 
C 1594 3943 1510 4000 1427 4000 
C 1376 4000 1229 3981 1178 3775 
L 928 2752 
L 326 2752 
C 198 2752 141 2752 141 2630 
C 141 2566 186 2566 307 2566 
L 877 2566 
L 454 881 
C 403 658 384 594 384 511 
C 384 211 595 -64 954 -64 
C 1600 -64 1946 868 1946 912 
C 1946 951 1920 970 1882 970 
C 1869 970 1843 970 1830 944 
C 1824 938 1818 931 1773 829 
C 1638 511 1344 64 973 64 
C 781 64 768 224 768 364 
C 768 370 768 492 787 568 
L 1286 2566 
z
" transform="scale(0.015625)"/>
      </defs>
      <use xlink:href="#CMMI12-74" transform="scale(0.996264)"/>
     </g>
    </g>
   </g>
   <g id="matplotlib.axis_2">
    <g id="ytick_1">
     <g id="line2d_7">
      <defs>
       <path id="madbaf5e92b" d="M 0 0 
L -3.5 0 
" style="stroke: #000000; stroke-width: 0.8"/>
      </defs>
      <g>
       <use xlink:href="#madbaf5e92b" x="53.363212" y="290.128711" style="stroke: #000000; stroke-width: 0.8"/>
      </g>
     </g>
     <g id="text_8">
      <!-- $\mathdefault{0.3}$ -->
      <g transform="translate(28.91263 294.971649) scale(0.14 -0.14)">
       <defs>
        <path id="CMR17-33" d="M 1414 2157 
C 1984 2157 2234 1662 2234 1090 
C 2234 320 1824 25 1453 25 
C 1114 25 563 194 390 693 
C 422 680 454 680 486 680 
C 640 680 755 782 755 948 
C 755 1133 614 1216 486 1216 
C 378 1216 211 1165 211 926 
C 211 335 787 -128 1466 -128 
C 2176 -128 2720 430 2720 1085 
C 2720 1707 2208 2157 1600 2227 
C 2086 2328 2554 2756 2554 3329 
C 2554 3820 2048 4179 1472 4179 
C 890 4179 378 3829 378 3329 
C 378 3110 544 3072 627 3072 
C 762 3072 877 3155 877 3321 
C 877 3486 762 3569 627 3569 
C 602 3569 570 3569 544 3557 
C 730 3959 1235 4032 1459 4032 
C 1683 4032 2106 3925 2106 3320 
C 2106 3143 2080 2828 1862 2550 
C 1670 2304 1453 2304 1242 2284 
C 1210 2284 1062 2269 1037 2269 
C 992 2263 966 2257 966 2208 
C 966 2163 973 2157 1101 2157 
L 1414 2157 
z
" transform="scale(0.015625)"/>
       </defs>
       <use xlink:href="#CMR17-30" transform="scale(0.996264)"/>
       <use xlink:href="#CMMI12-3a" transform="translate(45.690477 0) scale(0.996264)"/>
       <use xlink:href="#CMR17-33" transform="translate(72.787654 0) scale(0.996264)"/>
      </g>
     </g>
    </g>
    <g id="ytick_2">
     <g id="line2d_8">
      <g>
       <use xlink:href="#madbaf5e92b" x="53.363212" y="254.009813" style="stroke: #000000; stroke-width: 0.8"/>
      </g>
     </g>
     <g id="text_9">
      <!-- $\mathdefault{0.4}$ -->
      <g transform="translate(28.91263 258.852751) scale(0.14 -0.14)">
       <use xlink:href="#CMR17-30" transform="scale(0.996264)"/>
       <use xlink:href="#CMMI12-3a" transform="translate(45.690477 0) scale(0.996264)"/>
       <use xlink:href="#CMR17-34" transform="translate(72.787654 0) scale(0.996264)"/>
      </g>
     </g>
    </g>
    <g id="ytick_3">
     <g id="line2d_9">
      <g>
       <use xlink:href="#madbaf5e92b" x="53.363212" y="217.890915" style="stroke: #000000; stroke-width: 0.8"/>
      </g>
     </g>
     <g id="text_10">
      <!-- $\mathdefault{0.5}$ -->
      <g transform="translate(28.91263 222.733853) scale(0.14 -0.14)">
       <defs>
        <path id="CMR17-35" d="M 730 3692 
C 794 3666 1056 3584 1325 3584 
C 1920 3584 2246 3911 2432 4100 
C 2432 4157 2432 4192 2394 4192 
C 2387 4192 2374 4192 2323 4163 
C 2099 4058 1837 3973 1517 3973 
C 1325 3973 1037 3999 723 4139 
C 653 4171 640 4171 634 4171 
C 602 4171 595 4164 595 4037 
L 595 2203 
C 595 2089 595 2057 659 2057 
C 691 2057 704 2070 736 2114 
C 941 2401 1222 2522 1542 2522 
C 1766 2522 2246 2382 2246 1289 
C 2246 1085 2246 715 2054 421 
C 1894 159 1645 25 1370 25 
C 947 25 518 320 403 814 
C 429 807 480 795 506 795 
C 589 795 749 840 749 1038 
C 749 1210 627 1280 506 1280 
C 358 1280 262 1190 262 1011 
C 262 454 704 -128 1382 -128 
C 2042 -128 2669 440 2669 1264 
C 2669 2030 2170 2624 1549 2624 
C 1222 2624 947 2503 730 2274 
L 730 3692 
z
" transform="scale(0.015625)"/>
       </defs>
       <use xlink:href="#CMR17-30" transform="scale(0.996264)"/>
       <use xlink:href="#CMMI12-3a" transform="translate(45.690477 0) scale(0.996264)"/>
       <use xlink:href="#CMR17-35" transform="translate(72.787654 0) scale(0.996264)"/>
      </g>
     </g>
    </g>
    <g id="ytick_4">
     <g id="line2d_10">
      <g>
       <use xlink:href="#madbaf5e92b" x="53.363212" y="181.772016" style="stroke: #000000; stroke-width: 0.8"/>
      </g>
     </g>
     <g id="text_11">
      <!-- $\mathdefault{0.6}$ -->
      <g transform="translate(28.91263 186.614955) scale(0.14 -0.14)">
       <use xlink:href="#CMR17-30" transform="scale(0.996264)"/>
       <use xlink:href="#CMMI12-3a" transform="translate(45.690477 0) scale(0.996264)"/>
       <use xlink:href="#CMR17-36" transform="translate(72.787654 0) scale(0.996264)"/>
      </g>
     </g>
    </g>
    <g id="ytick_5">
     <g id="line2d_11">
      <g>
       <use xlink:href="#madbaf5e92b" x="53.363212" y="145.653118" style="stroke: #000000; stroke-width: 0.8"/>
      </g>
     </g>
     <g id="text_12">
      <!-- $\mathdefault{0.7}$ -->
      <g transform="translate(28.91263 150.496057) scale(0.14 -0.14)">
       <defs>
        <path id="CMR17-37" d="M 2886 3941 
L 2886 4081 
L 1382 4081 
C 634 4081 621 4165 595 4288 
L 480 4288 
L 294 3094 
L 410 3094 
C 429 3215 474 3540 550 3661 
C 589 3712 1062 3712 1171 3712 
L 2579 3712 
L 1869 2661 
C 1395 1954 1069 999 1069 165 
C 1069 89 1069 -128 1299 -128 
C 1530 -128 1530 89 1530 171 
L 1530 465 
C 1530 1508 1709 2196 2003 2636 
L 2886 3941 
z
" transform="scale(0.015625)"/>
       </defs>
       <use xlink:href="#CMR17-30" transform="scale(0.996264)"/>
       <use xlink:href="#CMMI12-3a" transform="translate(45.690477 0) scale(0.996264)"/>
       <use xlink:href="#CMR17-37" transform="translate(72.787654 0) scale(0.996264)"/>
      </g>
     </g>
    </g>
    <g id="ytick_6">
     <g id="line2d_12">
      <g>
       <use xlink:href="#madbaf5e92b" x="53.363212" y="109.53422" style="stroke: #000000; stroke-width: 0.8"/>
      </g>
     </g>
     <g id="text_13">
      <!-- $\mathdefault{0.8}$ -->
      <g transform="translate(28.91263 114.377159) scale(0.14 -0.14)">
       <use xlink:href="#CMR17-30" transform="scale(0.996264)"/>
       <use xlink:href="#CMMI12-3a" transform="translate(45.690477 0) scale(0.996264)"/>
       <use xlink:href="#CMR17-38" transform="translate(72.787654 0) scale(0.996264)"/>
      </g>
     </g>
    </g>
    <g id="ytick_7">
     <g id="line2d_13">
      <g>
       <use xlink:href="#madbaf5e92b" x="53.363212" y="73.415322" style="stroke: #000000; stroke-width: 0.8"/>
      </g>
     </g>
     <g id="text_14">
      <!-- $\mathdefault{0.9}$ -->
      <g transform="translate(28.91263 78.25826) scale(0.14 -0.14)">
       <defs>
        <path id="CMR17-39" d="M 2253 1864 
C 2253 464 1670 31 1190 31 
C 1043 31 685 31 538 294 
C 704 268 826 357 826 518 
C 826 692 685 749 595 749 
C 538 749 365 723 365 506 
C 365 71 742 -128 1203 -128 
C 1939 -128 2688 674 2688 2073 
C 2688 3817 1971 4179 1485 4179 
C 851 4179 243 3628 243 2778 
C 243 1991 762 1408 1414 1408 
C 1952 1408 2189 1903 2253 2112 
L 2253 1864 
z
M 1427 1510 
C 1254 1510 1011 1542 813 1922 
C 678 2169 678 2461 678 2771 
C 678 3146 678 3405 858 3684 
C 947 3817 1114 4032 1485 4032 
C 2240 4032 2240 2885 2240 2632 
C 2240 2182 2035 1510 1427 1510 
z
" transform="scale(0.015625)"/>
       </defs>
       <use xlink:href="#CMR17-30" transform="scale(0.996264)"/>
       <use xlink:href="#CMMI12-3a" transform="translate(45.690477 0) scale(0.996264)"/>
       <use xlink:href="#CMR17-39" transform="translate(72.787654 0) scale(0.996264)"/>
      </g>
     </g>
    </g>
    <g id="ytick_8">
     <g id="line2d_14">
      <g>
       <use xlink:href="#madbaf5e92b" x="53.363212" y="37.296424" style="stroke: #000000; stroke-width: 0.8"/>
      </g>
     </g>
     <g id="text_15">
      <!-- $\mathdefault{1.0}$ -->
      <g transform="translate(28.91263 42.139362) scale(0.14 -0.14)">
       <use xlink:href="#CMR17-31" transform="scale(0.996264)"/>
       <use xlink:href="#CMMI12-3a" transform="translate(45.690477 0) scale(0.996264)"/>
       <use xlink:href="#CMR17-30" transform="translate(72.787654 0) scale(0.996264)"/>
      </g>
     </g>
    </g>
    <g id="text_16">
     <!-- $y$ -->
     <g transform="translate(21.036997 162.995967) rotate(-90) scale(0.2 -0.2)">
      <defs>
       <path id="CMMI12-79" d="M 1683 -700 
C 1510 -939 1261 -1152 947 -1152 
C 870 -1152 563 -1152 467 -889 
C 486 -895 518 -895 531 -895 
C 723 -895 851 -729 851 -582 
C 851 -435 730 -384 634 -384 
C 531 -384 307 -458 307 -759 
C 307 -1071 582 -1286 947 -1286 
C 1587 -1286 2234 -700 2413 6 
L 3040 2485 
C 3046 2517 3059 2556 3059 2594 
C 3059 2689 2982 2753 2886 2753 
C 2829 2753 2694 2727 2643 2535 
L 2170 658 
C 2138 543 2138 530 2086 460 
C 1958 281 1747 64 1440 64 
C 1082 64 1050 415 1050 588 
C 1050 952 1222 1443 1395 1903 
C 1466 2088 1504 2178 1504 2305 
C 1504 2574 1312 2816 998 2816 
C 410 2816 173 1890 173 1839 
C 173 1814 198 1782 243 1782 
C 301 1782 307 1807 333 1897 
C 486 2433 730 2689 979 2689 
C 1037 2689 1146 2689 1146 2478 
C 1146 2312 1075 2127 979 1884 
C 666 1047 666 837 666 683 
C 666 77 1101 -64 1421 -64 
C 1606 -64 1837 -6 2061 230 
L 2067 224 
C 1971 -147 1907 -392 1683 -700 
z
" transform="scale(0.015625)"/>
      </defs>
      <use xlink:href="#CMMI12-79" transform="scale(0.996264)"/>
     </g>
    </g>
   </g>
   <g id="line2d_15">
    <path d="M 69.59594 37.296424 
L 77.712303 108.161419 
L 85.828667 161.353765 
L 93.945031 200.782638 
L 102.061394 229.416197 
L 110.177758 249.762386 
L 118.294122 263.582419 
L 126.410485 272.392329 
L 134.526849 277.233661 
L 142.643212 279.03929 
L 150.759576 278.428557 
L 158.87594 275.98 
L 166.992303 272.059441 
L 175.108667 267.027426 
L 183.225031 261.097853 
L 191.341394 254.496905 
L 199.457758 247.347971 
L 207.574122 239.794122 
L 215.690485 231.905171 
L 223.806849 223.772509 
L 231.923212 215.434503 
L 240.039576 206.95021 
L 248.15594 198.339753 
L 256.272303 189.641804 
L 264.388667 180.86608 
L 272.505031 172.03828 
L 280.621394 163.162333 
L 288.737758 154.255592 
L 296.854122 145.318888 
L 304.970485 136.364137 
L 313.086849 127.390618 
L 321.203212 118.406653 
L 329.319576 109.410839 
L 337.43594 100.409087 
L 345.552303 91.399783 
L 353.668667 82.387191 
L 361.785031 73.369731 
L 369.901394 64.350526 
L 378.017758 55.328144 
L 386.134122 46.304899 
L 394.250485 37.27955 
" clip-path="url(#pdef96f51ca)" style="fill: none; stroke: #ff0000; stroke-width: 1.5; stroke-linecap: square"/>
    <defs>
     <path id="mf495946719" d="M 0 3 
C 0.795609 3 1.55874 2.683901 2.12132 2.12132 
C 2.683901 1.55874 3 0.795609 3 0 
C 3 -0.795609 2.683901 -1.55874 2.12132 -2.12132 
C 1.55874 -2.683901 0.795609 -3 0 -3 
C -0.795609 -3 -1.55874 -2.683901 -2.12132 -2.12132 
C -2.683901 -1.55874 -3 -0.795609 -3 0 
C -3 0.795609 -2.683901 1.55874 -2.12132 2.12132 
C -1.55874 2.683901 -0.795609 3 0 3 
z
" style="stroke: #ff0000"/>
    </defs>
    <g clip-path="url(#pdef96f51ca)">
     <use xlink:href="#mf495946719" x="69.59594" y="37.296424" style="fill: #ff0000; stroke: #ff0000"/>
     <use xlink:href="#mf495946719" x="77.712303" y="108.161419" style="fill: #ff0000; stroke: #ff0000"/>
     <use xlink:href="#mf495946719" x="85.828667" y="161.353765" style="fill: #ff0000; stroke: #ff0000"/>
     <use xlink:href="#mf495946719" x="93.945031" y="200.782638" style="fill: #ff0000; stroke: #ff0000"/>
     <use xlink:href="#mf495946719" x="102.061394" y="229.416197" style="fill: #ff0000; stroke: #ff0000"/>
     <use xlink:href="#mf495946719" x="110.177758" y="249.762386" style="fill: #ff0000; stroke: #ff0000"/>
     <use xlink:href="#mf495946719" x="118.294122" y="263.582419" style="fill: #ff0000; stroke: #ff0000"/>
     <use xlink:href="#mf495946719" x="126.410485" y="272.392329" style="fill: #ff0000; stroke: #ff0000"/>
     <use xlink:href="#mf495946719" x="134.526849" y="277.233661" style="fill: #ff0000; stroke: #ff0000"/>
     <use xlink:href="#mf495946719" x="142.643212" y="279.03929" style="fill: #ff0000; stroke: #ff0000"/>
     <use xlink:href="#mf495946719" x="150.759576" y="278.428557" style="fill: #ff0000; stroke: #ff0000"/>
     <use xlink:href="#mf495946719" x="158.87594" y="275.98" style="fill: #ff0000; stroke: #ff0000"/>
     <use xlink:href="#mf495946719" x="166.992303" y="272.059441" style="fill: #ff0000; stroke: #ff0000"/>
     <use xlink:href="#mf495946719" x="175.108667" y="267.027426" style="fill: #ff0000; stroke: #ff0000"/>
     <use xlink:href="#mf495946719" x="183.225031" y="261.097853" style="fill: #ff0000; stroke: #ff0000"/>
     <use xlink:href="#mf495946719" x="191.341394" y="254.496905" style="fill: #ff0000; stroke: #ff0000"/>
     <use xlink:href="#mf495946719" x="199.457758" y="247.347971" style="fill: #ff0000; stroke: #ff0000"/>
     <use xlink:href="#mf495946719" x="207.574122" y="239.794122" style="fill: #ff0000; stroke: #ff0000"/>
     <use xlink:href="#mf495946719" x="215.690485" y="231.905171" style="fill: #ff0000; stroke: #ff0000"/>
     <use xlink:href="#mf495946719" x="223.806849" y="223.772509" style="fill: #ff0000; stroke: #ff0000"/>
     <use xlink:href="#mf495946719" x="231.923212" y="215.434503" style="fill: #ff0000; stroke: #ff0000"/>
     <use xlink:href="#mf495946719" x="240.039576" y="206.95021" style="fill: #ff0000; stroke: #ff0000"/>
     <use xlink:href="#mf495946719" x="248.15594" y="198.339753" style="fill: #ff0000; stroke: #ff0000"/>
     <use xlink:href="#mf495946719" x="256.272303" y="189.641804" style="fill: #ff0000; stroke: #ff0000"/>
     <use xlink:href="#mf495946719" x="264.388667" y="180.86608" style="fill: #ff0000; stroke: #ff0000"/>
     <use xlink:href="#mf495946719" x="272.505031" y="172.03828" style="fill: #ff0000; stroke: #ff0000"/>
     <use xlink:href="#mf495946719" x="280.621394" y="163.162333" style="fill: #ff0000; stroke: #ff0000"/>
     <use xlink:href="#mf495946719" x="288.737758" y="154.255592" style="fill: #ff0000; stroke: #ff0000"/>
     <use xlink:href="#mf495946719" x="296.854122" y="145.318888" style="fill: #ff0000; stroke: #ff0000"/>
     <use xlink:href="#mf495946719" x="304.970485" y="136.364137" style="fill: #ff0000; stroke: #ff0000"/>
     <use xlink:href="#mf495946719" x="313.086849" y="127.390618" style="fill: #ff0000; stroke: #ff0000"/>
     <use xlink:href="#mf495946719" x="321.203212" y="118.406653" style="fill: #ff0000; stroke: #ff0000"/>
     <use xlink:href="#mf495946719" x="329.319576" y="109.410839" style="fill: #ff0000; stroke: #ff0000"/>
     <use xlink:href="#mf495946719" x="337.43594" y="100.409087" style="fill: #ff0000; stroke: #ff0000"/>
     <use xlink:href="#mf495946719" x="345.552303" y="91.399783" style="fill: #ff0000; stroke: #ff0000"/>
     <use xlink:href="#mf495946719" x="353.668667" y="82.387191" style="fill: #ff0000; stroke: #ff0000"/>
     <use xlink:href="#mf495946719" x="361.785031" y="73.369731" style="fill: #ff0000; stroke: #ff0000"/>
     <use xlink:href="#mf495946719" x="369.901394" y="64.350526" style="fill: #ff0000; stroke: #ff0000"/>
     <use xlink:href="#mf495946719" x="378.017758" y="55.328144" style="fill: #ff0000; stroke: #ff0000"/>
     <use xlink:href="#mf495946719" x="386.134122" y="46.304899" style="fill: #ff0000; stroke: #ff0000"/>
     <use xlink:href="#mf495946719" x="394.250485" y="37.27955" style="fill: #ff0000; stroke: #ff0000"/>
    </g>
   </g>
   <g id="line2d_16">
    <path d="M 69.59594 37.296424 
L 72.842485 68.05621 
L 76.089031 95.545099 
L 79.335576 120.074357 
L 82.582122 141.925631 
L 85.828667 161.353765 
L 89.075212 178.589351 
L 92.321758 193.841037 
L 95.568303 207.297616 
L 98.814849 219.129916 
L 102.061394 229.492506 
L 105.30794 238.52525 
L 108.554485 246.354697 
L 111.801031 253.095357 
L 115.047576 258.850842 
L 118.294122 263.714903 
L 121.540667 267.772371 
L 124.787212 271.100002 
L 128.033758 273.767252 
L 131.280303 275.836962 
L 134.526849 277.365996 
L 137.773394 278.405807 
L 141.01994 279.002949 
L 144.266485 279.19955 
L 147.513031 279.033725 
L 150.759576 278.539963 
L 154.006122 277.749472 
L 157.252667 276.69049 
L 160.499212 275.388566 
L 163.745758 273.86682 
L 166.992303 272.14617 
L 170.238849 270.245545 
L 173.485394 268.182072 
L 176.73194 265.971248 
L 179.978485 263.627094 
L 183.225031 261.1623 
L 186.471576 258.588344 
L 189.718122 255.915617 
L 192.964667 253.153516 
L 196.211212 250.310547 
L 199.457758 247.394406 
L 202.704303 244.412055 
L 205.950849 241.369796 
L 209.197394 238.273329 
L 212.44394 235.127814 
L 215.690485 231.937916 
L 218.937031 228.707862 
L 222.183576 225.44147 
L 225.430122 222.1422 
L 228.676667 218.813181 
L 231.923212 215.457242 
L 235.169758 212.076947 
L 238.416303 208.674613 
L 241.662849 205.252336 
L 244.909394 201.812016 
L 248.15594 198.355369 
L 251.402485 194.883948 
L 254.649031 191.39916 
L 257.895576 187.902277 
L 261.142122 184.394449 
L 264.388667 180.876719 
L 267.635212 177.350028 
L 270.881758 173.815229 
L 274.128303 170.273094 
L 277.374849 166.724321 
L 280.621394 163.169542 
L 283.86794 159.609328 
L 287.114485 156.044196 
L 290.361031 152.474615 
L 293.607576 148.901007 
L 296.854122 145.323757 
L 300.100667 141.74321 
L 303.347212 138.15968 
L 306.593758 134.573452 
L 309.840303 130.984781 
L 313.086849 127.393901 
L 316.333394 123.801022 
L 319.57994 120.206334 
L 322.826485 116.610008 
L 326.073031 113.012202 
L 329.319576 109.413055 
L 332.566122 105.812696 
L 335.812667 102.211239 
L 339.059212 98.608789 
L 342.305758 95.005441 
L 345.552303 91.401281 
L 348.798849 87.796384 
L 352.045394 84.190823 
L 355.29194 80.584659 
L 358.538485 76.97795 
L 361.785031 73.370748 
L 365.031576 69.7631 
L 368.278122 66.155048 
L 371.524667 62.546631 
L 374.771212 58.937884 
L 378.017758 55.328838 
L 381.264303 51.71952 
L 384.510849 48.109959 
L 387.757394 44.500175 
L 391.00394 40.890191 
L 394.250485 37.280026 
" clip-path="url(#pdef96f51ca)" style="fill: none; stroke: #0000ff; stroke-width: 1.5; stroke-linecap: square"/>
   </g>
   <g id="patch_3">
    <path d="M 53.363212 291.29555 
L 53.363212 25.18355 
" style="fill: none; stroke: #000000; stroke-width: 0.8; stroke-linejoin: miter; stroke-linecap: square"/>
   </g>
   <g id="patch_4">
    <path d="M 410.483212 291.29555 
L 410.483212 25.18355 
" style="fill: none; stroke: #000000; stroke-width: 0.8; stroke-linejoin: miter; stroke-linecap: square"/>
   </g>
   <g id="patch_5">
    <path d="M 53.363212 291.29555 
L 410.483212 291.29555 
" style="fill: none; stroke: #000000; stroke-width: 0.8; stroke-linejoin: miter; stroke-linecap: square"/>
   </g>
   <g id="patch_6">
    <path d="M 53.363212 25.18355 
L 410.483212 25.18355 
" style="fill: none; stroke: #000000; stroke-width: 0.8; stroke-linejoin: miter; stroke-linecap: square"/>
   </g>
   <g id="text_17">
    <!-- Solution to $y'=-10y+t+1, y(0)=1, h=0.025$ -->
    <g transform="translate(64.733896 19.18355) scale(0.16 -0.16)">
     <defs>
      <path id="CMSS17-53" d="M 2797 4169 
C 2515 4334 2208 4480 1690 4480 
C 864 4480 333 3879 333 3266 
C 333 3025 403 2753 653 2475 
C 902 2196 1184 2121 1542 2033 
C 1690 1994 1939 1924 1984 1906 
C 2342 1767 2515 1444 2515 1140 
C 2515 742 2202 318 1645 318 
C 1453 318 890 318 358 819 
L 269 318 
C 794 -64 1363 -128 1651 -128 
C 2438 -128 3002 488 3002 1186 
C 3002 1440 2925 1763 2656 2061 
C 2394 2347 2163 2410 1638 2549 
C 1338 2626 1146 2677 986 2873 
C 877 3013 819 3146 819 3317 
C 819 3673 1126 4060 1690 4060 
C 1971 4060 2336 4002 2707 3660 
L 2797 4169 
z
" transform="scale(0.015625)"/>
      <path id="CMSS17-6f" d="M 2829 1356 
C 2829 2176 2221 2816 1504 2816 
C 768 2816 173 2157 173 1356 
C 173 544 787 -64 1498 -64 
C 2227 -64 2829 563 2829 1356 
z
M 1504 337 
C 1050 337 659 709 659 1408 
C 659 2151 1114 2427 1498 2427 
C 1914 2427 2342 2126 2342 1408 
C 2342 683 1926 337 1504 337 
z
" transform="scale(0.015625)"/>
      <path id="CMSS17-6c" d="M 947 4416 
L 474 4416 
L 474 0 
L 947 0 
L 947 4416 
z
" transform="scale(0.015625)"/>
      <path id="CMSS17-75" d="M 2618 2739 
L 2131 2739 
L 2131 972 
C 2131 498 1786 306 1421 306 
C 998 306 960 447 960 709 
L 960 2739 
L 474 2739 
L 474 678 
C 474 179 646 -64 1088 -64 
C 1306 -64 1798 -13 2144 306 
L 2144 0 
L 2618 0 
L 2618 2739 
z
" transform="scale(0.015625)"/>
      <path id="CMSS17-74" d="M 1069 2368 
L 1901 2368 
L 1901 2737 
L 1069 2737 
L 1069 3520 
L 614 3520 
L 614 2737 
L 109 2737 
L 109 2368 
L 602 2368 
L 602 749 
C 602 384 685 -64 1107 -64 
C 1427 -64 1722 25 2003 172 
L 1901 548 
C 1747 414 1562 337 1363 337 
C 1082 337 1069 696 1069 856 
L 1069 2368 
z
" transform="scale(0.015625)"/>
      <path id="CMSS17-69" d="M 979 4183 
L 442 4183 
L 442 3648 
L 979 3648 
L 979 4183 
z
M 947 2739 
L 474 2739 
L 474 0 
L 947 0 
L 947 2739 
z
" transform="scale(0.015625)"/>
      <path id="CMSS17-6e" d="M 2618 1877 
C 2618 2283 2522 2816 1798 2816 
C 1389 2816 1120 2606 941 2389 
L 941 2758 
L 474 2758 
L 474 0 
L 960 0 
L 960 1559 
C 960 1964 1114 2428 1549 2428 
C 2112 2428 2131 2048 2131 1829 
L 2131 0 
L 2618 0 
L 2618 1877 
z
" transform="scale(0.015625)"/>
      <path id="CMSY10-30" d="M 1619 3040 
C 1651 3117 1677 3174 1677 3238 
C 1677 3424 1510 3578 1312 3578 
C 1133 3578 1018 3456 973 3290 
L 211 493 
C 211 480 186 410 186 403 
C 186 333 352 288 403 288 
C 442 288 448 307 486 390 
L 1619 3040 
z
" transform="scale(0.015625)"/>
      <path id="CMR17-3d" d="M 4115 2017 
C 4211 2017 4307 2017 4307 2125 
C 4307 2240 4198 2240 4090 2240 
L 512 2240 
C 403 2240 294 2240 294 2125 
C 294 2017 390 2017 486 2017 
L 4115 2017 
z
M 4090 896 
C 4198 896 4307 896 4307 1011 
C 4307 1119 4211 1119 4115 1119 
L 486 1119 
C 390 1119 294 1119 294 1011 
C 294 896 403 896 512 896 
L 4090 896 
z
" transform="scale(0.015625)"/>
      <path id="CMSY10-0" d="M 4218 1472 
C 4326 1472 4442 1472 4442 1600 
C 4442 1728 4326 1728 4218 1728 
L 755 1728 
C 646 1728 531 1728 531 1600 
C 531 1472 646 1472 755 1472 
L 4218 1472 
z
" transform="scale(0.015625)"/>
      <path id="CMR17-2b" d="M 2413 1472 
L 4109 1472 
C 4198 1472 4307 1472 4307 1580 
C 4307 1695 4205 1695 4109 1695 
L 2413 1695 
L 2413 3386 
C 2413 3475 2413 3584 2304 3584 
C 2189 3584 2189 3482 2189 3386 
L 2189 1695 
L 493 1695 
C 403 1695 294 1695 294 1587 
C 294 1472 397 1472 493 1472 
L 2189 1472 
L 2189 -218 
C 2189 -307 2189 -416 2298 -416 
C 2413 -416 2413 -314 2413 -218 
L 2413 1472 
z
" transform="scale(0.015625)"/>
      <path id="CMMI12-3b" d="M 1248 -31 
C 1248 343 1126 619 864 619 
C 659 619 557 453 557 313 
C 557 172 653 0 870 0 
C 954 0 1024 26 1082 83 
C 1094 96 1101 96 1107 96 
C 1120 96 1120 5 1120 -27 
C 1120 -240 1082 -659 710 -1080 
C 640 -1157 640 -1170 640 -1183 
C 640 -1216 672 -1248 704 -1248 
C 755 -1248 1248 -771 1248 -31 
z
" transform="scale(0.015625)"/>
      <path id="CMR17-28" d="M 1958 -1561 
C 1958 -1555 1958 -1542 1939 -1523 
C 1645 -1224 858 -407 858 1581 
C 858 3569 1632 4379 1946 4697 
C 1946 4704 1958 4717 1958 4736 
C 1958 4755 1939 4768 1914 4768 
C 1843 4768 1299 4296 986 3594 
C 666 2887 576 2199 576 1588 
C 576 1128 621 351 1005 -471 
C 1312 -1135 1837 -1600 1914 -1600 
C 1946 -1600 1958 -1587 1958 -1561 
z
" transform="scale(0.015625)"/>
      <path id="CMR17-29" d="M 1683 1581 
C 1683 2040 1638 2817 1254 3639 
C 947 4303 422 4768 346 4768 
C 326 4768 301 4761 301 4729 
C 301 4717 307 4710 314 4697 
C 621 4378 1402 3568 1402 1584 
C 1402 -407 627 -1217 314 -1537 
C 307 -1549 301 -1556 301 -1568 
C 301 -1600 326 -1600 346 -1600 
C 416 -1600 960 -1128 1274 -426 
C 1594 281 1683 969 1683 1581 
z
" transform="scale(0.015625)"/>
      <path id="CMMI12-68" d="M 1798 4257 
C 1805 4283 1818 4321 1818 4352 
C 1818 4416 1754 4416 1741 4416 
C 1734 4416 1421 4388 1389 4380 
C 1280 4373 1184 4358 1069 4358 
C 909 4345 864 4339 864 4224 
C 864 4160 915 4160 1005 4160 
C 1318 4160 1325 4103 1325 4040 
C 1325 4002 1312 3951 1306 3932 
L 378 248 
C 352 152 352 140 352 101 
C 352 -38 461 -64 525 -64 
C 634 -64 717 19 749 89 
L 1037 1245 
C 1069 1386 1107 1520 1139 1660 
C 1210 1929 1210 1935 1331 2120 
C 1453 2305 1741 2689 2234 2689 
C 2490 2689 2579 2497 2579 2242 
C 2579 1884 2330 1188 2189 805 
C 2131 651 2099 568 2099 453 
C 2099 166 2298 -64 2605 -64 
C 3200 -64 3424 875 3424 913 
C 3424 945 3398 971 3360 971 
C 3302 971 3296 952 3264 843 
C 3117 332 2880 64 2624 64 
C 2560 64 2458 64 2458 269 
C 2458 436 2534 640 2560 710 
C 2675 1018 2963 1773 2963 2145 
C 2963 2528 2739 2816 2253 2816 
C 1888 2816 1568 2644 1306 2312 
L 1798 4257 
z
" transform="scale(0.015625)"/>
     </defs>
     <use xlink:href="#CMSS17-53" transform="scale(0.996264)"/>
     <use xlink:href="#CMSS17-6f" transform="translate(52.048516 0) scale(0.996264)"/>
     <use xlink:href="#CMSS17-6c" transform="translate(98.89214 0) scale(0.996264)"/>
     <use xlink:href="#CMSS17-75" transform="translate(121.072863 0) scale(0.996264)"/>
     <use xlink:href="#CMSS17-74" transform="translate(169.277806 0) scale(0.996264)"/>
     <use xlink:href="#CMSS17-69" transform="translate(203.109373 0) scale(0.996264)"/>
     <use xlink:href="#CMSS17-6f" transform="translate(225.290096 0) scale(0.996264)"/>
     <use xlink:href="#CMSS17-6e" transform="translate(272.133719 0) scale(0.996264)"/>
     <use xlink:href="#CMSS17-74" transform="translate(351.567775 0) scale(0.996264)"/>
     <use xlink:href="#CMSS17-6f" transform="translate(385.399342 0) scale(0.996264)"/>
     <use xlink:href="#CMMI12-79" transform="translate(463.472078 0) scale(0.996264)"/>
     <use xlink:href="#CMSY10-30" transform="translate(514.610859 36.153639) scale(0.697382)"/>
     <use xlink:href="#CMR17-3d" transform="translate(561.96096 0) scale(0.996264)"/>
     <use xlink:href="#CMSY10-0" transform="translate(661.349757 0) scale(0.996264)"/>
     <use xlink:href="#CMR17-31" transform="translate(738.837225 0) scale(0.996264)"/>
     <use xlink:href="#CMR17-30" transform="translate(784.527702 0) scale(0.996264)"/>
     <use xlink:href="#CMMI12-79" transform="translate(830.218179 0) scale(0.996264)"/>
     <use xlink:href="#CMR17-2b" transform="translate(903.496167 0) scale(0.996264)"/>
     <use xlink:href="#CMMI12-74" transform="translate(997.350162 0) scale(0.996264)"/>
     <use xlink:href="#CMR17-2b" transform="translate(1054.715699 0) scale(0.996264)"/>
     <use xlink:href="#CMR17-31" transform="translate(1148.569695 0) scale(0.996264)"/>
     <use xlink:href="#CMMI12-3b" transform="translate(1194.260172 0) scale(0.996264)"/>
     <use xlink:href="#CMMI12-79" transform="translate(1237.961754 0) scale(0.996264)"/>
     <use xlink:href="#CMR17-28" transform="translate(1289.100535 0) scale(0.996264)"/>
     <use xlink:href="#CMR17-30" transform="translate(1324.381303 0) scale(0.996264)"/>
     <use xlink:href="#CMR17-29" transform="translate(1370.07178 0) scale(0.996264)"/>
     <use xlink:href="#CMR17-3d" transform="translate(1433.026556 0) scale(0.996264)"/>
     <use xlink:href="#CMR17-31" transform="translate(1532.415353 0) scale(0.996264)"/>
     <use xlink:href="#CMMI12-3b" transform="translate(1578.105831 0) scale(0.996264)"/>
     <use xlink:href="#CMMI12-68" transform="translate(1621.807413 0) scale(0.996264)"/>
     <use xlink:href="#CMR17-3d" transform="translate(1705.636046 0) scale(0.996264)"/>
     <use xlink:href="#CMR17-30" transform="translate(1805.024843 0) scale(0.996264)"/>
     <use xlink:href="#CMMI12-3a" transform="translate(1850.71532 0) scale(0.996264)"/>
     <use xlink:href="#CMR17-30" transform="translate(1877.812497 0) scale(0.996264)"/>
     <use xlink:href="#CMR17-32" transform="translate(1923.502974 0) scale(0.996264)"/>
     <use xlink:href="#CMR17-35" transform="translate(1969.193451 0) scale(0.996264)"/>
    </g>
   </g>
   <g id="legend_1">
    <g id="patch_7">
     <path d="M 182.245628 75.407607 
L 281.600797 75.407607 
Q 284.400797 75.407607 284.400797 72.607607 
L 284.400797 34.98355 
Q 284.400797 32.18355 281.600797 32.18355 
L 182.245628 32.18355 
Q 179.445628 32.18355 179.445628 34.98355 
L 179.445628 72.607607 
Q 179.445628 75.407607 182.245628 75.407607 
z
" style="fill: #ffffff; opacity: 0.8; stroke: #cccccc; stroke-linejoin: miter"/>
    </g>
    <g id="line2d_17">
     <path d="M 185.045628 42.68355 
L 199.045628 42.68355 
L 213.045628 42.68355 
" style="fill: none; stroke: #ff0000; stroke-width: 1.5; stroke-linecap: square"/>
     <g>
      <use xlink:href="#mf495946719" x="199.045628" y="42.68355" style="fill: #ff0000; stroke: #ff0000"/>
     </g>
    </g>
    <g id="text_18">
     <!-- numerical -->
     <g transform="translate(224.245628 47.58355) scale(0.14 -0.14)">
      <defs>
       <path id="CMSS17-6d" d="M 4288 1877 
C 4288 2308 4179 2816 3462 2816 
C 2982 2816 2694 2516 2566 2331 
C 2451 2670 2182 2816 1798 2816 
C 1363 2816 1088 2568 941 2389 
L 941 2758 
L 474 2758 
L 474 0 
L 960 0 
L 960 1559 
C 960 1939 1101 2428 1555 2428 
C 2138 2428 2138 2016 2138 1829 
L 2138 0 
L 2624 0 
L 2624 1559 
C 2624 1939 2765 2428 3219 2428 
C 3802 2428 3802 2016 3802 1829 
L 3802 0 
L 4288 0 
L 4288 1877 
z
" transform="scale(0.015625)"/>
       <path id="CMSS17-65" d="M 2502 1377 
C 2502 1590 2490 2003 2285 2345 
C 2061 2713 1696 2816 1421 2816 
C 755 2816 192 2188 192 1375 
C 192 582 774 -64 1510 -64 
C 1798 -64 2150 19 2470 248 
C 2470 274 2458 414 2451 420 
C 2451 433 2432 630 2432 656 
C 2125 407 1773 325 1517 325 
C 1107 325 666 667 646 1377 
L 2502 1377 
z
M 698 1728 
C 781 2084 1062 2421 1421 2421 
C 1517 2421 1965 2421 2080 1728 
L 698 1728 
z
" transform="scale(0.015625)"/>
       <path id="CMSS17-72" d="M 954 1363 
C 954 1965 1395 2368 1958 2368 
L 1958 2789 
C 1549 2789 1165 2585 934 2253 
L 934 2758 
L 480 2758 
L 480 0 
L 954 0 
L 954 1363 
z
" transform="scale(0.015625)"/>
       <path id="CMSS17-63" d="M 2464 2541 
C 2464 2585 2170 2714 2093 2739 
C 1882 2816 1613 2816 1542 2816 
C 710 2816 211 2093 211 1363 
C 211 595 768 -64 1517 -64 
C 1946 -64 2253 76 2502 242 
L 2464 664 
C 2189 453 1869 337 1523 337 
C 1024 337 698 774 698 1369 
C 698 1831 909 2414 1549 2414 
C 1901 2414 2099 2343 2394 2145 
L 2464 2541 
z
" transform="scale(0.015625)"/>
       <path id="CMSS17-61" d="M 2406 1791 
C 2406 2392 1978 2808 1402 2808 
C 1120 2808 813 2757 461 2553 
L 499 2135 
C 659 2248 934 2432 1395 2432 
C 1722 2432 1920 2180 1920 1782 
L 1920 1536 
C 896 1536 256 1238 256 726 
C 256 461 416 -64 947 -64 
C 1043 -64 1562 -64 1933 217 
L 1933 -19 
L 2406 -19 
L 2406 1791 
z
M 1920 816 
C 1920 701 1920 548 1728 434 
C 1562 325 1350 325 1261 325 
C 941 325 723 511 723 744 
C 723 1211 1722 1211 1920 1211 
L 1920 816 
z
" transform="scale(0.015625)"/>
      </defs>
      <use xlink:href="#CMSS17-6e" transform="scale(0.996264)"/>
      <use xlink:href="#CMSS17-75" transform="translate(48.204943 0) scale(0.996264)"/>
      <use xlink:href="#CMSS17-6d" transform="translate(96.409886 0) scale(0.996264)"/>
      <use xlink:href="#CMSS17-65" transform="translate(170.639141 0) scale(0.996264)"/>
      <use xlink:href="#CMSS17-72" transform="translate(212.277963 0) scale(0.996264)"/>
      <use xlink:href="#CMSS17-69" transform="translate(244.187735 0) scale(0.996264)"/>
      <use xlink:href="#CMSS17-63" transform="translate(266.368458 0) scale(0.996264)"/>
      <use xlink:href="#CMSS17-61" transform="translate(308.00728 0) scale(0.996264)"/>
      <use xlink:href="#CMSS17-6c" transform="translate(352.929201 0) scale(0.996264)"/>
     </g>
    </g>
    <g id="line2d_18">
     <path d="M 185.045628 62.195578 
L 199.045628 62.195578 
L 213.045628 62.195578 
" style="fill: none; stroke: #0000ff; stroke-width: 1.5; stroke-linecap: square"/>
    </g>
    <g id="text_19">
     <!-- exact -->
     <g transform="translate(224.245628 67.095578) scale(0.14 -0.14)">
      <defs>
       <path id="CMSS17-78" d="M 1587 1414 
L 2656 2739 
L 2099 2739 
L 1363 1777 
L 602 2739 
L 32 2739 
L 1139 1414 
L 0 0 
L 563 0 
L 1363 1121 
L 2195 0 
L 2758 0 
L 1587 1414 
z
" transform="scale(0.015625)"/>
      </defs>
      <use xlink:href="#CMSS17-65" transform="scale(0.996264)"/>
      <use xlink:href="#CMSS17-78" transform="translate(41.638822 0) scale(0.996264)"/>
      <use xlink:href="#CMSS17-61" transform="translate(84.638964 0) scale(0.996264)"/>
      <use xlink:href="#CMSS17-63" transform="translate(129.560884 0) scale(0.996264)"/>
      <use xlink:href="#CMSS17-74" transform="translate(171.199706 0) scale(0.996264)"/>
     </g>
    </g>
   </g>
  </g>
 </g>
 <defs>
  <clipPath id="pdef96f51ca">
   <rect x="53.363212" y="25.18355" width="357.12" height="266.112"/>
  </clipPath>
 </defs>
</svg>