<?xml version="1.0" encoding="UTF-8" standalone="no"?>
<svg
   xmlns:dc="http://purl.org/dc/elements/1.1/"
   xmlns:cc="http://creativecommons.org/ns#"
   xmlns:rdf="http://www.w3.org/1999/02/22-rdf-syntax-ns#"
   xmlns:svg="http://www.w3.org/2000/svg"
   xmlns="http://www.w3.org/2000/svg"
   viewBox="0 0 293.00934 223.26801"
   height="223.26801"
   width="293.00934"
   xml:space="preserve"
   id="svg2"
   version="1.1"><metadata
     id="metadata8"><rdf:RDF><cc:Work
         rdf:about=""><dc:format>image/svg+xml</dc:format><dc:type
           rdf:resource="http://purl.org/dc/dcmitype/StillImage" /></cc:Work></rdf:RDF></metadata><defs
     id="defs6" /><g
     transform="matrix(1.3333333,0,0,-1.3333333,0,223.268)"
     id="g10"><g
       transform="translate(29.98,31.487)"
       id="g12"><g
         id="g14"><g
           id="g16"><path
             id="path18"
             style="fill:none;stroke:#000000;stroke-width:0.3985;stroke-linecap:butt;stroke-linejoin:miter;stroke-miterlimit:10;stroke-dasharray:none;stroke-opacity:1"
             d="M 0,0 V 44.78789 M -15.71558,47.6198 V 65.76741 M 0,68.59933 v 44.78791 0 m 0,0 v 0 h 69.16623 m 31.74838,0 h 69.16625 V 68.59933 m 0,-23.81144 V 0 H 89.0089 M 81.07195,0 H 0 v 0 m 0,0 v 0" /><g
             id="g20" /><g
             id="g22" /><g
             id="g24"><g
               id="g26"><path
                 id="path28"
                 style="fill:none;stroke:#000000;stroke-width:0.79699999;stroke-linecap:butt;stroke-linejoin:miter;stroke-miterlimit:10;stroke-dasharray:none;stroke-opacity:1"
                 d="m -11.90572,56.69362 c 0,-6.57542 5.33031,-11.90573 11.90572,-11.90573 6.57541,0 11.90572,5.33031 11.90572,11.90573 0,6.57541 -5.33031,11.90571 -11.90572,11.90571 -6.57541,0 -11.90572,-5.3303 -11.90572,-11.90571 z" /><path
                 id="path30"
                 style="fill:none;stroke:#000000;stroke-width:0.79699999;stroke-linecap:butt;stroke-linejoin:miter;stroke-miterlimit:10;stroke-dasharray:none;stroke-opacity:1"
                 d="M 0,44.78789 V 68.59933" /></g><g
               transform="rotate(90,-28.3465,28.3465)"
               id="g32"><g
                 id="g34" /><g
                 transform="translate(0,-56.693)"
                 id="g36" /></g></g><g
             id="g38" /><g
             id="g40" /><g
             id="g42" /><g
             id="g44" /><g
             id="g46" /><g
             id="g48" /><g
             id="g50" /><g
             id="g52" /><g
             id="g54"><g
               id="g56"><path
                 id="path58"
                 style="fill:#000000;fill-opacity:1;fill-rule:nonzero;stroke:#000000;stroke-width:0.3985;stroke-linecap:butt;stroke-linejoin:miter;stroke-miterlimit:10;stroke-dasharray:none;stroke-opacity:1"
                 d="m -15.71558,61.55087 h 1.98426 l -1.98426,4.21654 -1.98425,-4.21654 z" /></g><g
               transform="rotate(90,-39.501,23.785)"
               id="g60"><g
                 id="g62" /><g
                 transform="translate(15.716,-63.286)"
                 id="g64" /></g></g><g
             id="g66" /><g
             id="g68" /><g
             id="g70" /><g
             id="g72"><g
               transform="translate(-27.987,52.846)"
               id="g74"><g
                 id="g76"><g
                   transform="translate(-1.993,-84.333)"
                   id="g78"><text
                     id="text82"
                     style="font-style:italic;font-variant:normal;font-size:10.99870014px;font-family:Utopia;-inkscape-font-specification:Utopia-Italic;writing-mode:lr-tb;fill:#000000;fill-opacity:1;fill-rule:nonzero;stroke:none"
                     transform="matrix(1,0,0,-1,1.993,84.333)"><tspan
                       id="tspan80"
                       y="0"
                       x="0">E</tspan></text>
<g
                     transform="translate(1.993,84.333)"
                     id="g84" /></g></g><g
                 transform="translate(27.987,-52.846)"
                 id="g86" /></g></g><g
             id="g88" /><g
             id="g90" /><g
             id="g92"><g
               id="g94" /><g
               transform="rotate(90,-56.693,56.693)"
               id="g96"><g
                 id="g98" /><g
                 transform="translate(0,-113.386)"
                 id="g100" /></g></g><g
             id="g102" /><g
             id="g104" /><g
             id="g106" /><g
             id="g108" /><g
             id="g110"><g
               id="g112"><path
                 id="path114"
                 style="fill:none;stroke:#000000;stroke-width:0.79699999;stroke-linecap:butt;stroke-linejoin:bevel;stroke-miterlimit:10;stroke-dasharray:none;stroke-opacity:1"
                 d="m 68.76772,113.38724 3.0442,5.95285 5.29138,-11.9057 5.29138,11.9057 5.29139,-11.9057 5.29138,11.9057 5.29138,-11.9057 3.0442,5.95285" /></g><g
               transform="translate(85.039,113.386)"
               id="g116"><g
                 id="g118" /><g
                 transform="translate(-85.039,-113.386)"
                 id="g120" /></g></g><g
             id="g122" /><g
             id="g124" /><g
             id="g126" /><g
             id="g128" /><g
             id="g130"><g
               transform="translate(81.088,123.879)"
               id="g132"><g
                 id="g134"><g
                   transform="translate(-111.068,-155.366)"
                   id="g136"><text
                     id="text140"
                     style="font-style:italic;font-variant:normal;font-size:10.99870014px;font-family:Utopia;-inkscape-font-specification:Utopia-Italic;writing-mode:lr-tb;fill:#000000;fill-opacity:1;fill-rule:nonzero;stroke:none"
                     transform="matrix(1,0,0,-1,111.068,155.366)"><tspan
                       id="tspan138"
                       y="0"
                       x="0">R</tspan></text>
<g
                     transform="translate(111.068,155.366)"
                     id="g142" /></g></g><g
                 transform="translate(-81.088,-123.879)"
                 id="g144" /></g></g><g
             id="g146" /><g
             id="g148" /><g
             id="g150"><g
               id="g152"><path
                 id="path154"
                 style="fill:none;stroke:#000000;stroke-width:0.79699999;stroke-linecap:butt;stroke-linejoin:bevel;stroke-miterlimit:10;stroke-dasharray:none;stroke-opacity:1"
                 d="m 169.92146,68.99783 c 3.28771,0 5.95285,-1.63475 5.95285,-3.65135 0,-2.0166 -2.66514,-3.65134 -5.95285,-3.65134 -1.64376,0 -2.97627,0.66625 -2.97627,1.48813 0,0.82189 1.33251,1.48815 2.97627,1.48815 3.28771,0 5.95285,-1.63475 5.95285,-3.65135 0,-2.01661 -2.66514,-3.65136 -5.95285,-3.65136 -1.64376,0 -2.97627,0.66626 -2.97627,1.48815 0,0.82187 1.33251,1.48813 2.97627,1.48813 3.28771,0 5.95285,-1.63474 5.95285,-3.65134 0,-2.01662 -2.66514,-3.65135 -5.95285,-3.65135 -1.64376,0 -2.97627,0.66626 -2.97627,1.48813 0,0.82188 1.33251,1.48814 2.97627,1.48814 3.28771,0 5.95285,-1.63475 5.95285,-3.65135 0,-2.0166 -2.66514,-3.65135 -5.95285,-3.65135 -1.64376,0 -2.97627,0.66626 -2.97627,1.48814 0,0.82189 1.33251,1.48813 2.97627,1.48813 3.28771,0 5.95285,-1.63474 5.95285,-3.65134 0,-2.0166 -2.66514,-3.65135 -5.95285,-3.65135" /></g><g
               transform="rotate(-90,113.386,-56.693)"
               id="g156"><g
                 id="g158" /><g
                 transform="translate(-170.079,-56.693)"
                 id="g160" /></g></g><g
             id="g162" /><g
             id="g164" /><g
             id="g166" /><g
             id="g168"><g
               transform="translate(178.599,54.063)"
               id="g170"><g
                 id="g172"><g
                   transform="translate(-208.579,-85.55)"
                   id="g174"><text
                     id="text178"
                     style="font-style:italic;font-variant:normal;font-size:10.99870014px;font-family:Utopia;-inkscape-font-specification:Utopia-Italic;writing-mode:lr-tb;fill:#000000;fill-opacity:1;fill-rule:nonzero;stroke:none"
                     transform="matrix(1,0,0,-1,208.579,85.55)"><tspan
                       id="tspan176"
                       y="0"
                       x="0">L</tspan></text>
<g
                     transform="translate(208.579,85.55)"
                     id="g180" /></g></g><g
                 transform="translate(-178.599,-54.063)"
                 id="g182" /></g></g><g
             id="g184" /><g
             id="g186" /><g
             id="g188"><g
               id="g190"><g
                 id="g192" /><path
                 id="path194"
                 style="fill:none;stroke:#000000;stroke-width:0.79699999;stroke-linecap:butt;stroke-linejoin:miter;stroke-miterlimit:10;stroke-dasharray:none;stroke-opacity:1"
                 d="M 89.0089,-11.90572 V 11.90572 M 81.07195,-11.90572 V 11.90572" /></g><g
               transform="rotate(180,42.5195,0)"
               id="g196"><g
                 id="g198" /><g
                 transform="translate(-85.039)"
                 id="g200" /></g></g><g
             id="g202" /><g
             id="g204" /><g
             id="g206" /><g
             id="g208"><g
               transform="translate(80.945,-25.181)"
               id="g210"><g
                 id="g212"><g
                   transform="translate(-110.925,-6.306)"
                   id="g214"><text
                     id="text218"
                     style="font-style:italic;font-variant:normal;font-size:10.99870014px;font-family:Utopia;-inkscape-font-specification:Utopia-Italic;writing-mode:lr-tb;fill:#000000;fill-opacity:1;fill-rule:nonzero;stroke:none"
                     transform="matrix(1,0,0,-1,110.566,6.306)"><tspan
                       id="tspan216"
                       y="0"
                       x="0">C</tspan></text>
<g
                     transform="translate(110.925,6.306)"
                     id="g220" /></g></g><g
                 transform="translate(-80.945,25.181)"
                 id="g222" /></g></g><g
             id="g224" /><g
             id="g226" /><g
             id="g228"><g
               id="g230" /><g
               transform="rotate(90)"
               id="g232"><g
                 id="g234" /></g></g><g
             id="g236" /><g
             id="g238" /></g></g></g></g></svg>