<?xml version="1.0" encoding="UTF-8" standalone="no"?>
<!-- Created with Inkscape (http://www.inkscape.org/) -->

<svg
   version="1.1"
   id="svg1"
   width="338.83734"
   height="336.14401"
   viewBox="0 0 338.83734 336.14401"
   xmlns="http://www.w3.org/2000/svg"
   xmlns:svg="http://www.w3.org/2000/svg">
  <defs
     id="defs1">
    <clipPath
       clipPathUnits="userSpaceOnUse"
       id="clipPath32">
      <path
         d="M -119.31706,-119.31706 H 119.31706 V 119.31706 H -119.31706 Z"
         transform="translate(2.5000001e-6)"
         id="path32" />
    </clipPath>
    <clipPath
       clipPathUnits="userSpaceOnUse"
       id="clipPath36">
      <path
         d="M -119.31706,-119.31706 H 119.31706 V 119.31706 H -119.31706 Z"
         transform="matrix(1,0,0,-1,-64.813004,85.529002)"
         id="path36" />
    </clipPath>
    <clipPath
       clipPathUnits="userSpaceOnUse"
       id="clipPath38">
      <path
         d="M -119.31706,-119.31706 H 119.31706 V 119.31706 H -119.31706 Z"
         transform="translate(2.5000001e-6)"
         id="path38" />
    </clipPath>
    <clipPath
       clipPathUnits="userSpaceOnUse"
       id="clipPath45">
      <path
         d="M -119.31706,-119.31706 H 119.31706 V 119.31706 H -119.31706 Z"
         transform="matrix(1,0,0,-1,-65.411002,-94.108)"
         id="path45" />
    </clipPath>
    <clipPath
       clipPathUnits="userSpaceOnUse"
       id="clipPath47">
      <path
         d="M -119.31706,-119.31706 H 119.31706 V 119.31706 H -119.31706 Z"
         transform="translate(2.5000001e-6)"
         id="path47" />
    </clipPath>
    <clipPath
       clipPathUnits="userSpaceOnUse"
       id="clipPath49">
      <path
         d="M -119.31706,-119.31706 H 119.31706 V 119.31706 H -119.31706 Z"
         transform="translate(2.5000001e-6)"
         id="path49" />
    </clipPath>
    <clipPath
       clipPathUnits="userSpaceOnUse"
       id="clipPath51">
      <path
         d="M -119.31706,-119.31706 H 119.31706 V 119.31706 H -119.31706 Z"
         transform="translate(2.5000001e-6)"
         id="path51" />
    </clipPath>
    <clipPath
       clipPathUnits="userSpaceOnUse"
       id="clipPath53">
      <path
         d="M -119.31706,-119.31706 H 119.31706 V 119.31706 H -119.31706 Z"
         transform="matrix(-0.80001799,-0.60002598,0.60002598,-0.80001799,0.19922237,28.346848)"
         id="path53" />
    </clipPath>
    <clipPath
       clipPathUnits="userSpaceOnUse"
       id="clipPath55">
      <path
         d="M -119.31706,-119.31706 H 119.31706 V 119.31706 H -119.31706 Z"
         transform="matrix(1,0,0,-1,-27.946003,11.751998)"
         id="path55" />
    </clipPath>
  </defs>
  <g
     id="g1">
    <path
       id="path1"
       d="m -99.4309,-119.31706 v 238.63412 m 39.77238,-238.63412 v 238.63412 m 39.77235,-238.63412 V 119.31706 M 19.88617,-119.31706 V 119.31706 M 59.65852,-119.31706 V 119.31706 M 99.4309,-119.31706 v 238.63412"
       style="fill:none;stroke:#efefef;stroke-width:0.3985;stroke-linecap:butt;stroke-linejoin:miter;stroke-miterlimit:10;stroke-dasharray:none;stroke-opacity:1"
       transform="matrix(1.3333333,0,0,-1.3333333,172.00133,167.796)" />
    <path
       id="path2"
       d="m -119.31706,-119.31706 v 238.63412 m 39.77235,-238.63412 v 238.63412 m 39.77236,-238.63412 v 238.63412 m 79.5447,-238.63412 v 238.63412 m 39.77236,-238.63412 v 238.63412 m 39.77235,-238.63412 v 238.63412"
       style="fill:none;stroke:#e2e2e2;stroke-width:0.3985;stroke-linecap:butt;stroke-linejoin:miter;stroke-miterlimit:10;stroke-dasharray:none;stroke-opacity:1"
       transform="matrix(1.3333333,0,0,-1.3333333,172.00133,167.796)" />
    <path
       id="path3"
       d="m -119.31706,-99.4309 h 238.63412 m -238.63412,39.77238 h 238.63412 m -238.63412,39.77235 H 119.31706 M -119.31706,19.88617 H 119.31706 M -119.31706,59.65852 H 119.31706 M -119.31706,99.4309 h 238.63412"
       style="fill:none;stroke:#efefef;stroke-width:0.3985;stroke-linecap:butt;stroke-linejoin:miter;stroke-miterlimit:10;stroke-dasharray:none;stroke-opacity:1"
       transform="matrix(1.3333333,0,0,-1.3333333,172.00133,167.796)" />
    <path
       id="path4"
       d="m -119.31706,-119.31706 h 238.63412 m -238.63412,39.77235 h 238.63412 m -238.63412,39.77236 h 238.63412 m -238.63412,79.5447 h 238.63412 m -238.63412,39.77236 h 238.63412 m -238.63412,39.77235 h 238.63412"
       style="fill:none;stroke:#e2e2e2;stroke-width:0.3985;stroke-linecap:butt;stroke-linejoin:miter;stroke-miterlimit:10;stroke-dasharray:none;stroke-opacity:1"
       transform="matrix(1.3333333,0,0,-1.3333333,172.00133,167.796)" />
    <path
       id="path5"
       d="m -99.4309,-1.41461 v 2.82922 m 39.77238,-2.82922 v 2.82922 m 39.77235,-2.82922 V 1.41461 M 19.88617,-1.41461 V 1.41461 M 59.65852,-1.41461 V 1.41461 M 99.4309,-1.41461 v 2.82922"
       style="fill:none;stroke:#808080;stroke-width:0.19925;stroke-linecap:butt;stroke-linejoin:miter;stroke-miterlimit:10;stroke-dasharray:none;stroke-opacity:1"
       transform="matrix(1.3333333,0,0,-1.3333333,172.00133,167.796)" />
    <path
       id="path6"
       d="m -119.31706,-2.12163 v 4.24326 m 39.77235,-4.24326 v 4.24326 m 39.77236,-4.24326 v 4.24326 m 79.5447,-4.24326 v 4.24326 m 39.77236,-4.24326 v 4.24326 m 39.77235,-4.24326 v 4.24326"
       style="fill:none;stroke:#808080;stroke-width:0.19925;stroke-linecap:butt;stroke-linejoin:miter;stroke-miterlimit:10;stroke-dasharray:none;stroke-opacity:1"
       transform="matrix(1.3333333,0,0,-1.3333333,172.00133,167.796)" />
    <path
       id="path7"
       d="m -1.41461,-99.4309 h 2.82922 m -2.82922,39.77238 h 2.82922 m -2.82922,39.77235 H 1.41461 M -1.41461,19.88617 H 1.41461 M -1.41461,59.65852 H 1.41461 M -1.41461,99.4309 h 2.82922"
       style="fill:none;stroke:#808080;stroke-width:0.19925;stroke-linecap:butt;stroke-linejoin:miter;stroke-miterlimit:10;stroke-dasharray:none;stroke-opacity:1"
       transform="matrix(1.3333333,0,0,-1.3333333,172.00133,167.796)" />
    <path
       id="path8"
       d="m -2.12163,-119.31706 h 4.24326 m -4.24326,39.77235 h 4.24326 m -4.24326,39.77236 h 4.24326 m -4.24326,79.5447 h 4.24326 m -4.24326,39.77236 h 4.24326 m -4.24326,39.77235 h 4.24326"
       style="fill:none;stroke:#808080;stroke-width:0.19925;stroke-linecap:butt;stroke-linejoin:miter;stroke-miterlimit:10;stroke-dasharray:none;stroke-opacity:1"
       transform="matrix(1.3333333,0,0,-1.3333333,172.00133,167.796)" />
    <path
       id="path9"
       d="M -119.31706,0 H 116.7268"
       style="fill:none;stroke:#000000;stroke-width:0.79701;stroke-linecap:butt;stroke-linejoin:miter;stroke-miterlimit:10;stroke-dasharray:none;stroke-opacity:1"
       transform="matrix(1.3333333,0,0,-1.3333333,172.00133,167.796)" />
    <path
       id="path10"
       d="M 2.59026,0 -1.55415,2.0722 0,0 -1.55415,-2.0722"
       style="fill:#000000;fill-opacity:1;fill-rule:nonzero;stroke:none"
       transform="matrix(1.3333333,0,0,-1.3333333,327.63707,167.796)" />
    <path
       id="path11"
       d="M 0,-119.31706 V 116.7268"
       style="fill:none;stroke:#000000;stroke-width:0.79701;stroke-linecap:butt;stroke-linejoin:miter;stroke-miterlimit:10;stroke-dasharray:none;stroke-opacity:1"
       transform="matrix(1.3333333,0,0,-1.3333333,172.00133,167.796)" />
    <path
       id="path12"
       d="M 2.59026,0 -1.55415,2.0722 0,0 -1.55415,-2.0722"
       style="fill:#000000;fill-opacity:1;fill-rule:nonzero;stroke:none"
       transform="matrix(0,-1.3333333,-1.3333333,0,172.00133,12.160267)" />
    <g
       id="g12"
       aria-label="−6"
       transform="matrix(1.3333333,0,0,1.3333333,4.428,183.87733)">
      <path
         id="path13"
         d="m 6.5637656,-2.2956953 c 0.1757813,0 0.3515625,0 0.3515625,-0.1992188 0,-0.1992187 -0.1757812,-0.1992187 -0.3515625,-0.1992187 h -5.390625 c -0.1640625,0 -0.33984372,0 -0.33984372,0.1992187 0,0.1992188 0.17578122,0.1992188 0.33984372,0.1992188 z m 0,0"
         style="fill:#000000;fill-opacity:1;fill-rule:nonzero;stroke:none" />
      <path
         id="path14"
         d="m 9.0598594,-3.2683516 v -0.234375 c 0,-2.5195312 1.2421876,-2.8828125 1.7460936,-2.8828125 0.234375,0 0.65625,0.058594 0.878906,0.3984375 -0.152343,0 -0.550781,0 -0.550781,0.4453125 0,0.3164063 0.234375,0.4570313 0.457031,0.4570313 0.164063,0 0.457032,-0.082031 0.457032,-0.46875 0,-0.5976563 -0.433594,-1.078125 -1.265625,-1.078125 -1.2773441,0 -2.6132816,1.2890625 -2.6132816,3.4804687 0,2.66015629 1.1484375,3.37500004 2.0742186,3.37500004 1.113281,0 2.050781,-0.9375 2.050781,-2.25000004 0,-1.265625 -0.878906,-2.2265625 -1.992187,-2.2265625 -0.6679689,0 -1.0429689,0.5039063 -1.2421876,0.984375 z m 1.1835936,3.21093754 c -0.6210936,0 -0.9257811,-0.59765625 -0.9843749,-0.75 C 9.0832969,-1.2761641 9.0832969,-2.0730391 9.0832969,-2.2488203 c 0,-0.7734375 0.3164062,-1.7695313 1.2187501,-1.7695313 0.152344,0 0.609375,0 0.925781,0.609375 0.175781,0.375 0.175781,0.8789063 0.175781,1.3710938 0,0.4804687 0,0.9726562 -0.164062,1.33593749 -0.304688,0.59765625 -0.761719,0.64453125 -0.996094,0.64453125 z m 0,0"
         style="fill:#000000;fill-opacity:1;fill-rule:nonzero;stroke:none" />
    </g>
    <g
       id="g14"
       aria-label="−4"
       transform="matrix(1.3333333,0,0,1.3333333,57.456,183.87733)">
      <path
         id="path15"
         d="m 6.5632734,-2.2956953 c 0.1757813,0 0.3515625,0 0.3515625,-0.1992188 0,-0.1992187 -0.1757812,-0.1992187 -0.3515625,-0.1992187 h -5.390625 c -0.1640625,0 -0.33984371,0 -0.33984371,0.1992187 0,0.1992188 0.17578121,0.1992188 0.33984371,0.1992188 z m 0,0"
         style="fill:#000000;fill-opacity:1;fill-rule:nonzero;stroke:none" />
      <path
         id="path16"
         d="m 10.679484,-1.6394453 v 0.86718749 c 0,0.3515625 -0.02344,0.46875 -0.7617184,0.46875 H 9.7068281 v 0.3046875 c 0.4101559,-0.03515625 0.9374999,-0.03515625 1.3476559,-0.03515625 0.421875,0 0.949219,0 1.359375,0.03515625 v -0.3046875 h -0.210937 c -0.738281,0 -0.761719,-0.1171875 -0.761719,-0.46875 V -1.6394453 h 0.996094 v -0.3164063 h -0.996094 v -4.5234375 c 0,-0.1992187 0,-0.2578125 -0.152344,-0.2578125 -0.09375,0 -0.117187,0 -0.199218,0.1171875 l -3.0585941,4.6640625 v 0.3164063 z m 0.05859,-0.3164063 H 8.3122969 l 2.4257811,-3.7148437 z m 0,0"
         style="fill:#000000;fill-opacity:1;fill-rule:nonzero;stroke:none" />
    </g>
    <g
       id="g16"
       aria-label="−2"
       transform="matrix(1.3333333,0,0,1.3333333,110.48533,183.87733)">
      <path
         id="path17"
         d="m 6.5617812,-2.2956953 c 0.1757813,0 0.3515625,0 0.3515625,-0.1992188 0,-0.1992187 -0.1757812,-0.1992187 -0.3515625,-0.1992187 h -5.390625 c -0.1640625,0 -0.3398437,0 -0.3398437,0.1992187 0,0.1992188 0.1757812,0.1992188 0.3398437,0.1992188 z m 0,0"
         style="fill:#000000;fill-opacity:1;fill-rule:nonzero;stroke:none" />
      <path
         id="path18"
         d="M 9.0139297,-0.76053906 10.068617,-1.7917891 c 1.558594,-1.3710937 2.15625,-1.9101562 2.15625,-2.90625 0,-1.1367187 -0.902344,-1.9335937 -2.121094,-1.9335937 -1.1249996,0 -1.8515621,0.9140625 -1.8515621,1.8046875 0,0.5507812 0.4921875,0.5507812 0.5273438,0.5507812 0.1640625,0 0.515625,-0.1171875 0.515625,-0.5273437 0,-0.2578125 -0.1875,-0.515625 -0.5273438,-0.515625 -0.082031,0 -0.1054687,0 -0.1289062,0.011719 0.2226562,-0.6445312 0.7617187,-1.0195312 1.3359375,-1.0195312 0.9140628,0 1.3359378,0.8085937 1.3359378,1.6289062 0,0.796875 -0.492188,1.5820313 -1.042969,2.203125 L 8.3576797,-0.36210156 C 8.2522109,-0.25663281 8.2522109,-0.23319531 8.2522109,0.00117969 h 3.6914061 l 0.28125,-1.73437499 h -0.257812 c -0.04687,0.3046875 -0.117188,0.73828124 -0.210938,0.89062499 -0.07031,0.0820313 -0.726562,0.0820313 -0.949219,0.0820313 z m 0,0"
         style="fill:#000000;fill-opacity:1;fill-rule:nonzero;stroke:none" />
    </g>
    <path
       id="path19"
       d="M 1.2668281,-0.76053906 2.3215156,-1.7917891 c 1.5585938,-1.3710937 2.15625,-1.9101562 2.15625,-2.90625 0,-1.1367187 -0.9023437,-1.9335937 -2.1210937,-1.9335937 -1.125,0 -1.85156252,0.9140625 -1.85156252,1.8046875 0,0.5507812 0.4921875,0.5507812 0.52734372,0.5507812 0.1640625,0 0.515625,-0.1171875 0.515625,-0.5273437 0,-0.2578125 -0.1875,-0.515625 -0.5273437,-0.515625 -0.0820313,0 -0.10546877,0 -0.12890627,0.011719 C 1.1144844,-5.951945 1.6535469,-6.326945 2.2277656,-6.326945 c 0.9140625,0 1.3359375,0.8085937 1.3359375,1.6289062 0,0.796875 -0.4921875,1.5820313 -1.0429687,2.203125 L 0.61057813,-0.36210156 C 0.50510938,-0.25663281 0.50510938,-0.23319531 0.50510938,0.00117969 H 4.1965156 l 0.28125,-1.73437499 H 4.2199531 c -0.046875,0.3046875 -0.1171875,0.73828124 -0.2109375,0.89062499 -0.070312,0.0820313 -0.7265625,0.0820313 -0.9492187,0.0820313 z m 0,0"
       style="fill:#000000;fill-opacity:1;fill-rule:nonzero;stroke:none"
       aria-label="2"
       transform="matrix(1.3333333,0,0,1.3333333,221.70933,183.87733)" />
    <path
       id="path20"
       d="m 2.9293984,-1.6394453 v 0.86718749 c 0,0.3515625 -0.023437,0.46875 -0.7617187,0.46875 H 1.9567422 v 0.3046875 c 0.4101562,-0.03515625 0.9375,-0.03515625 1.3476562,-0.03515625 0.421875,0 0.9492188,0 1.359375,0.03515625 v -0.3046875 H 4.4528359 c -0.7382812,0 -0.7617187,-0.1171875 -0.7617187,-0.46875 V -1.6394453 H 4.6872109 V -1.9558516 H 3.6911172 v -4.5234375 c 0,-0.1992187 0,-0.2578125 -0.1523438,-0.2578125 -0.09375,0 -0.1171875,0 -0.1992187,0.1171875 l -3.05859376,4.6640625 v 0.3164063 z m 0.058594,-0.3164063 H 0.56221094 L 2.9879922,-5.6706953 Z m 0,0"
       style="fill:#000000;fill-opacity:1;fill-rule:nonzero;stroke:none"
       aria-label="4"
       transform="matrix(1.3333333,0,0,1.3333333,274.73867,183.87733)" />
    <path
       id="path21"
       d="m 1.3136484,-3.2683516 v -0.234375 c 0,-2.5195312 1.2421875,-2.8828125 1.7460938,-2.8828125 0.234375,0 0.65625,0.058594 0.8789062,0.3984375 -0.1523437,0 -0.5507812,0 -0.5507812,0.4453125 0,0.3164063 0.234375,0.4570313 0.4570312,0.4570313 0.1640625,0 0.4570313,-0.082031 0.4570313,-0.46875 0,-0.5976563 -0.4335938,-1.078125 -1.265625,-1.078125 -1.2773438,0 -2.61328126,1.2890625 -2.61328126,3.4804687 0,2.66015629 1.14843746,3.37500004 2.07421876,3.37500004 1.1132812,0 2.0507812,-0.9375 2.0507812,-2.25000004 0,-1.265625 -0.8789062,-2.2265625 -1.9921875,-2.2265625 -0.6679687,0 -1.0429687,0.5039063 -1.2421875,0.984375 z m 1.1835938,3.21093754 c -0.6210938,0 -0.9257813,-0.59765625 -0.984375,-0.75 C 1.3370859,-1.2761641 1.3370859,-2.0730391 1.3370859,-2.2488203 c 0,-0.7734375 0.3164063,-1.7695313 1.21875,-1.7695313 0.1523438,0 0.609375,0 0.9257813,0.609375 0.1757812,0.375 0.1757812,0.8789063 0.1757812,1.3710938 0,0.4804687 0,0.9726562 -0.1640625,1.33593749 -0.3046875,0.59765625 -0.7617187,0.64453125 -0.9960937,0.64453125 z m 0,0"
       style="fill:#000000;fill-opacity:1;fill-rule:nonzero;stroke:none"
       aria-label="6"
       transform="matrix(1.3333333,0,0,1.3333333,327.768,183.87733)" />
    <g
       id="g21"
       aria-label="−6"
       transform="matrix(1.3333333,0,0,1.3333333,147.50667,330.60933)">
      <path
         id="path22"
         d="m 6.5633594,-2.2968437 c 0.1757812,0 0.3515625,0 0.3515625,-0.1992188 0,-0.1992187 -0.1757813,-0.1992187 -0.3515625,-0.1992187 h -5.390625 c -0.1640625,0 -0.33984377,0 -0.33984377,0.1992187 0,0.1992188 0.17578127,0.1992188 0.33984377,0.1992188 z m 0,0"
         style="fill:#000000;fill-opacity:1;fill-rule:nonzero;stroke:none" />
      <path
         id="path23"
         d="m 9.0594531,-3.2695 v -0.234375 c 0,-2.5195312 1.2421879,-2.8828125 1.7460939,-2.8828125 0.234375,0 0.65625,0.058594 0.878906,0.3984375 -0.152344,0 -0.550781,0 -0.550781,0.4453125 0,0.3164063 0.234375,0.4570313 0.457031,0.4570313 0.164063,0 0.457031,-0.082031 0.457031,-0.46875 0,-0.5976563 -0.433593,-1.078125 -1.265625,-1.078125 -1.2773434,0 -2.6132809,1.2890625 -2.6132809,3.4804687 0,2.66015625 1.1484375,3.375 2.0742189,3.375 1.113281,0 2.050781,-0.9375 2.050781,-2.25 0,-1.265625 -0.878906,-2.2265625 -1.992187,-2.2265625 -0.6679691,0 -1.0429691,0.5039063 -1.2421879,0.984375 z m 1.1835939,3.2109375 c -0.6210939,0 -0.9257814,-0.59765625 -0.9843751,-0.75 -0.1757813,-0.46875 -0.1757813,-1.265625 -0.1757813,-1.4414062 0,-0.7734375 0.3164063,-1.7695313 1.2187504,-1.7695313 0.152343,0 0.609375,0 0.925781,0.609375 0.175781,0.375 0.175781,0.8789063 0.175781,1.3710938 0,0.4804687 0,0.9726562 -0.164062,1.33593745 -0.304688,0.59765625 -0.761719,0.64453125 -0.996094,0.64453125 z m 0,0"
         style="fill:#000000;fill-opacity:1;fill-rule:nonzero;stroke:none" />
    </g>
    <g
       id="g23"
       aria-label="−4"
       transform="matrix(1.3333333,0,0,1.3333333,147.50667,277.58)">
      <path
         id="path24"
         d="m 6.5633594,-2.2982813 c 0.1757812,0 0.3515625,0 0.3515625,-0.1992187 0,-0.1992188 -0.1757813,-0.1992188 -0.3515625,-0.1992188 h -5.390625 c -0.1640625,0 -0.33984377,0 -0.33984377,0.1992188 0,0.1992187 0.17578127,0.1992187 0.33984377,0.1992187 z m 0,0"
         style="fill:#000000;fill-opacity:1;fill-rule:nonzero;stroke:none" />
      <path
         id="path25"
         d="m 10.676641,-1.6420313 v 0.86718755 c 0,0.3515625 -0.02344,0.46875 -0.7617191,0.46875 H 9.7039844 v 0.3046875 C 10.114141,-0.0365625 10.641484,-0.0365625 11.051641,-0.0365625 c 0.421875,0 0.949218,0 1.359375,0.03515625 v -0.3046875 h -0.210938 c -0.738281,0 -0.761719,-0.1171875 -0.761719,-0.46875 V -1.6420313 h 0.996094 V -1.9584375 H 11.438359 V -6.481875 c 0,-0.1992188 0,-0.2578125 -0.152343,-0.2578125 -0.09375,0 -0.117188,0 -0.199219,0.1171875 l -3.0585939,4.6640625 v 0.3164062 z m 0.05859,-0.3164062 H 8.3094531 l 2.4257809,-3.7148438 z m 0,0"
         style="fill:#000000;fill-opacity:1;fill-rule:nonzero;stroke:none" />
    </g>
    <g
       id="g25"
       aria-label="−2"
       transform="matrix(1.3333333,0,0,1.3333333,147.50667,224.552)">
      <path
         id="path26"
         d="m 6.5633594,-2.2977891 c 0.1757812,0 0.3515625,0 0.3515625,-0.1992187 0,-0.1992188 -0.1757813,-0.1992188 -0.3515625,-0.1992188 h -5.390625 c -0.1640625,0 -0.33984377,0 -0.33984377,0.1992188 0,0.1992187 0.17578127,0.1992187 0.33984377,0.1992187 z m 0,0"
         style="fill:#000000;fill-opacity:1;fill-rule:nonzero;stroke:none" />
      <path
         id="path27"
         d="M 9.0125781,-0.76263281 10.067266,-1.7938828 c 1.558593,-1.3710938 2.15625,-1.9101563 2.15625,-2.90625 0,-1.1367188 -0.902344,-1.9335938 -2.121094,-1.9335938 -1.1250001,0 -1.8515626,0.9140625 -1.8515626,1.8046875 0,0.5507813 0.4921875,0.5507813 0.5273437,0.5507813 0.1640625,0 0.515625,-0.1171875 0.515625,-0.5273438 0,-0.2578125 -0.1875,-0.515625 -0.5273437,-0.515625 -0.082031,0 -0.1054688,0 -0.1289063,0.011719 0.2226563,-0.6445313 0.7617188,-1.0195313 1.3359375,-1.0195313 0.9140624,0 1.3359374,0.8085938 1.3359374,1.6289063 0,0.796875 -0.492187,1.5820312 -1.042969,2.203125 L 8.3563281,-0.36419531 C 8.2508594,-0.25872656 8.2508594,-0.23528906 8.2508594,-9.140625e-4 H 11.942266 L 12.223516,-1.7352891 h -0.257813 c -0.04687,0.3046875 -0.117187,0.73828129 -0.210937,0.89062504 -0.07031,0.0820313 -0.726563,0.0820313 -0.949219,0.0820313 z m 0,0"
         style="fill:#000000;fill-opacity:1;fill-rule:nonzero;stroke:none" />
    </g>
    <path
       id="path28"
       d="m 1.2645781,-0.7615625 1.0546875,-1.03125 c 1.5585938,-1.3710938 2.15625,-1.9101563 2.15625,-2.90625 0,-1.1367188 -0.9023437,-1.9335938 -2.1210937,-1.9335938 -1.125,0 -1.85156253,0.9140625 -1.85156253,1.8046875 0,0.5507813 0.4921875,0.5507813 0.52734373,0.5507813 0.1640625,0 0.515625,-0.1171875 0.515625,-0.5273438 0,-0.2578125 -0.1875,-0.515625 -0.5273437,-0.515625 -0.0820313,0 -0.10546878,0 -0.12890628,0.011719 0.22265628,-0.6445313 0.76171878,-1.0195313 1.33593748,-1.0195313 0.9140625,0 1.3359375,0.8085938 1.3359375,1.6289063 0,0.796875 -0.4921875,1.5820312 -1.0429687,2.203125 L 0.60832812,-0.363125 C 0.50285937,-0.25765625 0.50285937,-0.23421875 0.50285937,1.5625e-4 H 4.1942656 l 0.28125,-1.73437505 H 4.2177031 c -0.046875,0.3046875 -0.1171875,0.7382813 -0.2109375,0.89062505 -0.070312,0.0820313 -0.7265625,0.0820313 -0.9492187,0.0820313 z m 0,0"
       style="fill:#000000;fill-opacity:1;fill-rule:nonzero;stroke:none"
       aria-label="2"
       transform="matrix(1.3333333,0,0,1.3333333,157.83733,119.04667)" />
    <path
       id="path29"
       d="m 2.9286406,-1.6419063 v 0.86718755 c 0,0.3515625 -0.023437,0.46875 -0.7617187,0.46875 H 1.9559844 v 0.3046875 c 0.4101562,-0.03515625 0.9375,-0.03515625 1.3476562,-0.03515625 0.421875,0 0.9492188,0 1.359375,0.03515625 v -0.3046875 H 4.4520781 c -0.7382812,0 -0.7617187,-0.1171875 -0.7617187,-0.46875 V -1.6419063 H 4.6864531 V -1.9583125 H 3.6903594 V -6.48175 c 0,-0.1992188 0,-0.2578125 -0.1523438,-0.2578125 -0.09375,0 -0.1171875,0 -0.1992187,0.1171875 l -3.05859378,4.6640625 v 0.3164062 z m 0.058594,-0.3164062 H 0.56145312 L 2.9872344,-5.6731563 Z m 0,0"
       style="fill:#000000;fill-opacity:1;fill-rule:nonzero;stroke:none"
       aria-label="4"
       transform="matrix(1.3333333,0,0,1.3333333,157.83733,66.017333)" />
    <path
       id="path30"
       d="m 1.3114531,-3.2693203 v -0.234375 c 0,-2.5195313 1.2421875,-2.8828125 1.7460938,-2.8828125 0.234375,0 0.65625,0.058594 0.8789062,0.3984375 -0.1523437,0 -0.5507812,0 -0.5507812,0.4453125 0,0.3164062 0.234375,0.4570312 0.4570312,0.4570312 0.1640625,0 0.4570313,-0.082031 0.4570313,-0.46875 0,-0.5976562 -0.4335938,-1.078125 -1.265625,-1.078125 -1.2773438,0 -2.61328128,1.2890625 -2.61328128,3.4804688 0,2.66015624 1.14843748,3.37499999 2.07421878,3.37499999 1.1132812,0 2.0507812,-0.9375 2.0507812,-2.24999999 0,-1.265625 -0.8789062,-2.2265625 -1.9921875,-2.2265625 -0.6679687,0 -1.0429687,0.5039062 -1.2421875,0.984375 z m 1.1835938,3.21093749 c -0.6210938,0 -0.9257813,-0.59765625 -0.984375,-0.75 C 1.3348906,-1.2771328 1.3348906,-2.0740078 1.3348906,-2.2497891 c 0,-0.7734375 0.3164063,-1.7695312 1.21875,-1.7695312 0.1523438,0 0.609375,0 0.9257813,0.609375 0.1757812,0.375 0.1757812,0.8789062 0.1757812,1.3710937 0,0.4804688 0,0.9726563 -0.1640625,1.33593754 -0.3046875,0.59765625 -0.7617187,0.64453125 -0.9960937,0.64453125 z m 0,0"
       style="fill:#000000;fill-opacity:1;fill-rule:nonzero;stroke:none"
       aria-label="6"
       transform="matrix(1.3333333,0,0,1.3333333,157.83733,12.988)" />
    <path
       id="path31"
       d="m 61.77197,79.54471 c 0,1.16722 -0.94621,2.11343 -2.11345,2.11343 -1.16722,0 -2.11343,-0.94621 -2.11343,-2.11343 0,-1.16722 0.94621,-2.11344 2.11343,-2.11344 1.16724,0 2.11345,0.94622 2.11345,2.11344 z"
       style="fill:#000000;fill-opacity:1;fill-rule:nonzero;stroke:none"
       transform="matrix(1.3333333,0,0,-1.3333333,172.00133,167.796)"
       clip-path="url(#clipPath32)" />
    <g
       id="g32"
       aria-label="z=3+4&#10;ˆ&#10;i"
       transform="matrix(1.3333333,0,0,1.3333333,258.41867,53.757333)"
       clip-path="url(#clipPath36)">
      <path
         id="path33"
         d="M 1.3236953,-0.83167188 C 1.8627578,-1.4058906 2.1557266,-1.6519844 2.5072891,-1.9566719 c 0,-0.011719 0.6210937,-0.5390625 0.984375,-0.9023437 0.9375,-0.9257813 1.1601562,-1.40625 1.1601562,-1.4414063 0,-0.1054687 -0.09375,-0.1054687 -0.1054687,-0.1054687 -0.070312,0 -0.1054688,0.023437 -0.1523438,0.1171875 -0.3046875,0.46875 -0.5039062,0.6328125 -0.75,0.6328125 -0.234375,0 -0.3515625,-0.1523438 -0.5039062,-0.3164063 -0.1875,-0.234375 -0.3632813,-0.4335937 -0.6914063,-0.4335937 -0.75,0 -1.2070312,0.9257812 -1.2070312,1.1367187 0,0.046875 0.035156,0.1171875 0.1171875,0.1171875 0.09375,0 0.1171875,-0.058594 0.140625,-0.1171875 0.1875,-0.4570312 0.7617187,-0.46875 0.84375,-0.46875 0.2109375,0 0.3984375,0.070312 0.6210937,0.1523438 0.3984375,0.1523437 0.515625,0.1523437 0.7734375,0.1523437 -0.3632812,0.421875 -1.1953125,1.1367188 -1.3828125,1.3007813 l -0.9023437,0.8320312 c -0.67968754,0.66796877 -1.01953129,1.24218752 -1.01953129,1.31250002 0,0.09375 0.09375,0.09375 0.1171875,0.09375 0.0820313,0 0.09375,-0.01171875 0.15234375,-0.12890625 0.234375,-0.33984375 0.52734374,-0.609375 0.85546874,-0.609375 0.2226563,0 0.328125,0.0820313 0.5742188,0.375 0.1640625,0.2109375 0.3515625,0.36328125 0.6328125,0.36328125 0.984375,0 1.5703125,-1.26562502 1.5703125,-1.53515622 0,-0.046875 -0.046875,-0.09375 -0.1171875,-0.09375 -0.09375,0 -0.1171875,0.058594 -0.140625,0.1289062 -0.234375,0.64453127 -0.8671875,0.83203127 -1.1953125,0.83203127 -0.1992188,0 -0.3867188,-0.0585938 -0.5859375,-0.12890625 -0.3398438,-0.12890625 -0.4921875,-0.1640625 -0.703125,-0.1640625 -0.023437,0 -0.1757813,0 -0.2695313,0.0234375 z m 0,0"
         style="fill:#000000;fill-opacity:1;fill-rule:nonzero;stroke:none" />
      <path
         id="path34"
         d="m 14.68307,-3.2574531 c 0.152344,0 0.339844,0 0.339844,-0.1992188 0,-0.1992187 -0.1875,-0.1992187 -0.328125,-0.1992187 H 8.7299453 c -0.140625,0 -0.328125,0 -0.328125,0.1992187 0,0.1992188 0.1875,0.1992188 0.3398438,0.1992188 z m 0.01172,1.9335937 c 0.140625,0 0.328125,0 0.328125,-0.1992187 0,-0.1992188 -0.1875,-0.1992188 -0.339844,-0.1992188 H 8.7416641 c -0.1523438,0 -0.3398438,0 -0.3398438,0.1992188 0,0.1992187 0.1875,0.1992187 0.328125,0.1992187 z m 6.556641,-2.1796875 c 0.808593,-0.2695312 1.394531,-0.9726562 1.394531,-1.7578125 0,-0.8203125 -0.878906,-1.3710937 -1.839844,-1.3710937 -1.007812,0 -1.757812,0.5976562 -1.757812,1.3476562 0,0.3398438 0.210937,0.5273438 0.503906,0.5273438 0.304687,0 0.503906,-0.2226563 0.503906,-0.515625 0,-0.4921875 -0.46875,-0.4921875 -0.609375,-0.4921875 0.304688,-0.4921875 0.960938,-0.6210938 1.324219,-0.6210938 0.410156,0 0.949219,0.2226563 0.949219,1.1132813 0,0.1289062 -0.01172,0.703125 -0.269532,1.1367187 -0.304687,0.4804688 -0.644531,0.515625 -0.890625,0.515625 -0.08203,0.011719 -0.316406,0.035156 -0.386718,0.035156 -0.08203,0.011719 -0.152344,0.023437 -0.152344,0.1171875 0,0.1171875 0.07031,0.1171875 0.234375,0.1171875 h 0.445312 c 0.808594,0 1.183594,0.6679687 1.183594,1.6523437 0,1.34765627 -0.691406,1.64062502 -1.125,1.64062502 -0.433594,0 -1.171875,-0.17578125 -1.523437,-0.76171875 0.351562,0.0585938 0.65625,-0.1640625 0.65625,-0.53906247 0,-0.3632813 -0.269532,-0.5625 -0.5625,-0.5625 -0.234375,0 -0.550782,0.140625 -0.550782,0.5742187 0,0.91406252 0.925782,1.57031252 2.003907,1.57031252 1.21875,0 2.121093,-0.9140625 2.121093,-1.92187502 0,-0.8203125 -0.621093,-1.59375 -1.652343,-1.8046872 z m 8.375976,1.2070313 h 2.777344 c 0.140625,0 0.328125,0 0.328125,-0.1992188 0,-0.1992187 -0.1875,-0.1992187 -0.328125,-0.1992187 h -2.777344 v -2.7890625 c 0,-0.1289063 0,-0.328125 -0.199218,-0.328125 -0.199219,0 -0.199219,0.1992187 -0.199219,0.328125 v 2.7890625 h -2.789063 c -0.140625,0 -0.328125,0 -0.328125,0.1992187 0,0.1992188 0.1875,0.1992188 0.328125,0.1992188 h 2.789063 v 2.80078122 c 0,0.12890625 0,0.328125 0.199219,0.328125 0.199218,0 0.199218,-0.19921875 0.199218,-0.328125 z m 8.8125,0.65625 v 0.86718747 c 0,0.3515625 -0.02344,0.46875 -0.761718,0.46875 H 37.46725 V 3.59375e-4 c 0.410156,-0.035156255 0.9375,-0.035156255 1.347656,-0.035156255 0.421875,0 0.949219,0 1.359375,0.035156255 V -0.30432813 h -0.210937 c -0.738281,0 -0.761719,-0.1171875 -0.761719,-0.46875 V -1.6402656 h 0.996094 v -0.3164063 h -0.996094 v -4.5234375 c 0,-0.1992187 0,-0.2578125 -0.152344,-0.2578125 -0.09375,0 -0.117187,0 -0.199218,0.1171875 l -3.058594,4.6640625 v 0.3164063 z M 38.4985,-1.9566719 H 36.072719 L 38.4985,-5.6715156 Z m 0,0"
         style="fill:#000000;fill-opacity:1;fill-rule:nonzero;stroke:none" />
      <path
         id="path35"
         d="m 42.081508,-9.4039375 -1.558594,1.2539062 0.269531,0.3867188 1.289063,-0.8203125 1.289062,0.8085937 0.269532,-0.3632812 z m 0.638672,4.9160156 -1.722657,0.082031 v 0.46875 c 0.585938,0 0.65625,0 0.65625,0.3867187 v 3.08203127 H 40.962367 V 3.59375e-4 c 0.304688,-0.011718755 0.796875,-0.035156255 1.21875,-0.035156255 0.292969,0 0.808594,0.0234375 1.160156,0.035156255 V -0.46839063 H 42.72018 Z m 0.105468,-1.6523437 c 0,-0.4453125 -0.363281,-0.7851563 -0.773437,-0.7851563 -0.433594,0 -0.785156,0.3515625 -0.785156,0.7851563 0,0.421875 0.351562,0.7734375 0.785156,0.7734375 0.410156,0 0.773437,-0.3398438 0.773437,-0.7734375 z m 0,0"
         style="fill:#000000;fill-opacity:1;fill-rule:nonzero;stroke:none" />
    </g>
    <path
       id="path37"
       d="m 61.77197,-79.54471 c 0,1.16722 -0.94621,2.11344 -2.11345,2.11344 -1.16722,0 -2.11343,-0.94622 -2.11343,-2.11344 0,-1.16722 0.94621,-2.11343 2.11343,-2.11343 1.16724,0 2.11345,0.94621 2.11345,2.11343 z"
       style="fill:#000000;fill-opacity:1;fill-rule:nonzero;stroke:none"
       transform="matrix(1.3333333,0,0,-1.3333333,172.00133,167.796)"
       clip-path="url(#clipPath38)" />
    <g
       id="g38"
       aria-label="¯z=3−4&#10;ˆ&#10;i"
       transform="matrix(1.3333333,0,0,1.3333333,259.216,293.27333)"
       clip-path="url(#clipPath45)">
      <path
         id="path39"
         d="M 4.2881953,-5.5663281 V -5.8827344 H 0.69053906 v 0.3164063 z m 0,0"
         style="fill:#000000;fill-opacity:1;fill-rule:nonzero;stroke:none" />
      <path
         id="path40"
         d="M 0.72569531,-0.83195312 C 1.2647578,-1.4061719 1.5577266,-1.6522656 1.9092891,-1.9569531 c 0,-0.011719 0.6210937,-0.5390625 0.984375,-0.9023438 0.9375,-0.9257812 1.1601562,-1.40625 1.1601562,-1.4414062 0,-0.1054688 -0.09375,-0.1054688 -0.1054687,-0.1054688 -0.070312,0 -0.1054688,0.023437 -0.1523438,0.1171875 -0.3046875,0.46875 -0.5039062,0.6328125 -0.75,0.6328125 -0.234375,0 -0.3515625,-0.1523437 -0.5039062,-0.3164062 -0.1875,-0.234375 -0.3632813,-0.4335938 -0.6914063,-0.4335938 -0.75,0 -1.20703124,0.9257813 -1.20703124,1.1367188 0,0.046875 0.0351563,0.1171875 0.1171875,0.1171875 0.09375,0 0.1171875,-0.058594 0.140625,-0.1171875 0.18750004,-0.4570313 0.76171874,-0.46875 0.84375004,-0.46875 0.2109375,0 0.3984375,0.070312 0.6210937,0.1523437 0.3984375,0.1523438 0.515625,0.1523438 0.7734375,0.1523438 -0.3632812,0.421875 -1.1953125,1.1367187 -1.3828125,1.3007812 l -0.90234374,0.8320313 c -0.6796875,0.66796873 -1.01953125,1.24218748 -1.01953125,1.31249998 0,0.09375 0.09375,0.09375 0.1171875,0.09375 0.08203125,0 0.09375,-0.01171875 0.15234375,-0.12890625 0.234375,-0.33984375 0.52734375,-0.609375 0.85546875,-0.609375 0.22265629,0 0.32812499,0.0820313 0.57421879,0.375 0.1640625,0.2109375 0.3515625,0.36328125 0.6328125,0.36328125 0.984375,0 1.5703125,-1.26562498 1.5703125,-1.53515628 0,-0.046875 -0.046875,-0.09375 -0.1171875,-0.09375 -0.09375,0 -0.1171875,0.058594 -0.140625,0.1289063 -0.234375,0.64453123 -0.8671875,0.83203123 -1.1953125,0.83203123 -0.1992188,0 -0.3867188,-0.0585938 -0.5859375,-0.12890625 -0.3398438,-0.12890625 -0.4921875,-0.1640625 -0.70312504,-0.1640625 -0.0234375,0 -0.17578125,0 -0.26953125,0.0234375 z m 0,0"
         style="fill:#000000;fill-opacity:1;fill-rule:nonzero;stroke:none" />
      <path
         id="path41"
         d="m 14.08507,-3.2577344 c 0.152344,0 0.339844,0 0.339844,-0.1992187 0,-0.1992188 -0.1875,-0.1992188 -0.328125,-0.1992188 H 8.1319453 c -0.140625,0 -0.328125,0 -0.328125,0.1992188 0,0.1992187 0.1875,0.1992187 0.3398438,0.1992187 z m 0.01172,1.9335938 c 0.140625,0 0.328125,0 0.328125,-0.1992188 0,-0.1992187 -0.1875,-0.1992187 -0.339844,-0.1992187 H 8.1436641 c -0.1523438,0 -0.3398438,0 -0.3398438,0.1992187 0,0.1992188 0.1875,0.1992188 0.328125,0.1992188 z m 6.556641,-2.1796875 c 0.808593,-0.2695313 1.394531,-0.9726563 1.394531,-1.7578125 0,-0.8203125 -0.878906,-1.3710938 -1.839844,-1.3710938 -1.007812,0 -1.757812,0.5976563 -1.757812,1.3476563 0,0.3398437 0.210937,0.5273437 0.503906,0.5273437 0.304687,0 0.503906,-0.2226562 0.503906,-0.515625 0,-0.4921875 -0.46875,-0.4921875 -0.609375,-0.4921875 0.304688,-0.4921875 0.960938,-0.6210937 1.324219,-0.6210937 0.410156,0 0.949219,0.2226562 0.949219,1.1132812 0,0.1289063 -0.01172,0.703125 -0.269532,1.1367188 -0.304687,0.4804687 -0.644531,0.515625 -0.890625,0.515625 -0.08203,0.011719 -0.316406,0.035156 -0.386718,0.035156 -0.08203,0.011719 -0.152344,0.023437 -0.152344,0.1171875 0,0.1171875 0.07031,0.1171875 0.234375,0.1171875 h 0.445312 c 0.808594,0 1.183594,0.6679688 1.183594,1.6523438 0,1.34765623 -0.691406,1.64062498 -1.125,1.64062498 -0.433594,0 -1.171875,-0.17578125 -1.523437,-0.76171875 0.351562,0.0585938 0.65625,-0.1640625 0.65625,-0.53906253 0,-0.3632812 -0.269532,-0.5625 -0.5625,-0.5625 -0.234375,0 -0.550782,0.140625 -0.550782,0.5742188 0,0.91406248 0.925782,1.57031248 2.003907,1.57031248 1.21875,0 2.121093,-0.9140625 2.121093,-1.92187498 0,-0.8203125 -0.621093,-1.59375 -1.652343,-1.8046873 z m 0,0"
         style="fill:#000000;fill-opacity:1;fill-rule:nonzero;stroke:none" />
      <path
         id="path42"
         d="m 31.513781,-2.2967969 c 0.175781,0 0.351563,0 0.351563,-0.1992187 0,-0.1992188 -0.175782,-0.1992188 -0.351563,-0.1992188 h -5.390625 c -0.164062,0 -0.339844,0 -0.339844,0.1992188 0,0.1992187 0.175782,0.1992187 0.339844,0.1992187 z m 0,0"
         style="fill:#000000;fill-opacity:1;fill-rule:nonzero;stroke:none" />
      <path
         id="path43"
         d="m 37.844836,-1.6405469 v 0.86718753 c 0,0.3515625 -0.02344,0.46875 -0.761719,0.46875 H 36.87218 V 7.8125e-5 c 0.410156,-0.035156245 0.9375,-0.035156245 1.347656,-0.035156245 0.421875,0 0.949219,0 1.359375,0.035156245 V -0.30460937 h -0.210938 c -0.738281,0 -0.761718,-0.1171875 -0.761718,-0.46875 V -1.6405469 h 0.996093 v -0.3164062 h -0.996093 v -4.5234375 c 0,-0.1992188 0,-0.2578125 -0.152344,-0.2578125 -0.09375,0 -0.117188,0 -0.199219,0.1171875 l -3.058594,4.6640625 v 0.3164062 z m 0.05859,-0.3164062 h -2.425782 l 2.425782,-3.7148438 z m 0,0"
         style="fill:#000000;fill-opacity:1;fill-rule:nonzero;stroke:none" />
      <path
         id="path44"
         d="m 41.483508,-9.4042187 -1.558594,1.2539062 0.269531,0.3867188 1.289063,-0.8203125 1.289062,0.8085937 0.269532,-0.3632812 z m 0.638672,4.9160156 -1.722657,0.082031 v 0.46875 c 0.585938,0 0.65625,0 0.65625,0.3867188 v 3.08203123 H 40.364367 V 7.8125e-5 c 0.304688,-0.011718745 0.796875,-0.035156245 1.21875,-0.035156245 0.292969,0 0.808594,0.0234375 1.160156,0.035156245 V -0.46867187 H 42.12218 Z m 0.105468,-1.6523438 c 0,-0.4453125 -0.363281,-0.7851562 -0.773437,-0.7851562 -0.433594,0 -0.785156,0.3515625 -0.785156,0.7851562 0,0.421875 0.351562,0.7734375 0.785156,0.7734375 0.410156,0 0.773437,-0.3398437 0.773437,-0.7734375 z m 0,0"
         style="fill:#000000;fill-opacity:1;fill-rule:nonzero;stroke:none" />
    </g>
    <path
       id="path46"
       d="m 0,0 2.48576,3.31445 2.48577,3.31417 2.48577,3.31445 2.48577,3.31418 2.48578,3.31445 2.48578,3.31447 2.48576,3.31415 2.48578,3.31448 2.48576,3.31445 2.48578,3.31417 2.48578,3.31447 2.48576,3.31446 2.48577,3.31415 2.48578,3.31447 2.48578,3.31447 2.48577,3.31416 2.48577,3.31446 2.48576,3.31446 2.48578,3.31417 2.48578,3.31385 2.48576,3.31295 2.48578,3.31324 2.48576,3.3169 2.48578,3.31508"
       style="fill:none;stroke:#000000;stroke-width:0.79701;stroke-linecap:butt;stroke-linejoin:miter;stroke-miterlimit:10;stroke-dasharray:none;stroke-opacity:1"
       transform="matrix(1.3333333,0,0,-1.3333333,172.00133,167.796)"
       clip-path="url(#clipPath47)" />
    <path
       id="path48"
       d="m 0,0 2.48576,-3.31445 2.48577,-3.31417 2.48577,-3.31445 2.48577,-3.31418 2.48578,-3.31445 2.48578,-3.31447 2.48576,-3.31415 2.48578,-3.31448 2.48576,-3.31445 2.48578,-3.31417 2.48578,-3.31447 2.48576,-3.31446 2.48577,-3.31415 2.48578,-3.31447 2.48578,-3.31447 2.48577,-3.31416 2.48577,-3.31446 2.48576,-3.31446 2.48578,-3.31417 2.48578,-3.31385 2.48576,-3.31295 2.48578,-3.31324 2.48576,-3.3169 2.48578,-3.31508"
       style="fill:none;stroke:#000000;stroke-width:0.79701;stroke-linecap:butt;stroke-linejoin:miter;stroke-miterlimit:10;stroke-dasharray:none;stroke-opacity:1"
       transform="matrix(1.3333333,0,0,-1.3333333,172.00133,167.796)"
       clip-path="url(#clipPath49)" />
    <path
       id="path50"
       d="m 28.3468,0 c 0,8.92108 -4.20238,17.3241 -11.0202,22.43755"
       style="fill:none;stroke:#ff0000;stroke-width:0.3985;stroke-linecap:butt;stroke-linejoin:miter;stroke-miterlimit:10;stroke-dasharray:none;stroke-opacity:1"
       transform="matrix(1.3333333,0,0,-1.3333333,172.00133,167.796)"
       clip-path="url(#clipPath51)" />
    <path
       id="path52"
       d="M -2.07224,2.39104 C -1.69365,0.95639 -0.84999,0.27895 0,0 -0.84999,-0.27895 -1.69365,-0.95639 -2.07224,-2.39104"
       style="fill:none;stroke:#ff0000;stroke-width:0.3985;stroke-linecap:round;stroke-linejoin:round;stroke-miterlimit:10;stroke-dasharray:none;stroke-opacity:1"
       transform="matrix(-1.0666267,-0.79998667,-0.79998667,1.0666267,194.89093,137.71987)"
       clip-path="url(#clipPath53)" />
    <path
       id="path54"
       d="m 4.5344453,-4.9817187 c 0,-0.65625 -0.1875,-2.0390625 -1.1953125,-2.0390625 -1.3828125,0 -2.91796874,2.8007812 -2.91796874,5.0859375 0,0.93749995 0.28125,2.03906245 1.19531254,2.03906245 1.40625,0 2.9179687,-2.85937495 2.9179687,-5.08593745 z m -3.0585937,1.359375 c 0.1640625,-0.6328125 0.3632812,-1.4296875 0.7617187,-2.1328125 0.2695313,-0.4921875 0.6445313,-1.0546875 1.0898438,-1.0546875 0.4921875,0 0.5507812,0.6445312 0.5507812,1.2070312 0,0.4921875 -0.082031,0.9960938 -0.328125,1.9804688 z m 1.9921875,0.328125 c -0.1171875,0.4570312 -0.3164063,1.3007812 -0.703125,2.015625 -0.3398438,0.67968745 -0.7265625,1.17187495 -1.1484375,1.17187495 -0.328125,0 -0.5390625,-0.29296875 -0.5390625,-1.21874995 0,-0.421875 0.058594,-0.9960938 0.3164062,-1.96875 z m 0,0"
       style="fill:#ff0000;fill-opacity:1;fill-rule:nonzero;stroke:none"
       aria-label="θ"
       transform="matrix(1.3333333,0,0,1.3333333,209.26267,152.12667)"
       clip-path="url(#clipPath55)" />
    <path
       id="path56"
       d="m 2.2267656,-3.5164531 v -2.578125 c 0,-0.234375 0,-0.3515625 0.2226563,-0.3867188 0.1054687,-0.011719 0.3867187,-0.011719 0.5859375,-0.011719 0.9023437,0 2.015625,0.035156 2.015625,1.4765625 0,0.6914062 -0.234375,1.5 -1.7109375,1.5 z m 2.109375,0.1289062 c 0.9609375,-0.234375 1.7460938,-0.84375 1.7460938,-1.6289062 0,-0.9492188 -1.1367188,-1.7929688 -2.6015625,-1.7929688 H 0.35176563 v 0.3164063 h 0.234375 c 0.77343747,0 0.78515627,0.1054687 0.78515627,0.46875 v 5.24999998 c 0,0.3515625 -0.011719,0.46875 -0.78515627,0.46875 h -0.234375 V -8.28125e-4 C 0.70332813,-0.03598437 1.4181719,-0.03598437 1.8048906,-0.03598437 c 0.3867188,0 1.0898438,0 1.453125,0.035156245 V -0.30551562 h -0.234375 c -0.7734375,0 -0.796875,-0.1171875 -0.796875,-0.46875 V -3.2937969 h 1.1484375 c 0.1640625,0 0.5742188,0 0.9257813,0.3398438 0.3867187,0.3515625 0.3867187,0.65625 0.3867187,1.3242187 0,0.65625003 0,1.05468753 0.3984375,1.42968753 0.4101563,0.36328125 0.9609375,0.421875 1.2539063,0.421875 0.7851562,0 0.9492187,-0.8203125 0.9492187,-1.1015625 0,-0.0585938 0,-0.16406253 -0.1289062,-0.16406253 -0.1054688,0 -0.1054688,0.0820313 -0.1171875,0.15234378 -0.058594,0.71484375 -0.4101563,0.890624995 -0.65625,0.890624995 -0.4921875,0 -0.5742188,-0.503906245 -0.703125,-1.429687475 l -0.140625,-0.796875 C 5.3673906,-2.8719219 4.8869219,-3.2000469 4.3361406,-3.3875469 Z m 4.1103516,0.8789063 c 0.058594,-1.4882813 0.9023437,-1.734375 1.2421875,-1.734375 1.0195313,0 1.1250003,1.3476562 1.1250003,1.734375 z m -0.011719,0.2109375 h 2.7890628 c 0.210937,0 0.246094,0 0.246094,-0.2109375 0,-0.984375 -0.539063,-1.9570313 -1.7812505,-1.9570313 -1.1601563,0 -2.0742188,1.03125 -2.0742188,2.2734375 0,1.33593753 1.0429688,2.29687503 2.1914063,2.29687503 1.21875,0 1.664063,-1.1015625 1.664063,-1.28906253 0,-0.1054687 -0.08203,-0.1171875 -0.128907,-0.1171875 -0.09375,0 -0.117187,0.058594 -0.128906,0.140625 -0.351562,1.01953128 -1.2539063,1.01953128 -1.3476563,1.01953128 -0.5039062,0 -0.9023437,-0.29296875 -1.125,-0.66796875 C 8.4347734,-1.2898906 8.4347734,-1.9461406 8.4347732,-2.2977031 Z m 0,0"
       style="fill:#000000;fill-opacity:1;fill-rule:nonzero;stroke:none"
       aria-label="Re"
       transform="matrix(1.3333333,0,0,1.3333333,310.71067,163.10267)" />
    <path
       id="path57"
       d="m 2.2387656,-6.0220859 c 0,-0.3632813 0.035156,-0.46875 0.8203125,-0.46875 h 0.2578125 v -0.3164063 c -0.3515625,0.035156 -1.1367187,0.035156 -1.5117187,0.035156 -0.3867188,0 -1.17187502,0 -1.52343752,-0.035156 v 0.3164063 h 0.2578125 c 0.78515622,0 0.82031252,0.1054687 0.82031252,0.46875 v 5.24999996 c 0,0.3515625 -0.035156,0.46875 -0.82031252,0.46875 h -0.2578125 v 0.3046875 c 0.3515625,-0.03515625 1.13671872,-0.03515625 1.51171872,-0.03515625 0.3867188,0 1.171875,0 1.5234375,0.03515625 v -0.3046875 H 3.0590781 c -0.7851562,0 -0.8203125,-0.1171875 -0.8203125,-0.46875 z m 2.4609375,2.6015625 v 2.66015621 c 0,0.45703125 -0.1171875,0.45703125 -0.7851562,0.45703125 v 0.3046875 c 0.3515625,-0.01171875 0.8554687,-0.03515625 1.125,-0.03515625 0.2578125,0 0.7851562,0.0234375 1.1132812,0.03515625 v -0.3046875 c -0.65625,0 -0.7734375,0 -0.7734375,-0.45703125 V -2.5884922 c 0,-1.03125 0.7148438,-1.59375 1.3476563,-1.59375 0.6210937,0 0.7382812,0.5390625 0.7382812,1.1015625 v 2.32031251 c 0,0.45703125 -0.1171875,0.45703125 -0.7734375,0.45703125 v 0.3046875 c 0.3398438,-0.01171875 0.8554688,-0.03515625 1.125,-0.03515625 0.2578125,0 0.7734375,0.0234375 1.1132813,0.03515625 v -0.3046875 c -0.6679688,0 -0.7851563,0 -0.7851563,-0.45703125 V -2.5884922 c 0,-1.03125 0.7148438,-1.59375 1.3476563,-1.59375 0.6328121,0 0.7382811,0.5390625 0.7382811,1.1015625 v 2.32031251 c 0,0.45703125 -0.105469,0.45703125 -0.7734374,0.45703125 v 0.3046875 c 0.3515625,-0.01171875 0.8554684,-0.03515625 1.1250004,-0.03515625 0.257812,0 0.773437,0.0234375 1.113281,0.03515625 v -0.3046875 c -0.515625,0 -0.761719,0 -0.773438,-0.3046875 V -2.5064609 c 0,-0.8554688 0,-1.171875 -0.316406,-1.5234375 -0.128906,-0.1757813 -0.46875,-0.375 -1.0429686,-0.375 -0.8320313,0 -1.2773438,0.5976562 -1.4414063,0.984375 -0.140625,-0.8671875 -0.8789062,-0.984375 -1.3242187,-0.984375 -0.7265625,0 -1.1953125,0.4335937 -1.4765625,1.0546875 v -1.0546875 l -1.40625,0.1171875 v 0.3046875 c 0.703125,0 0.7851562,0.070312 0.7851562,0.5625 z m 0,0"
       style="fill:#000000;fill-opacity:1;fill-rule:nonzero;stroke:none"
       aria-label="Im"
       transform="matrix(1.3333333,0,0,1.3333333,176.69467,22.478667)" />
  </g>
</svg>
